<svg width="38" height="38" viewBox="0 0 38 38" fill="none" xmlns="http://www.w3.org/2000/svg">
<path d="M19 0C29.4934 0 38 8.50659 38 19C38 29.4934 29.4934 38 19 38C8.50659 38 0 29.4934 0 19C0 8.50659 8.50659 0 19 0ZM19 2C9.61116 2 2 9.61116 2 19C2 28.3888 9.61116 36 19 36C28.3888 36 36 28.3888 36 19C36 9.61116 28.3888 2 19 2ZM17.2314 8.35254C17.9819 6.93058 20.0181 6.93058 20.7686 8.35254L22.8203 12.2402C23.1097 12.7887 23.637 13.1726 24.248 13.2783L28.5791 14.0273C30.1637 14.3015 30.7936 16.2394 29.6729 17.3926L26.6094 20.5439L26.458 20.7188C26.1311 21.1437 25.9864 21.6856 26.0635 22.2227L26.6895 26.5742C26.9183 28.1659 25.2702 29.3629 23.8271 28.6533L19.8828 26.7139C19.3263 26.4402 18.6737 26.4402 18.1172 26.7139L14.1729 28.6533L14.0371 28.7148C12.6739 29.2699 11.188 28.1897 11.2949 26.7217L11.3105 26.5742L11.9365 22.2227C12.0247 21.609 11.8228 20.9886 11.3906 20.5439L8.32715 17.3926C7.24142 16.2755 7.79807 14.4217 9.27441 14.0576L9.4209 14.0273L13.752 13.2783C14.363 13.1726 14.8903 12.7887 15.1797 12.2402L17.2314 8.35254ZM16.9482 13.1738C16.3694 14.2707 15.3149 15.0376 14.0928 15.249L9.76172 15.998L12.8252 19.1504C13.6896 20.0398 14.0926 21.2801 13.916 22.5078L13.29 26.8584L17.2354 24.9189C18.3482 24.3719 19.6518 24.3719 20.7646 24.9189L24.71 26.8584L24.084 22.5078C23.9074 21.2801 24.3104 20.0398 25.1748 19.1504L28.2383 15.998L23.9072 15.249C22.6851 15.0376 21.6306 14.2707 21.0518 13.1738L19 9.28613L16.9482 13.1738Z" fill="#4076FF"/>
</svg>
