<svg width="39" height="38" viewBox="0 0 39 38" fill="none" xmlns="http://www.w3.org/2000/svg">
<path d="M24.4404 0.530273C24.6436 0.488101 24.8683 0.494662 25.0879 0.521484C25.5304 0.575596 26.0819 0.731203 26.6855 0.945312C27.9013 1.37659 29.4427 2.08382 30.9873 2.85547C34.075 4.39802 37.2579 6.24001 38.0264 6.75879C38.3826 6.99942 38.513 7.36775 38.501 7.73438C38.4898 8.07256 38.3611 8.42663 38.1963 8.75586C37.8627 9.42184 37.2831 10.1775 36.6855 10.8701C36.0817 11.5699 35.433 12.2353 34.9375 12.7236C34.8721 12.7881 34.8069 12.8481 34.7471 12.9062C35.0564 13.0443 35.3657 13.2346 35.6396 13.4629C36.2323 13.9569 36.7616 14.7083 36.7617 15.6543C36.7617 16.5134 36.47 17.3983 35.7969 18.0693C35.4898 18.3753 35.1125 18.6253 34.667 18.8086C34.7901 18.8659 34.9117 18.9279 35.0283 18.9961C35.5821 19.3199 36.1156 19.8188 36.2432 20.5654C36.5073 22.1121 36.2859 23.0402 35.7236 23.5703C35.4528 23.8255 35.1451 23.9435 34.8994 24.0098C34.7784 24.0424 34.6631 24.0643 34.5781 24.0811C34.5695 24.0828 34.5606 24.0844 34.5527 24.0859C34.7368 24.2537 34.9015 24.455 35.0293 24.7002C35.3062 25.2319 35.3853 25.9017 35.2451 26.7236C35.1057 27.5404 34.824 28.1623 34.4229 28.6211C34.02 29.0817 33.5252 29.344 33.0176 29.4893C33.0032 29.4934 32.988 29.4961 32.9736 29.5C33.1976 29.6607 33.4101 29.8509 33.5967 30.0771C34.115 30.706 34.3986 31.5637 34.2617 32.6855C34.1605 33.5153 33.799 34.106 33.2236 34.4707C32.6777 34.8166 31.9986 34.9194 31.3311 34.9316C30.6578 34.9439 29.9221 34.8638 29.2285 34.7852C28.6966 34.7248 28.1888 34.6656 27.7197 34.6396L27.2646 34.626L27.252 34.8809C27.124 36.1392 26.0607 37.1211 24.7686 37.1211C23.9518 37.121 23.2277 36.7278 22.7725 36.1211C22.3171 36.7279 21.5924 37.1211 20.7754 37.1211C19.9586 37.1209 19.2345 36.7278 18.7793 36.1211C18.324 36.7278 17.6 37.121 16.7832 37.1211C15.9662 37.1211 15.2415 36.7279 14.7861 36.1211C14.3309 36.7278 13.6069 37.121 12.79 37.1211C11.4979 37.1211 10.4345 36.1392 10.3066 34.8809L10.2939 34.626V35.126H4.30469C4.13195 35.126 3.99737 35.0536 3.91309 34.9932C3.82702 34.9314 3.7567 34.8556 3.70117 34.7861C3.58994 34.6469 3.48486 34.4656 3.38672 34.2686C3.18788 33.8693 2.97321 33.3159 2.75488 32.6729C2.31638 31.3812 1.84393 29.6635 1.44629 27.9365C1.04896 26.2109 0.721392 24.4575 0.578125 23.0957C0.506908 22.4186 0.479248 21.8145 0.517578 21.3516C0.536564 21.1226 0.573581 20.8986 0.646484 20.709C0.715375 20.53 0.85414 20.2859 1.13477 20.1807L1.3877 20.0811C2.01668 19.8215 2.89359 19.3816 3.71875 18.8047C4.67316 18.1373 5.49193 17.3329 5.83691 16.4707C6.31991 15.2632 6.7163 14.0821 7.23242 13.1143C7.76399 12.1177 8.45387 11.2776 9.57129 10.7188C11.0198 9.99466 12.5583 9.97503 13.46 10.0977C14.4937 7.2723 15.9991 5.87917 17.4502 5.21973C18.9308 4.54718 20.2957 4.67363 20.7646 4.67578C20.7695 4.67433 20.803 4.66657 20.8691 4.62793C20.9578 4.57603 21.0713 4.49045 21.207 4.36816C21.4783 4.12364 21.7934 3.77236 22.1211 3.36523C22.7744 2.55361 23.4366 1.57257 23.8457 0.917969L23.9062 0.834961C24.0552 0.653702 24.2609 0.567632 24.4404 0.530273ZM12.79 31.1318C11.9631 31.1318 11.2921 31.802 11.292 32.6289V34.626C11.2922 35.4528 11.9632 36.123 12.79 36.123C13.6168 36.1229 14.2869 35.4527 14.2871 34.626V32.6289C14.287 31.8021 13.6168 31.132 12.79 31.1318ZM16.7832 31.1318C15.9563 31.1318 15.2852 31.802 15.2852 32.6289V34.626C15.2854 35.4528 15.9563 36.123 16.7832 36.123C17.6099 36.1228 18.2801 35.4527 18.2803 34.626V32.6289C18.2802 31.8021 17.61 31.1321 16.7832 31.1318ZM20.7754 31.1318C19.9487 31.1321 19.2784 31.8021 19.2783 32.6289V34.626C19.2785 35.4526 19.9487 36.1228 20.7754 36.123C21.6023 36.123 22.2732 35.4528 22.2734 34.626V32.6289C22.2734 31.802 21.6023 31.1318 20.7754 31.1318ZM24.7686 31.1318C23.9418 31.1321 23.2716 31.8021 23.2715 32.6289V34.626C23.2717 35.4527 23.9419 36.1228 24.7686 36.123C25.5954 36.123 26.2664 35.4528 26.2666 34.626V32.6289C26.2665 31.802 25.5955 31.1318 24.7686 31.1318ZM13.127 11.0674C12.365 10.9952 11.1502 11.0466 10.0186 11.6123C9.1399 12.0516 8.58181 12.7102 8.11523 13.585C7.63332 14.4886 7.28067 15.5541 6.76562 16.8418C6.31204 17.9758 5.30038 18.9189 4.29199 19.624C3.31549 20.3067 2.27698 20.809 1.57617 21.0811C1.55344 21.1461 1.52816 21.2597 1.51367 21.4346C1.48311 21.8041 1.50421 22.335 1.57324 22.9912C1.71057 24.2966 2.02812 26.006 2.4209 27.7119C2.81343 29.4166 3.2765 31.1006 3.70117 32.3516C3.91432 32.9794 4.11315 33.4827 4.28223 33.8223C4.3532 33.9648 4.41345 34.063 4.45801 34.126H10.2939V32.6289C10.294 31.2506 11.4118 30.1338 12.79 30.1338C13.6078 30.1339 14.331 30.5289 14.7861 31.1367C15.2413 30.5288 15.9653 30.1338 16.7832 30.1338C17.6009 30.1339 18.3242 30.5289 18.7793 31.1367C19.2344 30.5289 19.9577 30.1339 20.7754 30.1338C21.5932 30.1338 22.3173 30.5288 22.7725 31.1367C23.2276 30.5289 23.9509 30.1339 24.7686 30.1338C26.1468 30.1338 27.2646 31.2506 27.2646 32.6289V33.626C27.9229 33.626 28.652 33.7128 29.3418 33.791C30.0468 33.871 30.7169 33.9435 31.3135 33.9326C31.9156 33.9215 32.3735 33.8255 32.6885 33.626C32.9738 33.445 33.199 33.1427 33.2695 32.5645C33.3762 31.6902 33.1541 31.113 32.8252 30.7139C32.4833 30.2991 31.9853 30.0282 31.4727 29.8584C31.0938 29.7329 30.728 29.6696 30.457 29.6396C30.3896 29.6382 30.3238 29.6346 30.2607 29.6348C30.1617 29.635 30.0833 29.6332 30.0264 29.6299C30.0006 29.6284 29.9659 29.6262 29.9326 29.6211C29.9228 29.6196 29.878 29.6123 29.8271 29.5938C29.8161 29.5898 29.7192 29.5571 29.6338 29.4668C29.5826 29.4126 29.5032 29.3025 29.4971 29.1416C29.4909 28.976 29.5654 28.855 29.623 28.79C29.7151 28.6867 29.8256 28.6524 29.834 28.6494C29.8659 28.6383 29.8934 28.6324 29.9062 28.6299C29.9337 28.6245 29.958 28.6213 29.9707 28.6201C29.9992 28.6175 30.0293 28.6167 30.0557 28.6162C30.1112 28.6153 30.1833 28.6168 30.2656 28.6211C30.3348 28.6247 30.4155 28.6308 30.5049 28.6396C30.6295 28.6425 30.7571 28.645 30.8828 28.6494C31.0965 28.657 31.3107 28.6651 31.5264 28.665C31.9601 28.6648 32.3736 28.6341 32.7432 28.5283C33.1056 28.4245 33.4197 28.25 33.6709 27.9629C33.9237 27.6737 34.1428 27.2352 34.2588 26.5557C34.3739 25.8806 34.2898 25.4466 34.1416 25.1621C33.9948 24.8804 33.7527 24.6824 33.4297 24.5381C33.0998 24.3908 32.7073 24.3102 32.3027 24.2578C32.1025 24.2319 31.9065 24.2136 31.7178 24.1963C31.5342 24.1795 31.3481 24.1626 31.1875 24.1396C31.1116 24.1288 31.0406 24.1168 30.9844 24.1035C30.9605 24.0979 30.9136 24.0858 30.8643 24.0645C30.8435 24.0555 30.7844 24.029 30.7246 23.9766C30.6732 23.9313 30.5098 23.7632 30.5625 23.499C30.6075 23.2747 30.7769 23.1762 30.8086 23.1582C30.8624 23.1276 30.9112 23.1131 30.9316 23.1074C30.9773 23.0947 31.02 23.0887 31.043 23.0859C31.0954 23.0797 31.1579 23.0763 31.2178 23.0742C31.4608 23.0659 31.8858 23.0717 32.3301 23.082C32.7799 23.0925 33.2662 23.1081 33.6387 23.1211C33.8249 23.1276 33.9839 23.1335 34.0957 23.1377C34.1366 23.1392 34.1717 23.1405 34.1992 23.1416C34.2664 23.1247 34.3328 23.1108 34.3848 23.1006C34.4755 23.0827 34.5566 23.0661 34.6387 23.0439C34.7999 23.0004 34.9325 22.9412 35.0371 22.8428C35.2261 22.6644 35.5043 22.1765 35.2578 20.7334C35.2012 20.4019 34.9553 20.1119 34.5234 19.8594C34.0947 19.6087 33.5548 19.4401 33.0684 19.3301C32.5878 19.2215 32.1955 19.1772 32.0508 19.1572C32.0354 19.1551 32.0089 19.1511 31.9854 19.1465C31.9785 19.1451 31.967 19.1429 31.9541 19.1396C31.9451 19.1374 31.9162 19.1295 31.8818 19.1152C31.8659 19.1086 31.827 19.0918 31.7842 19.0615C31.757 19.0423 31.633 18.9538 31.5879 18.7764C31.5265 18.5345 31.6552 18.3552 31.7402 18.2793C31.8113 18.2162 31.8829 18.19 31.9033 18.1826C31.9546 18.1641 31.9986 18.1584 32.0068 18.1572C32.0227 18.155 32.0363 18.1529 32.0439 18.1523C32.0596 18.1512 32.0746 18.1516 32.084 18.1514C32.104 18.1509 32.1286 18.1503 32.1533 18.1504C32.2658 18.1506 32.4374 18.1533 32.7559 18.1533C33.9003 18.1532 34.6401 17.8115 35.0918 17.3613C35.5471 16.9074 35.7617 16.2923 35.7617 15.6543C35.7616 15.1033 35.4518 14.6088 34.999 14.2314C34.5342 13.8441 34.0171 13.6634 33.7539 13.6631H19.8652C19.8525 13.6779 19.8351 13.699 19.8145 13.7285C19.7223 13.8609 19.6134 14.0773 19.4932 14.3779C19.2547 14.974 19.0123 15.7918 18.7617 16.6689C18.5145 17.5342 18.2599 18.4548 18.0059 19.2168C17.8787 19.5984 17.7477 19.953 17.6123 20.249C17.4824 20.5331 17.3274 20.8122 17.1367 21.0029C16.6149 21.5244 16.0318 21.9829 15.2637 22.1367C14.4922 22.291 13.6263 22.1204 12.5684 21.5967C11.4629 21.0494 11.018 20.0799 10.9219 19.1123C10.8278 18.1653 11.0583 17.1872 11.3232 16.4805L13.127 11.0674ZM24.6553 1.50879C24.2303 2.18398 23.5659 3.16544 22.9004 3.99219C22.5587 4.41663 22.2055 4.81517 21.877 5.11133C21.7131 5.25899 21.5431 5.39235 21.374 5.49121C21.213 5.5853 21.0048 5.67659 20.7764 5.67676C20.236 5.67676 19.115 5.56217 17.8633 6.13086C16.6381 6.68774 15.2247 7.93873 14.2627 10.8242L12.2656 16.8145L12.2598 16.832C12.0257 17.4563 11.8434 18.2732 11.917 19.0137C11.9886 19.7337 12.2925 20.3451 13.0117 20.7012C13.9618 21.1715 14.5941 21.2499 15.0674 21.1553C15.5435 21.0599 15.9536 20.7717 16.4297 20.2959C16.4885 20.237 16.5837 20.0941 16.7031 19.833C16.8172 19.5835 16.9354 19.2669 17.0576 18.9004C17.3027 18.1653 17.548 17.2759 17.7998 16.3945C18.0482 15.5252 18.3049 14.6583 18.5654 14.0068C18.6946 13.6839 18.8359 13.3844 18.9932 13.1582C19.1259 12.9675 19.3826 12.6631 19.7783 12.6631H33.5566C33.5822 12.6392 33.6118 12.6119 33.6436 12.582C33.7881 12.4459 33.9937 12.2499 34.2354 12.0117C34.7204 11.5337 35.349 10.8887 35.9287 10.2168C36.5146 9.53769 37.0259 8.85831 37.3018 8.30762C37.4415 8.0286 37.4978 7.82741 37.502 7.70117C37.5051 7.60452 37.4813 7.59664 37.4668 7.58691C36.7498 7.10298 33.6107 5.28406 30.54 3.75C29.0056 2.98343 27.5075 2.29808 26.3506 1.8877C25.7686 1.68127 25.2995 1.55438 24.9668 1.51367C24.8104 1.49458 24.7104 1.4994 24.6553 1.50879Z" fill="#4076FF"/>
<path d="M24.4404 0.530273L24.3388 0.0407113L24.3386 0.0407593L24.4404 0.530273ZM25.0879 0.521484L25.1486 0.0251816L25.1485 0.0251715L25.0879 0.521484ZM26.6855 0.945312L26.8527 0.474084L26.8527 0.474078L26.6855 0.945312ZM30.9873 2.85547L31.2108 2.40818L31.2108 2.40818L30.9873 2.85547ZM38.0264 6.75879L38.3062 6.34445L38.3061 6.34438L38.0264 6.75879ZM38.501 7.73438L39.0007 7.75094L39.0007 7.75076L38.501 7.73438ZM38.1963 8.75586L38.6433 8.97979L38.6434 8.97973L38.1963 8.75586ZM36.6855 10.8701L37.0641 11.1967L37.0641 11.1967L36.6855 10.8701ZM34.9375 12.7236L35.2885 13.0798L35.2885 13.0798L34.9375 12.7236ZM34.7471 12.9062L34.3985 12.5477L33.8695 13.062L34.5432 13.3628L34.7471 12.9062ZM35.6396 13.4629L35.9598 13.0788L35.9597 13.0788L35.6396 13.4629ZM36.7617 15.6543H37.2617V15.6543L36.7617 15.6543ZM35.7969 18.0693L36.1498 18.4235L36.1499 18.4235L35.7969 18.0693ZM34.667 18.8086L34.4768 18.3462L33.4216 18.7803L34.456 19.2619L34.667 18.8086ZM35.0283 18.9961L35.2807 18.5645L35.2807 18.5644L35.0283 18.9961ZM36.2432 20.5654L36.736 20.4813L36.736 20.4812L36.2432 20.5654ZM35.7236 23.5703L36.0665 23.9342L36.0666 23.9341L35.7236 23.5703ZM34.8994 24.0098L35.0296 24.4925L35.0296 24.4925L34.8994 24.0098ZM34.5781 24.0811L34.4816 23.5905L34.4816 23.5905L34.5781 24.0811ZM34.5527 24.0859L34.4554 23.5955L33.4837 23.7884L34.216 24.4555L34.5527 24.0859ZM35.0293 24.7002L35.4727 24.4692L35.4727 24.4692L35.0293 24.7002ZM35.2451 26.7236L35.738 26.8077L35.738 26.8077L35.2451 26.7236ZM34.4229 28.6211L34.7992 28.9503L34.7992 28.9502L34.4229 28.6211ZM33.0176 29.4893L33.1551 29.97L33.1552 29.9699L33.0176 29.4893ZM32.9736 29.5L32.843 29.0174L31.8269 29.2923L32.6821 29.9062L32.9736 29.5ZM33.5967 30.0771L33.9825 29.7591L33.9824 29.7591L33.5967 30.0771ZM34.2617 32.6855L34.758 32.7461V32.7461L34.2617 32.6855ZM33.2236 34.4707L33.4912 34.8931L33.4913 34.893L33.2236 34.4707ZM31.3311 34.9316L31.3402 35.4316H31.3402L31.3311 34.9316ZM29.2285 34.7852L29.1722 35.282H29.1722L29.2285 34.7852ZM27.7197 34.6396L27.7473 34.1403L27.7347 34.1399L27.7197 34.6396ZM27.2646 34.626L27.2797 34.1262L26.7897 34.1115L26.7653 34.6011L27.2646 34.626ZM27.252 34.8809L27.7494 34.9314L27.7507 34.9186L27.7513 34.9057L27.252 34.8809ZM24.7686 37.1211L24.7685 37.6211H24.7686V37.1211ZM22.7725 36.1211L23.1724 35.821L22.7725 35.2881L22.3725 35.821L22.7725 36.1211ZM20.7754 37.1211L20.7753 37.6211H20.7754V37.1211ZM18.7793 36.1211L19.1792 35.821L18.7793 35.2881L18.3794 35.821L18.7793 36.1211ZM16.7832 37.1211V37.6211H16.7833L16.7832 37.1211ZM14.7861 36.1211L15.1861 35.821L14.7861 35.2881L14.3862 35.821L14.7861 36.1211ZM12.79 37.1211V37.6211H12.7901L12.79 37.1211ZM10.3066 34.8809L9.80726 34.9057L9.8079 34.9186L9.8092 34.9314L10.3066 34.8809ZM10.2939 34.626L10.7933 34.6011L9.79395 34.626H10.2939ZM10.2939 35.126V35.626H10.7939V35.126H10.2939ZM4.30469 35.126L4.30468 35.626H4.30469V35.126ZM3.91309 34.9932L3.62159 35.3994L3.62182 35.3996L3.91309 34.9932ZM3.70117 34.7861L3.31048 35.0982L3.31053 35.0982L3.70117 34.7861ZM3.38672 34.2686L2.93914 34.4914L2.93915 34.4914L3.38672 34.2686ZM2.75488 32.6729L2.28142 32.8336L2.28142 32.8336L2.75488 32.6729ZM1.44629 27.9365L0.959039 28.0487L0.959039 28.0487L1.44629 27.9365ZM0.578125 23.0957L0.0808683 23.148L0.0808691 23.148L0.578125 23.0957ZM0.517578 21.3516L0.0192878 21.3102L0.0192835 21.3103L0.517578 21.3516ZM0.646484 20.709L0.179852 20.5294L0.179795 20.5295L0.646484 20.709ZM1.13477 20.1807L1.31035 20.6489L1.31798 20.6459L1.13477 20.1807ZM1.3877 20.0811L1.57093 20.5463L1.57841 20.5433L1.3877 20.0811ZM3.71875 18.8047L4.00524 19.2145L4.00527 19.2145L3.71875 18.8047ZM5.83691 16.4707L6.30113 16.6565L6.30115 16.6564L5.83691 16.4707ZM7.23242 13.1143L6.79126 12.8789L6.79124 12.879L7.23242 13.1143ZM9.57129 10.7188L9.34772 10.2715L9.34764 10.2716L9.57129 10.7188ZM13.46 10.0977L13.3926 10.5931L13.7913 10.6473L13.9295 10.2695L13.46 10.0977ZM17.4502 5.21973L17.2434 4.76449L17.2433 4.76453L17.4502 5.21973ZM20.7646 4.67578L20.7624 5.17578L20.8371 5.17612L20.9087 5.15459L20.7646 4.67578ZM20.8691 4.62793L21.1213 5.05966L21.1216 5.05949L20.8691 4.62793ZM21.207 4.36816L21.5417 4.7396L21.5418 4.73955L21.207 4.36816ZM22.1211 3.36523L22.5106 3.67877L22.5106 3.67875L22.1211 3.36523ZM23.8457 0.917969L23.4417 0.623318L23.4312 0.637785L23.4217 0.652969L23.8457 0.917969ZM23.9062 0.834961L23.52 0.51749L23.5108 0.528645L23.5023 0.54031L23.9062 0.834961ZM12.79 31.1318L12.7902 30.6318H12.79V31.1318ZM11.292 32.6289L10.792 32.6289V32.6289H11.292ZM11.292 34.626H10.792V34.6261L11.292 34.626ZM12.79 36.123V36.623H12.7902L12.79 36.123ZM14.2871 34.626L14.7871 34.6261V34.626H14.2871ZM14.2871 32.6289H14.7871V32.6289L14.2871 32.6289ZM16.7832 31.1318L16.7833 30.6318H16.7832V31.1318ZM15.2852 32.6289L14.7852 32.6289V32.6289H15.2852ZM15.2852 34.626H14.7852V34.6261L15.2852 34.626ZM16.7832 36.123V36.623H16.7833L16.7832 36.123ZM18.2803 34.626L18.7803 34.6261V34.626H18.2803ZM18.2803 32.6289H18.7803V32.6289L18.2803 32.6289ZM20.7754 31.1318V30.6318H20.7752L20.7754 31.1318ZM19.2783 32.6289L18.7783 32.6289V32.6289H19.2783ZM19.2783 34.626H18.7783V34.6261L19.2783 34.626ZM20.7754 36.123L20.7752 36.623H20.7754V36.123ZM22.2734 34.626L22.7734 34.6261V34.626H22.2734ZM22.2734 32.6289H22.7734V32.6289L22.2734 32.6289ZM24.7686 31.1318V30.6318H24.7684L24.7686 31.1318ZM23.2715 32.6289L22.7715 32.6289V32.6289H23.2715ZM23.2715 34.626H22.7715V34.6261L23.2715 34.626ZM24.7686 36.123L24.7684 36.623H24.7686V36.123ZM26.2666 34.626L26.7666 34.6261V34.626H26.2666ZM26.2666 32.6289H26.7666V32.6289L26.2666 32.6289ZM13.127 11.0674L13.6013 11.2254L13.8001 10.6289L13.1741 10.5696L13.127 11.0674ZM10.0186 11.6123L9.79499 11.1651L9.79495 11.1651L10.0186 11.6123ZM8.11523 13.585L7.67407 13.3496L7.67405 13.3497L8.11523 13.585ZM6.76562 16.8418L7.22986 17.0275L7.22987 17.0275L6.76562 16.8418ZM4.29199 19.624L4.57849 20.0338L4.57851 20.0338L4.29199 19.624ZM1.57617 21.0811L1.39525 20.6149L1.1802 20.6984L1.10414 20.9162L1.57617 21.0811ZM1.51367 21.4346L1.01538 21.3933L1.01537 21.3934L1.51367 21.4346ZM1.57324 22.9912L1.07599 23.0435L1.07599 23.0435L1.57324 22.9912ZM2.4209 27.7119L1.93365 27.8241L1.93365 27.8241L2.4209 27.7119ZM3.70117 32.3516L3.22771 32.5123L3.22771 32.5123L3.70117 32.3516ZM4.28223 33.8223L3.83464 34.0451L3.83465 34.0451L4.28223 33.8223ZM4.45801 34.126L4.04978 34.4147L4.19922 34.626H4.45801V34.126ZM10.2939 34.126V34.626H10.7939V34.126H10.2939ZM10.2939 32.6289L9.79395 32.6289V32.6289H10.2939ZM12.79 30.1338L12.7901 29.6338H12.79V30.1338ZM14.7861 31.1367L14.3859 31.4364L14.7861 31.9709L15.1864 31.4364L14.7861 31.1367ZM16.7832 30.1338L16.7833 29.6338H16.7832V30.1338ZM18.7793 31.1367L18.3791 31.4364L18.7793 31.9709L19.1795 31.4364L18.7793 31.1367ZM20.7754 30.1338V29.6338H20.7753L20.7754 30.1338ZM22.7725 31.1367L22.3722 31.4364L22.7725 31.9709L23.1727 31.4364L22.7725 31.1367ZM24.7686 30.1338V29.6338H24.7685L24.7686 30.1338ZM27.2646 32.6289H27.7646V32.6289L27.2646 32.6289ZM27.2646 33.626H26.7646V34.1259L27.2646 34.126L27.2646 33.626ZM29.3418 33.791L29.2854 34.2878H29.2854L29.3418 33.791ZM31.3135 33.9326L31.3226 34.4325H31.3227L31.3135 33.9326ZM32.6885 33.626L32.9561 34.0483L32.9563 34.0482L32.6885 33.626ZM33.2695 32.5645L33.7659 32.625L33.7659 32.625L33.2695 32.5645ZM32.8252 30.7139L33.2111 30.3959L33.211 30.3958L32.8252 30.7139ZM31.4727 29.8584L31.6299 29.3838L31.6298 29.3837L31.4727 29.8584ZM30.457 29.6396L30.5119 29.1427L30.4898 29.1402L30.4676 29.1398L30.457 29.6396ZM30.2607 29.6348L30.2596 29.1348H30.2595L30.2607 29.6348ZM30.0264 29.6299L29.9968 30.129L29.997 30.129L30.0264 29.6299ZM29.9326 29.6211L29.8562 30.1152L29.8564 30.1152L29.9326 29.6211ZM29.8271 29.5938L29.9987 29.1241L29.9974 29.1236L29.8271 29.5938ZM29.6338 29.4668L29.2703 29.8101L29.2705 29.8104L29.6338 29.4668ZM29.4971 29.1416L28.9974 29.1602L28.9974 29.1607L29.4971 29.1416ZM29.623 28.79L29.2497 28.4575L29.2492 28.458L29.623 28.79ZM29.834 28.6494L29.6694 28.1773L29.6685 28.1776L29.834 28.6494ZM29.9062 28.6299L29.8098 28.1393L29.8091 28.1394L29.9062 28.6299ZM29.9707 28.6201L29.9255 28.1222L29.925 28.1222L29.9707 28.6201ZM30.0557 28.6162L30.0471 28.1163L30.0469 28.1163L30.0557 28.6162ZM30.2656 28.6211L30.2917 28.1218L30.2916 28.1218L30.2656 28.6211ZM30.5049 28.6396L30.4554 29.1372L30.4743 29.1391L30.4934 29.1395L30.5049 28.6396ZM30.8828 28.6494L30.9005 28.1497H30.9005L30.8828 28.6494ZM31.5264 28.665L31.5266 29.165H31.5266L31.5264 28.665ZM32.7432 28.5283L32.8807 29.009L32.8809 29.009L32.7432 28.5283ZM33.6709 27.9629L34.0472 28.2921L34.0474 28.2919L33.6709 27.9629ZM34.2588 26.5557L34.7517 26.6398L34.7517 26.6397L34.2588 26.5557ZM34.1416 25.1621L34.585 24.9311L34.585 24.931L34.1416 25.1621ZM33.4297 24.5381L33.6337 24.0816L33.6336 24.0815L33.4297 24.5381ZM32.3027 24.2578L32.3669 23.7619L32.3669 23.7619L32.3027 24.2578ZM31.7178 24.1963L31.7634 23.6984H31.7634L31.7178 24.1963ZM31.1875 24.1396L31.1168 24.6346L31.1169 24.6346L31.1875 24.1396ZM30.9844 24.1035L30.8692 24.5901L30.8695 24.5902L30.9844 24.1035ZM30.8643 24.0645L30.6652 24.5231L30.6656 24.5233L30.8643 24.0645ZM30.7246 23.9766L30.3944 24.352L30.395 24.3525L30.7246 23.9766ZM30.5625 23.499L30.0723 23.4007L30.0722 23.4012L30.5625 23.499ZM30.8086 23.1582L30.5617 22.7234L30.5612 22.7237L30.8086 23.1582ZM30.9316 23.1074L30.7978 22.6257L30.7974 22.6258L30.9316 23.1074ZM31.043 23.0859L30.9843 22.5894L30.984 22.5894L31.043 23.0859ZM31.2178 23.0742L31.2006 22.5745L31.2005 22.5745L31.2178 23.0742ZM32.3301 23.082L32.3417 22.5822H32.3417L32.3301 23.082ZM33.6387 23.1211L33.6561 22.6214V22.6214L33.6387 23.1211ZM34.0957 23.1377L34.0768 23.6373V23.6373L34.0957 23.1377ZM34.1992 23.1416L34.1799 23.6412L34.2515 23.644L34.321 23.6265L34.1992 23.1416ZM34.3848 23.1006L34.4813 23.5912L34.4813 23.5912L34.3848 23.1006ZM34.6387 23.0439L34.7687 23.5267L34.7689 23.5267L34.6387 23.0439ZM35.0371 22.8428L35.3797 23.207L35.3803 23.2064L35.0371 22.8428ZM35.2578 20.7334L35.7507 20.6492L35.7507 20.6492L35.2578 20.7334ZM34.5234 19.8594L34.7758 19.4278L34.7758 19.4277L34.5234 19.8594ZM33.0684 19.3301L33.1786 18.8424L33.1786 18.8424L33.0684 19.3301ZM32.0508 19.1572L31.9825 19.6525L31.9826 19.6526L32.0508 19.1572ZM31.9854 19.1465L31.8888 19.6371L31.8892 19.6371L31.9854 19.1465ZM31.9541 19.1396L31.8314 19.6244L31.8319 19.6245L31.9541 19.1396ZM31.8818 19.1152L31.6895 19.5768L31.6899 19.5769L31.8818 19.1152ZM31.7842 19.0615L31.4956 19.4698L31.4959 19.4701L31.7842 19.0615ZM31.5879 18.7764L31.1033 18.8994L31.1033 18.8997L31.5879 18.7764ZM31.7402 18.2793L31.4081 17.9056L31.4074 17.9062L31.7402 18.2793ZM31.9033 18.1826L31.7335 17.7123L31.7329 17.7126L31.9033 18.1826ZM32.0068 18.1572L31.9372 17.6621L31.937 17.6621L32.0068 18.1572ZM32.0439 18.1523L32.008 17.6536L32.007 17.6537L32.0439 18.1523ZM32.084 18.1514L32.0717 17.6515L32.0717 17.6515L32.084 18.1514ZM32.1533 18.1504L32.1543 17.6504L32.1543 17.6504L32.1533 18.1504ZM32.7559 18.1533V18.6533H32.7559L32.7559 18.1533ZM35.0918 17.3613L35.4447 17.7155L35.4448 17.7154L35.0918 17.3613ZM35.7617 15.6543H36.2617V15.6542L35.7617 15.6543ZM34.999 14.2314L35.3191 13.8474L35.3191 13.8473L34.999 14.2314ZM33.7539 13.6631L33.7544 13.1631H33.7539V13.6631ZM19.8652 13.6631V13.1631H19.6366L19.487 13.336L19.8652 13.6631ZM19.8145 13.7285L19.4043 13.4426L19.404 13.443L19.8145 13.7285ZM19.4932 14.3779L19.0289 14.1922L19.0289 14.1922L19.4932 14.3779ZM18.7617 16.6689L18.281 16.5316V16.5316L18.7617 16.6689ZM18.0059 19.2168L18.4802 19.3749L18.4802 19.3749L18.0059 19.2168ZM17.6123 20.249L18.067 20.4569L18.067 20.4569L17.6123 20.249ZM17.1367 21.0029L17.4902 21.3566L17.4903 21.3564L17.1367 21.0029ZM15.2637 22.1367L15.3617 22.627L15.3618 22.627L15.2637 22.1367ZM12.5684 21.5967L12.3465 22.0448L12.3465 22.0448L12.5684 21.5967ZM10.9219 19.1123L10.4243 19.1617L10.4243 19.1618L10.9219 19.1123ZM11.3232 16.4805L11.7914 16.656L11.7947 16.6473L11.7976 16.6385L11.3232 16.4805ZM24.6553 1.50879L24.5714 1.01588L24.3511 1.05336L24.2321 1.24247L24.6553 1.50879ZM22.9004 3.99219L23.2899 4.30572L23.2899 4.3057L22.9004 3.99219ZM21.877 5.11133L22.2117 5.48275L22.2117 5.48272L21.877 5.11133ZM21.374 5.49121L21.6263 5.9229L21.6264 5.92282L21.374 5.49121ZM20.7764 5.67676V6.17676H20.7767L20.7764 5.67676ZM17.8633 6.13086L17.6565 5.67564L17.6564 5.67567L17.8633 6.13086ZM14.2627 10.8242L14.737 10.9824L14.737 10.9824L14.2627 10.8242ZM12.2656 16.8145L11.7913 16.6563L11.7913 16.6563L12.2656 16.8145ZM12.2598 16.832L12.728 17.0075L12.7312 16.9989L12.7341 16.9901L12.2598 16.832ZM11.917 19.0137L11.4194 19.0631L11.4194 19.0632L11.917 19.0137ZM13.0117 20.7012L12.7899 21.1493L12.7899 21.1493L13.0117 20.7012ZM15.0674 21.1553L15.1654 21.6456L15.1656 21.6455L15.0674 21.1553ZM16.4297 20.2959L16.7831 20.6496L16.7837 20.649L16.4297 20.2959ZM16.7031 19.833L17.1578 20.0409L17.1579 20.0409L16.7031 19.833ZM17.0576 18.9004L17.532 19.0585L17.532 19.0585L17.0576 18.9004ZM17.7998 16.3945L17.319 16.2572V16.2572L17.7998 16.3945ZM18.5654 14.0068L18.1012 13.8211L18.1012 13.8212L18.5654 14.0068ZM18.9932 13.1582L18.5828 12.8726L18.5827 12.8727L18.9932 13.1582ZM33.5566 12.6631V13.1631H33.7538L33.8979 13.0285L33.5566 12.6631ZM33.6436 12.582L33.9864 12.946L33.9864 12.946L33.6436 12.582ZM34.2354 12.0117L34.5863 12.3678L34.5863 12.3678L34.2354 12.0117ZM35.9287 10.2168L36.3073 10.5434L36.3073 10.5434L35.9287 10.2168ZM37.3018 8.30762L37.7488 8.53153L37.7488 8.53148L37.3018 8.30762ZM37.502 7.70117L38.0017 7.71774L38.0017 7.71725L37.502 7.70117ZM37.4668 7.58691L37.1871 8.00135L37.1888 8.00252L37.4668 7.58691ZM30.54 3.75L30.7635 3.30271L30.7635 3.30271L30.54 3.75ZM26.3506 1.8877L26.5177 1.41647L26.5177 1.41646L26.3506 1.8877ZM24.9668 1.51367L25.0275 1.01737L25.0274 1.01736L24.9668 1.51367ZM24.4404 0.530273L24.5421 1.01984C24.6691 0.993462 24.8325 0.994006 25.0273 1.0178L25.0879 0.521484L25.1485 0.0251715C24.9041 -0.00468069 24.618 -0.0172597 24.3388 0.0407113L24.4404 0.530273ZM25.0879 0.521484L25.0272 1.01779C25.4152 1.06523 25.926 1.20642 26.5184 1.41655L26.6855 0.945312L26.8527 0.474078C26.2378 0.255983 25.6456 0.0859618 25.1486 0.0251816L25.0879 0.521484ZM26.6855 0.945312L26.5184 1.41654C27.7048 1.8374 29.2244 2.53367 30.7638 3.30276L30.9873 2.85547L31.2108 2.40818C29.661 1.63397 28.0978 0.915771 26.8527 0.474084L26.6855 0.945312ZM30.9873 2.85547L30.7638 3.30276C33.8432 4.84114 37.0042 6.67199 37.7466 7.1732L38.0264 6.75879L38.3061 6.34438C37.5116 5.80804 34.3068 3.95491 31.2108 2.40818L30.9873 2.85547ZM38.0264 6.75879L37.7465 7.17313C37.9308 7.29758 38.0089 7.48426 38.0012 7.71799L38.501 7.73438L39.0007 7.75076C39.0171 7.25125 38.8345 6.70126 38.3062 6.34445L38.0264 6.75879ZM38.501 7.73438L38.0013 7.71781C37.9935 7.95037 37.9012 8.22837 37.7492 8.53199L38.1963 8.75586L38.6434 8.97973C38.821 8.6249 38.986 8.19475 39.0007 7.75094L38.501 7.73438ZM38.1963 8.75586L37.7492 8.53193C37.4445 9.14026 36.8987 9.85758 36.307 10.5435L36.6855 10.8701L37.0641 11.1967C37.6675 10.4974 38.2809 9.70342 38.6433 8.97979L38.1963 8.75586ZM36.6855 10.8701L36.307 10.5435C35.7152 11.2294 35.0768 11.8844 34.5865 12.3675L34.9375 12.7236L35.2885 13.0798C35.7892 12.5862 36.4483 11.9105 37.0641 11.1967L36.6855 10.8701ZM34.9375 12.7236L34.5865 12.3675C34.5127 12.4403 34.4815 12.4671 34.3985 12.5477L34.7471 12.9062L35.0956 13.2648C35.1322 13.2291 35.2314 13.136 35.2885 13.0798L34.9375 12.7236ZM34.7471 12.9062L34.5432 13.3628C34.8114 13.4825 35.0816 13.6487 35.3196 13.847L35.6396 13.4629L35.9597 13.0788C35.6499 12.8206 35.3013 12.6061 34.9509 12.4497L34.7471 12.9062ZM35.6396 13.4629L35.3195 13.847C35.8429 14.2832 36.2617 14.9064 36.2617 15.6543L36.7617 15.6543L37.2617 15.6543C37.2616 14.5102 36.6217 13.6306 35.9598 13.0788L35.6396 13.4629ZM36.7617 15.6543H36.2617C36.2617 16.4027 36.0083 17.1526 35.4439 17.7152L35.7969 18.0693L36.1499 18.4235C36.9318 17.644 37.2617 16.6241 37.2617 15.6543H36.7617ZM35.7969 18.0693L35.444 17.7152C35.1864 17.9718 34.8654 18.1863 34.4768 18.3462L34.667 18.8086L34.8572 19.271C35.3597 19.0643 35.7932 18.7788 36.1498 18.4235L35.7969 18.0693ZM34.667 18.8086L34.456 19.2619C34.5685 19.3143 34.6758 19.3692 34.776 19.4277L35.0283 18.9961L35.2807 18.5644C35.1476 18.4867 35.0117 18.4175 34.878 18.3553L34.667 18.8086ZM35.0283 18.9961L34.7759 19.4277C35.2695 19.7164 35.6583 20.1112 35.7503 20.6496L36.2432 20.5654L36.736 20.4812C36.5729 19.5264 35.8946 18.9235 35.2807 18.5645L35.0283 18.9961ZM36.2432 20.5654L35.7503 20.6496C36.0058 22.1458 35.7557 22.8528 35.3806 23.2065L35.7236 23.5703L36.0666 23.9341C36.8161 23.2275 37.0088 22.0784 36.736 20.4813L36.2432 20.5654ZM35.7236 23.5703L35.3807 23.2064C35.1932 23.3831 34.9733 23.472 34.7692 23.527L34.8994 24.0098L35.0296 24.4925C35.3169 24.415 35.7124 24.2679 36.0665 23.9342L35.7236 23.5703ZM34.8994 24.0098L34.7693 23.527C34.668 23.5543 34.5705 23.573 34.4816 23.5905L34.5781 24.0811L34.6746 24.5716C34.7557 24.5557 34.8887 24.5305 35.0296 24.4925L34.8994 24.0098ZM34.5781 24.0811L34.4816 23.5905C34.4792 23.5909 34.4766 23.5914 34.4719 23.5923C34.468 23.5931 34.4617 23.5942 34.4554 23.5955L34.5527 24.0859L34.6501 24.5764C34.6758 24.5713 34.6382 24.5788 34.6747 24.5716L34.5781 24.0811ZM34.5527 24.0859L34.216 24.4555C34.3619 24.5885 34.4884 24.744 34.5859 24.9312L35.0293 24.7002L35.4727 24.4692C35.3147 24.1659 35.1117 23.9188 34.8895 23.7163L34.5527 24.0859ZM35.0293 24.7002L34.5858 24.9312C34.7983 25.339 34.88 25.8907 34.7522 26.6396L35.2451 26.7236L35.738 26.8077C35.8907 25.9127 35.8142 25.1248 35.4727 24.4692L35.0293 24.7002ZM35.2451 26.7236L34.7522 26.6395C34.6246 27.3876 34.3737 27.9178 34.0465 28.292L34.4229 28.6211L34.7992 28.9502C35.2743 28.4069 35.5869 27.6932 35.738 26.8077L35.2451 26.7236ZM34.4229 28.6211L34.0465 28.2919C33.7195 28.6657 33.3152 28.884 32.88 29.0086L33.0176 29.4893L33.1552 29.9699C33.7351 29.8039 34.3204 29.4976 34.7992 28.9503L34.4229 28.6211ZM33.0176 29.4893L32.8801 29.0085C32.8846 29.0072 32.8876 29.0065 32.8881 29.0064C32.8885 29.0063 32.888 29.0064 32.8845 29.0072C32.882 29.0078 32.8757 29.0092 32.8695 29.0107C32.8628 29.0123 32.8536 29.0145 32.843 29.0174L32.9736 29.5L33.1042 29.9826C33.1009 29.9835 33.099 29.984 33.0996 29.9838C33.1008 29.9836 33.1018 29.9833 33.1068 29.9822C33.1135 29.9807 33.1332 29.9762 33.1551 29.97L33.0176 29.4893ZM32.9736 29.5L32.6821 29.9062C32.8761 30.0454 33.0556 30.2069 33.2109 30.3952L33.5967 30.0771L33.9824 29.7591C33.7647 29.495 33.5191 29.276 33.2652 29.0938L32.9736 29.5ZM33.5967 30.0771L33.2108 30.3952C33.6344 30.9091 33.8872 31.6268 33.7654 32.625L34.2617 32.6855L34.758 32.7461C34.91 31.5006 34.5956 30.503 33.9825 29.7591L33.5967 30.0771ZM34.2617 32.6855L33.7654 32.625C33.6794 33.3296 33.3859 33.7758 32.9559 34.0484L33.2236 34.4707L33.4913 34.893C34.2121 34.4361 34.6415 33.701 34.758 32.7461L34.2617 32.6855ZM33.2236 34.4707L32.956 34.0483C32.5258 34.3209 31.9573 34.4201 31.3219 34.4317L31.3311 34.9316L31.3402 35.4316C32.04 35.4187 32.8296 35.3123 33.4912 34.8931L33.2236 34.4707ZM31.3311 34.9316L31.3219 34.4317C30.6868 34.4433 29.9835 34.3676 29.2849 34.2883L29.2285 34.7852L29.1722 35.282C29.8608 35.3601 30.6288 35.4445 31.3402 35.4316L31.3311 34.9316ZM29.2285 34.7852L29.2849 34.2883C28.7581 34.2286 28.2341 34.1673 27.7473 34.1404L27.7197 34.6396L27.6922 35.1389C28.1436 35.1638 28.6351 35.2211 29.1722 35.282L29.2285 34.7852ZM27.7197 34.6396L27.7347 34.1399L27.2797 34.1262L27.2646 34.626L27.2496 35.1258L27.7047 35.1394L27.7197 34.6396ZM27.2646 34.626L26.7653 34.6011L26.7526 34.856L27.252 34.8809L27.7513 34.9057L27.764 34.6508L27.2646 34.626ZM27.252 34.8809L26.7545 34.8303C26.6523 35.8358 25.8017 36.6211 24.7686 36.6211V37.1211V37.6211C26.3197 37.6211 27.5958 36.4426 27.7494 34.9314L27.252 34.8809ZM24.7686 37.1211L24.7686 36.6211C24.1163 36.621 23.5376 36.3077 23.1724 35.821L22.7725 36.1211L22.3725 36.4212C22.9178 37.1478 23.7872 37.6209 24.7685 37.6211L24.7686 37.1211ZM22.7725 36.1211L22.3725 35.821C22.0073 36.3077 21.428 36.6211 20.7754 36.6211V37.1211V37.6211C21.7568 37.6211 22.6269 37.1481 23.1724 36.4212L22.7725 36.1211ZM20.7754 37.1211L20.7755 36.6211C20.1232 36.621 19.5444 36.3077 19.1792 35.821L18.7793 36.1211L18.3794 36.4212C18.9246 37.1478 19.794 37.6209 20.7753 37.6211L20.7754 37.1211ZM18.7793 36.1211L18.3794 35.821C18.0141 36.3077 17.4354 36.621 16.7831 36.6211L16.7832 37.1211L16.7833 37.6211C17.7646 37.6209 18.6339 37.1478 19.1792 36.4212L18.7793 36.1211ZM16.7832 37.1211V36.6211C16.1306 36.6211 15.5513 36.3077 15.1861 35.821L14.7861 36.1211L14.3862 36.4212C14.9317 37.1481 15.8018 37.6211 16.7832 37.6211V37.1211ZM14.7861 36.1211L14.3862 35.821C14.0209 36.3077 13.4423 36.621 12.79 36.6211L12.79 37.1211L12.7901 37.6211C13.7714 37.621 14.6408 37.1478 15.186 36.4212L14.7861 36.1211ZM12.79 37.1211V36.6211C11.7569 36.6211 10.9063 35.8358 10.8041 34.8303L10.3066 34.8809L9.8092 34.9314C9.96281 36.4426 11.2389 37.6211 12.79 37.6211V37.1211ZM10.3066 34.8809L10.806 34.856L10.7933 34.6011L10.2939 34.626L9.79456 34.6508L9.80726 34.9057L10.3066 34.8809ZM10.2939 34.626H9.79395V35.126H10.2939H10.7939V34.626H10.2939ZM10.2939 35.126V34.626H4.30469V35.126V35.626H10.2939V35.126ZM4.30469 35.126L4.3047 34.626C4.27503 34.626 4.24166 34.6135 4.20435 34.5868L3.91309 34.9932L3.62182 35.3996C3.75308 35.4936 3.98886 35.626 4.30468 35.626L4.30469 35.126ZM3.91309 34.9932L4.20458 34.5869C4.16897 34.5614 4.13113 34.5233 4.09181 34.474L3.70117 34.7861L3.31053 35.0982C3.38228 35.188 3.48508 35.3014 3.62159 35.3994L3.91309 34.9932ZM3.70117 34.7861L4.09187 34.4741C4.01264 34.3749 3.92588 34.2296 3.83429 34.0457L3.38672 34.2686L2.93915 34.4914C3.04384 34.7017 3.16724 34.9188 3.31048 35.0982L3.70117 34.7861ZM3.38672 34.2686L3.8343 34.0457C3.65043 33.6764 3.44422 33.148 3.22834 32.5121L2.75488 32.6729L2.28142 32.8336C2.50221 33.4839 2.72534 34.0621 2.93914 34.4914L3.38672 34.2686ZM2.75488 32.6729L3.22834 32.5121C2.79675 31.2408 2.32862 29.5401 1.93354 27.8243L1.44629 27.9365L0.959039 28.0487C1.35925 29.7868 1.83601 31.5216 2.28142 32.8336L2.75488 32.6729ZM1.44629 27.9365L1.93354 27.8243C1.53845 26.1084 1.21567 24.3769 1.07538 23.0434L0.578125 23.0957L0.0808691 23.148C0.227111 24.5381 0.559467 26.3134 0.959039 28.0487L1.44629 27.9365ZM0.578125 23.0957L1.07538 23.0434C1.00532 22.3773 0.981378 21.8094 1.01587 21.3928L0.517578 21.3516L0.0192835 21.3103C-0.0228817 21.8195 0.00849423 22.4599 0.0808683 23.148L0.578125 23.0957ZM0.517578 21.3516L1.01587 21.3929C1.03317 21.1842 1.06486 21.0141 1.11317 20.8884L0.646484 20.709L0.179795 20.5295C0.0822996 20.7831 0.0399611 21.0609 0.0192878 21.3102L0.517578 21.3516ZM0.646484 20.709L1.11312 20.8886C1.16232 20.7607 1.2283 20.6796 1.31033 20.6488L1.13477 20.1807L0.959204 19.7125C0.479978 19.8922 0.268429 20.2992 0.179852 20.5294L0.646484 20.709ZM1.13477 20.1807L1.31798 20.6459L1.57091 20.5463L1.3877 20.0811L1.20448 19.6158L0.95155 19.7154L1.13477 20.1807ZM1.3877 20.0811L1.57841 20.5433C2.23501 20.2723 3.14518 19.8158 4.00524 19.2145L3.71875 18.8047L3.43226 18.3949C2.642 18.9474 1.79836 19.3707 1.19698 19.6189L1.3877 20.0811ZM3.71875 18.8047L4.00527 19.2145C4.98661 18.5283 5.90179 17.6544 6.30113 16.6565L5.83691 16.4707L5.3727 16.285C5.08207 17.0113 4.35972 17.7464 3.43223 18.3949L3.71875 18.8047ZM5.83691 16.4707L6.30115 16.6564C6.79993 15.4094 7.17461 14.2853 7.67361 13.3495L7.23242 13.1143L6.79124 12.879C6.25799 13.8789 5.8399 15.1169 5.37267 16.285L5.83691 16.4707ZM7.23242 13.1143L7.67359 13.3496C8.17266 12.4139 8.79701 11.665 9.79493 11.1659L9.57129 10.7188L9.34764 10.2716C8.11073 10.8901 7.35532 11.8214 6.79126 12.8789L7.23242 13.1143ZM9.57129 10.7188L9.79486 11.166C11.1265 10.5003 12.5559 10.4793 13.3926 10.5931L13.46 10.0977L13.5273 9.60222C12.5608 9.47076 10.913 9.48902 9.34772 10.2715L9.57129 10.7188ZM13.46 10.0977L13.9295 10.2695C14.9244 7.55038 16.3457 6.27086 17.6571 5.67493L17.4502 5.21973L17.2433 4.76453C15.6525 5.48748 14.063 6.99421 12.9904 9.92585L13.46 10.0977ZM17.4502 5.21973L17.657 5.67496C19.0175 5.05699 20.2594 5.17347 20.7624 5.17578L20.7646 4.67578L20.7669 4.17579C20.332 4.17379 18.8442 4.03737 17.2434 4.76449L17.4502 5.21973ZM20.7646 4.67578L20.9087 5.15459C20.9027 5.15639 20.8973 5.15784 20.8994 5.15727C20.8995 5.15725 20.9016 5.15667 20.9039 5.15601C20.9092 5.15452 20.9162 5.15248 20.9245 5.14986C20.9411 5.14459 20.9599 5.13798 20.9808 5.12957C21.0223 5.11283 21.069 5.09023 21.1213 5.05966L20.8691 4.62793L20.6169 4.1962C20.6031 4.20427 20.6 4.20487 20.607 4.20204C20.6106 4.20058 20.616 4.1986 20.6229 4.1964C20.6264 4.19531 20.6294 4.19442 20.6317 4.19378C20.6325 4.19355 20.6334 4.19332 20.6323 4.19359C20.6321 4.19366 20.6308 4.19401 20.6293 4.19443C20.628 4.1948 20.6247 4.19573 20.6206 4.19697L20.7646 4.67578ZM20.8691 4.62793L21.1216 5.05949C21.2509 4.98384 21.3927 4.87392 21.5417 4.7396L21.207 4.36816L20.8723 3.99673C20.75 4.10698 20.6648 4.16822 20.6166 4.19637L20.8691 4.62793ZM21.207 4.36816L21.5418 4.73955C21.8417 4.46923 22.1759 4.09457 22.5106 3.67877L22.1211 3.36523L21.7316 3.0517C21.4109 3.45016 21.1149 3.77804 20.8723 3.99678L21.207 4.36816ZM22.1211 3.36523L22.5106 3.67875C23.1802 2.84689 23.8539 1.84827 24.2697 1.18297L23.8457 0.917969L23.4217 0.652969C23.0193 1.29686 22.3686 2.26033 21.7316 3.05171L22.1211 3.36523ZM23.8457 0.917969L24.2497 1.21262L24.3102 1.12961L23.9062 0.834961L23.5023 0.54031L23.4417 0.623318L23.8457 0.917969ZM23.9062 0.834961L24.2925 1.15243C24.3452 1.08837 24.4309 1.04296 24.5423 1.01979L24.4404 0.530273L24.3386 0.0407593C24.0909 0.0923004 23.7653 0.219032 23.52 0.51749L23.9062 0.834961ZM12.79 31.1318V30.6318C11.6873 30.6318 10.7921 31.5255 10.792 32.6289L11.292 32.6289L11.792 32.629C11.792 32.0785 12.2389 31.6318 12.79 31.6318V31.1318ZM11.292 32.6289H10.792V34.626H11.292H11.792V32.6289H11.292ZM11.292 34.626L10.792 34.6261C10.7923 35.7293 11.6873 36.623 12.79 36.623V36.123V35.623C12.239 35.623 11.7921 35.1763 11.792 34.6259L11.292 34.626ZM12.79 36.123L12.7902 36.623C13.8929 36.6228 14.7868 35.7288 14.7871 34.6261L14.2871 34.626L13.7871 34.6259C13.787 35.1765 13.3406 35.6229 12.7899 35.623L12.79 36.123ZM14.2871 34.626H14.7871V32.6289H14.2871H13.7871V34.626H14.2871ZM14.2871 32.6289L14.7871 32.6289C14.787 31.5259 13.8929 30.6321 12.7902 30.6318L12.79 31.1318L12.7899 31.6318C13.3407 31.632 13.7871 32.0783 13.7871 32.629L14.2871 32.6289ZM16.7832 31.1318V30.6318C15.6805 30.6318 14.7853 31.5255 14.7852 32.6289L15.2852 32.6289L15.7852 32.629C15.7852 32.0785 16.232 31.6318 16.7832 31.6318V31.1318ZM15.2852 32.6289H14.7852V34.626H15.2852H15.7852V32.6289H15.2852ZM15.2852 34.626L14.7852 34.6261C14.7854 35.7293 15.6805 36.623 16.7832 36.623V36.123V35.623C16.2322 35.623 15.7853 35.1763 15.7852 34.6259L15.2852 34.626ZM16.7832 36.123L16.7833 36.623C17.886 36.6227 18.78 35.7288 18.7803 34.6261L18.2803 34.626L17.7803 34.6259C17.7801 35.1765 17.3337 35.6229 16.7831 35.623L16.7832 36.123ZM18.2803 34.626H18.7803V32.6289H18.2803H17.7803V34.626H18.2803ZM18.2803 32.6289L18.7803 32.6289C18.7802 31.5259 17.886 30.6321 16.7833 30.6318L16.7832 31.1318L16.7831 31.6318C17.3339 31.632 17.7802 32.0784 17.7803 32.629L18.2803 32.6289ZM20.7754 31.1318L20.7752 30.6318C19.6726 30.6322 18.7784 31.5259 18.7783 32.6289L19.2783 32.6289L19.7783 32.629C19.7784 32.0784 20.2247 31.632 20.7755 31.6318L20.7754 31.1318ZM19.2783 32.6289H18.7783V34.626H19.2783H19.7783V32.6289H19.2783ZM19.2783 34.626L18.7783 34.6261C18.7786 35.7288 19.6726 36.6227 20.7752 36.623L20.7754 36.123L20.7755 35.623C20.2249 35.6229 19.7785 35.1764 19.7783 34.6259L19.2783 34.626ZM20.7754 36.123V36.623C21.8781 36.623 22.7732 35.7293 22.7734 34.6261L22.2734 34.626L21.7734 34.6259C21.7733 35.1763 21.3264 35.623 20.7754 35.623V36.123ZM22.2734 34.626H22.7734V32.6289H22.2734H21.7734V34.626H22.2734ZM22.2734 32.6289L22.7734 32.6289C22.7733 31.5255 21.8781 30.6318 20.7754 30.6318V31.1318V31.6318C21.3266 31.6318 21.7734 32.0785 21.7734 32.629L22.2734 32.6289ZM24.7686 31.1318L24.7684 30.6318C23.6657 30.6321 22.7716 31.5259 22.7715 32.6289L23.2715 32.6289L23.7715 32.629C23.7715 32.0784 24.2179 31.632 24.7687 31.6318L24.7686 31.1318ZM23.2715 32.6289H22.7715V34.626H23.2715H23.7715V32.6289H23.2715ZM23.2715 34.626L22.7715 34.6261C22.7718 35.7288 23.6657 36.6227 24.7684 36.623L24.7686 36.123L24.7687 35.623C24.218 35.6229 23.7716 35.1765 23.7715 34.6259L23.2715 34.626ZM24.7686 36.123V36.623C25.8713 36.623 26.7663 35.7293 26.7666 34.6261L26.2666 34.626L25.7666 34.6259C25.7665 35.1763 25.3196 35.623 24.7686 35.623V36.123ZM26.2666 34.626H26.7666V32.6289H26.2666H25.7666V34.626H26.2666ZM26.2666 32.6289L26.7666 32.6289C26.7665 31.5255 25.8713 30.6318 24.7686 30.6318V31.1318V31.6318C25.3197 31.6318 25.7665 32.0785 25.7666 32.629L26.2666 32.6289ZM13.127 11.0674L13.1741 10.5696C12.3545 10.492 11.0373 10.5441 9.79499 11.1651L10.0186 11.6123L10.2421 12.0595C11.263 11.5492 12.3756 11.4985 13.0798 11.5652L13.127 11.0674ZM10.0186 11.6123L9.79495 11.1651C8.79659 11.6643 8.17301 12.4142 7.67407 13.3496L8.11523 13.585L8.5564 13.8203C8.99061 13.0062 9.48322 12.439 10.2422 12.0595L10.0186 11.6123ZM8.11523 13.585L7.67405 13.3497C7.17503 14.2854 6.80017 15.4091 6.30138 16.6561L6.76562 16.8418L7.22987 17.0275C7.76118 15.6992 8.0916 14.6918 8.55642 13.8202L8.11523 13.585ZM6.76562 16.8418L6.30139 16.6561C5.90214 17.6542 4.98688 18.528 4.00547 19.2143L4.29199 19.624L4.57851 20.0338C5.61389 19.3098 6.72195 18.2973 7.22986 17.0275L6.76562 16.8418ZM4.29199 19.624L4.00549 19.2142C3.06667 19.8706 2.06472 20.3551 1.39525 20.6149L1.57617 21.0811L1.7571 21.5472C2.48924 21.263 3.56431 20.7429 4.57849 20.0338L4.29199 19.624ZM1.57617 21.0811L1.10414 20.9162C1.06272 21.0348 1.03193 21.1936 1.01538 21.3933L1.51367 21.4346L2.01196 21.4759C2.02439 21.3259 2.04416 21.2575 2.04821 21.2459L1.57617 21.0811ZM1.51367 21.4346L1.01537 21.3934C0.980936 21.8097 1.00589 22.3772 1.07599 23.0435L1.57324 22.9912L2.0705 22.9389C2.00253 22.2927 1.98527 21.7986 2.01197 21.4758L1.51367 21.4346ZM1.57324 22.9912L1.07599 23.0435C1.21628 24.3771 1.53861 26.1084 1.93365 27.8241L2.4209 27.7119L2.90815 27.5997C2.51763 25.9037 2.20486 24.216 2.0705 22.9389L1.57324 22.9912ZM2.4209 27.7119L1.93365 27.8241C2.3287 29.5398 2.79608 31.2409 3.22771 32.5123L3.70117 32.3516L4.17463 32.1908C3.75691 30.9604 3.29816 29.2935 2.90815 27.5997L2.4209 27.7119ZM3.70117 32.3516L3.22771 32.5123C3.4436 33.1482 3.65083 33.676 3.83464 34.0451L4.28223 33.8223L4.72981 33.5994C4.57547 33.2894 4.38505 32.8106 4.17463 32.1908L3.70117 32.3516ZM4.28223 33.8223L3.83465 34.0451C3.91461 34.2057 3.9876 34.3268 4.04978 34.4147L4.45801 34.126L4.86623 33.8373C4.83931 33.7992 4.7918 33.7239 4.7298 33.5994L4.28223 33.8223ZM4.45801 34.126V34.626H10.2939V34.126V33.626H4.45801V34.126ZM10.2939 34.126H10.7939V32.6289H10.2939H9.79395V34.126H10.2939ZM10.2939 32.6289L10.7939 32.6289C10.794 31.527 11.6877 30.6338 12.79 30.6338V30.1338V29.6338C11.1358 29.6338 9.79404 30.9743 9.79395 32.6289L10.2939 32.6289ZM12.79 30.1338L12.79 30.6338C13.4423 30.6339 14.0203 30.9482 14.3859 31.4364L14.7861 31.1367L15.1864 30.837C14.6417 30.1096 13.7732 29.6339 12.7901 29.6338L12.79 30.1338ZM14.7861 31.1367L15.1864 31.4364C15.5519 30.9482 16.1306 30.6338 16.7832 30.6338V30.1338V29.6338C15.8001 29.6338 14.9307 30.1094 14.3859 30.837L14.7861 31.1367ZM16.7832 30.1338L16.7831 30.6338C17.4354 30.6339 18.0135 30.9482 18.3791 31.4364L18.7793 31.1367L19.1795 30.837C18.6349 30.1096 17.7664 29.634 16.7833 29.6338L16.7832 30.1338ZM18.7793 31.1367L19.1795 31.4364C19.5451 30.9482 20.1232 30.6339 20.7755 30.6338L20.7754 30.1338L20.7753 29.6338C19.7923 29.634 18.9237 30.1096 18.3791 30.837L18.7793 31.1367ZM20.7754 30.1338V30.6338C21.428 30.6338 22.0067 30.9482 22.3722 31.4364L22.7725 31.1367L23.1727 30.837C22.6279 30.1094 21.7585 29.6338 20.7754 29.6338V30.1338ZM22.7725 31.1367L23.1727 31.4364C23.5382 30.9482 24.1163 30.6339 24.7686 30.6338L24.7686 30.1338L24.7685 29.6338C23.7854 29.6339 22.9169 30.1096 22.3722 30.837L22.7725 31.1367ZM24.7686 30.1338V30.6338C25.8709 30.6338 26.7646 31.527 26.7646 32.6289L27.2646 32.6289L27.7646 32.6289C27.7646 30.9743 26.4227 29.6338 24.7686 29.6338V30.1338ZM27.2646 32.6289H26.7646V33.626H27.2646H27.7646V32.6289H27.2646ZM27.2646 33.626L27.2646 34.126C27.8884 34.126 28.5861 34.2085 29.2854 34.2878L29.3418 33.791L29.3981 33.2942C28.7179 33.2171 27.9573 33.126 27.2647 33.126L27.2646 33.626ZM29.3418 33.791L29.2854 34.2878C29.9843 34.3671 30.6875 34.4441 31.3226 34.4325L31.3135 33.9326L31.3043 33.4327C30.7464 33.4429 30.1094 33.3749 29.3981 33.2942L29.3418 33.791ZM31.3135 33.9326L31.3227 34.4325C31.9573 34.4209 32.5256 34.3211 32.9561 34.0483L32.6885 33.626L32.4209 33.2036C32.2214 33.33 31.8738 33.4222 31.3043 33.4327L31.3135 33.9326ZM32.6885 33.626L32.9563 34.0482C33.3859 33.7757 33.6799 33.3297 33.7659 32.625L33.2695 32.5645L32.7732 32.5039C32.7181 32.9558 32.5616 33.1144 32.4207 33.2038L32.6885 33.626ZM33.2695 32.5645L33.7659 32.625C33.8876 31.6266 33.6344 30.9096 33.2111 30.3959L32.8252 30.7139L32.4393 31.0319C32.6739 31.3165 32.8647 31.7539 32.7732 32.5039L33.2695 32.5645ZM32.8252 30.7139L33.211 30.3958C32.7877 29.8822 32.1932 29.5704 31.6299 29.3838L31.4727 29.8584L31.3154 30.333C31.7775 30.4861 32.179 30.716 32.4394 31.0319L32.8252 30.7139ZM31.4727 29.8584L31.6298 29.3837C31.2098 29.2446 30.8082 29.1754 30.5119 29.1427L30.457 29.6396L30.4022 30.1366C30.6479 30.1638 30.9779 30.2212 31.3155 30.333L31.4727 29.8584ZM30.457 29.6396L30.4676 29.1398C30.4266 29.1389 30.3268 29.1346 30.2596 29.1348L30.2607 29.6348L30.2619 30.1348C30.3208 30.1346 30.3526 30.1376 30.4465 30.1395L30.457 29.6396ZM30.2607 29.6348L30.2595 29.1348C30.1656 29.135 30.0984 29.1333 30.0557 29.1307L30.0264 29.6299L29.997 30.129C30.0682 30.1332 30.1578 30.135 30.262 30.1348L30.2607 29.6348ZM30.0264 29.6299L30.0559 29.1308C30.0431 29.13 30.0337 29.1294 30.0247 29.1286C30.0156 29.1279 30.0107 29.1272 30.0088 29.1269L29.9326 29.6211L29.8564 30.1152C29.916 30.1245 29.9729 30.1276 29.9968 30.129L30.0264 29.6299ZM29.9326 29.6211L30.009 29.127C30.0117 29.1274 30.0107 29.1273 30.0075 29.1266C30.0058 29.1262 30.0039 29.1257 30.0021 29.1252C30.0003 29.1247 29.9991 29.1243 29.9987 29.1241L29.8271 29.5938L29.6556 30.0634C29.7513 30.0983 29.8331 30.1116 29.8562 30.1152L29.9326 29.6211ZM29.8271 29.5938L29.9974 29.1236L29.997 29.1232L29.6338 29.4668L29.2705 29.8104C29.3569 29.9017 29.4472 29.9622 29.5175 30.0008C29.5531 30.0204 29.5849 30.0351 29.6105 30.0459C29.6365 30.0568 29.6576 30.0641 29.6569 30.0639L29.8271 29.5938ZM29.6338 29.4668L29.9973 29.1235C29.9981 29.1243 29.9979 29.1242 29.9974 29.1235C29.9969 29.1228 29.9965 29.1222 29.9964 29.1219C29.9963 29.1217 29.9964 29.1219 29.9966 29.1226C29.9968 29.1234 29.9967 29.1236 29.9967 29.1225L29.4971 29.1416L28.9974 29.1607C29.0098 29.4838 29.1695 29.7034 29.2703 29.8101L29.6338 29.4668ZM29.4971 29.1416L29.9967 29.123L29.9969 29.1221L29.623 28.79L29.2492 28.458C29.1349 28.5867 28.985 28.828 28.9974 29.1602L29.4971 29.1416ZM29.623 28.79L29.9964 29.1226C29.9955 29.1236 29.9953 29.1237 29.996 29.1231C29.9969 29.1225 29.9979 29.1218 29.9989 29.1212C29.9999 29.1207 29.9998 29.1208 29.9979 29.1216C29.9969 29.122 29.9955 29.1226 29.9937 29.1232C29.9928 29.1235 29.9921 29.1237 29.9919 29.1238C29.9918 29.1238 29.9919 29.1238 29.992 29.1238C29.992 29.1238 29.9921 29.1238 29.9922 29.1237C29.9923 29.1237 29.9925 29.1236 29.9927 29.1236C29.993 29.1234 29.9938 29.1232 29.9947 29.1229C29.9955 29.1226 29.9973 29.122 29.9995 29.1212L29.834 28.6494L29.6685 28.1776C29.6763 28.1749 29.6502 28.1835 29.6229 28.1946C29.5951 28.2058 29.5601 28.2216 29.5208 28.2429C29.4435 28.285 29.343 28.3527 29.2497 28.4575L29.623 28.79ZM29.834 28.6494L29.9986 29.1215C29.9985 29.1216 29.9992 29.1213 30.0006 29.121C30.0017 29.1207 30.0025 29.1205 30.0034 29.1204L29.9062 28.6299L29.8091 28.1394C29.7853 28.1441 29.7325 28.1553 29.6694 28.1773L29.834 28.6494ZM29.9062 28.6299L30.0027 29.1205C30.0077 29.1195 30.0125 29.1187 30.0163 29.1182C30.0181 29.1179 30.0193 29.1177 30.0197 29.1177C30.0203 29.1176 30.0191 29.1178 30.0164 29.118L29.9707 28.6201L29.925 28.1222C29.8937 28.1251 29.8525 28.1309 29.8098 28.1393L29.9062 28.6299ZM29.9707 28.6201L30.0159 29.1181C30.0253 29.1172 30.0403 29.1166 30.0644 29.1161L30.0557 28.6162L30.0469 28.1163C30.0183 28.1168 29.973 28.1178 29.9255 28.1222L29.9707 28.6201ZM30.0557 28.6162L30.0642 29.1161C30.105 29.1154 30.1649 29.1165 30.2396 29.1204L30.2656 28.6211L30.2916 28.1218C30.2016 28.1171 30.1175 28.1151 30.0471 28.1163L30.0557 28.6162ZM30.2656 28.6211L30.2396 29.1204C30.3002 29.1236 30.373 29.129 30.4554 29.1372L30.5049 28.6396L30.5544 28.1421C30.4579 28.1325 30.3694 28.1258 30.2917 28.1218L30.2656 28.6211ZM30.5049 28.6396L30.4934 29.1395C30.6207 29.1424 30.7435 29.1448 30.8651 29.1491L30.8828 28.6494L30.9005 28.1497C30.7707 28.1451 30.6384 28.1426 30.5164 28.1398L30.5049 28.6396ZM30.8828 28.6494L30.8651 29.1491C31.076 29.1566 31.3001 29.1651 31.5266 29.165L31.5264 28.665L31.5262 28.165C31.3213 28.1651 31.117 28.1574 30.9005 28.1497L30.8828 28.6494ZM31.5264 28.665L31.5266 29.165C31.9784 29.1648 32.4456 29.1335 32.8807 29.009L32.7432 28.5283L32.6056 28.0476C32.3016 28.1346 31.9418 28.1649 31.5261 28.165L31.5264 28.665ZM32.7432 28.5283L32.8809 29.009C33.316 28.8843 33.7204 28.6657 34.0472 28.2921L33.6709 27.9629L33.2946 27.6337C33.119 27.8344 32.8952 27.9646 32.6055 28.0477L32.7432 28.5283ZM33.6709 27.9629L34.0474 28.2919C34.3743 27.9179 34.624 27.3875 34.7517 26.6398L34.2588 26.5557L33.7659 26.4715C33.6615 27.083 33.473 27.4295 33.2944 27.6339L33.6709 27.9629ZM34.2588 26.5557L34.7517 26.6397C34.8794 25.891 34.7976 25.3391 34.585 24.9311L34.1416 25.1621L33.6982 25.3931C33.782 25.5541 33.8685 25.8701 33.7659 26.4716L34.2588 26.5557ZM34.1416 25.1621L34.585 24.931C34.3726 24.5236 34.0294 24.2584 33.6337 24.0816L33.4297 24.5381L33.2257 24.9946C33.4759 25.1064 33.6169 25.2373 33.6982 25.3932L34.1416 25.1621ZM33.4297 24.5381L33.6336 24.0815C33.2375 23.9047 32.7883 23.8165 32.3669 23.7619L32.3027 24.2578L32.2386 24.7537C32.6262 24.8038 32.9621 24.8769 33.2258 24.9946L33.4297 24.5381ZM32.3027 24.2578L32.3669 23.7619C32.1563 23.7347 31.9518 23.7156 31.7634 23.6984L31.7178 24.1963L31.6722 24.6942C31.8612 24.7115 32.0487 24.7291 32.2386 24.7537L32.3027 24.2578ZM31.7178 24.1963L31.7634 23.6984C31.576 23.6812 31.4037 23.6654 31.2581 23.6447L31.1875 24.1396L31.1169 24.6346C31.2926 24.6597 31.4923 24.6777 31.6722 24.6942L31.7178 24.1963ZM31.1875 24.1396L31.2582 23.6447C31.1874 23.6346 31.1337 23.625 31.0992 23.6169L30.9844 24.1035L30.8695 24.5902C30.9475 24.6086 31.0358 24.6231 31.1168 24.6346L31.1875 24.1396ZM30.9844 24.1035L31.0995 23.617C31.094 23.6157 31.0874 23.614 31.0802 23.6118C31.0725 23.6094 31.0666 23.6072 31.0629 23.6056L30.8643 24.0645L30.6656 24.5233C30.7544 24.5617 30.8341 24.5818 30.8692 24.5901L30.9844 24.1035ZM30.8643 24.0645L31.0633 23.6058C31.0614 23.6049 31.061 23.6048 31.0607 23.6046C31.0602 23.6044 31.0594 23.604 31.0584 23.6034C31.0574 23.6028 31.0564 23.6022 31.0555 23.6015C31.0546 23.6009 31.0542 23.6006 31.0542 23.6006L30.7246 23.9766L30.395 24.3525C30.5124 24.4554 30.6268 24.5065 30.6652 24.5231L30.8643 24.0645ZM30.7246 23.9766L31.0548 23.6011C31.0583 23.6041 31.0576 23.6039 31.0554 23.6012C31.0532 23.5986 31.0517 23.5961 31.051 23.5948C31.0505 23.5939 31.0514 23.5954 31.0519 23.5986C31.0521 23.6001 31.0522 23.6011 31.0522 23.6015C31.0522 23.6018 31.0521 23.6004 31.0528 23.5969L30.5625 23.499L30.0722 23.4012C29.966 23.9333 30.2999 24.2689 30.3944 24.352L30.7246 23.9766ZM30.5625 23.499L31.0527 23.5973C31.0533 23.5945 31.0536 23.5946 31.053 23.5957C31.0527 23.5962 31.0527 23.5959 31.0538 23.5949C31.0549 23.5936 31.0562 23.5926 31.0568 23.5922C31.057 23.592 31.0568 23.5922 31.0562 23.5925C31.0555 23.593 31.0547 23.5934 31.056 23.5927L30.8086 23.1582L30.5612 22.7237C30.4997 22.7587 30.1619 22.9536 30.0723 23.4007L30.5625 23.499ZM30.8086 23.1582L31.0555 23.593C31.056 23.5927 31.0577 23.5919 31.0602 23.5909C31.0623 23.5901 31.0638 23.5896 31.0659 23.5891L30.9316 23.1074L30.7974 22.6258C30.7602 22.6361 30.6668 22.6637 30.5617 22.7234L30.8086 23.1582ZM30.9316 23.1074L31.0655 23.5892C31.07 23.5879 31.0763 23.5865 31.0839 23.5851C31.0911 23.5838 31.0975 23.583 31.1019 23.5825L31.043 23.0859L30.984 22.5894C30.9487 22.5936 30.878 22.6034 30.7978 22.6257L30.9316 23.1074ZM31.043 23.0859L31.1017 23.5825C31.1334 23.5787 31.1797 23.5758 31.235 23.5739L31.2178 23.0742L31.2005 22.5745C31.1362 22.5767 31.0573 22.5808 30.9843 22.5894L31.043 23.0859ZM31.2178 23.0742L31.2349 23.5739C31.4612 23.5662 31.8718 23.5715 32.3185 23.5819L32.3301 23.082L32.3417 22.5822C31.8998 22.5719 31.4605 22.5656 31.2006 22.5745L31.2178 23.0742ZM32.3301 23.082L32.3185 23.5819C32.7655 23.5923 33.2497 23.6078 33.6212 23.6208L33.6387 23.1211L33.6561 22.6214C33.2827 22.6083 32.7943 22.5927 32.3417 22.5822L32.3301 23.082ZM33.6387 23.1211L33.6212 23.6208C33.8069 23.6273 33.9655 23.6331 34.0768 23.6373L34.0957 23.1377L34.1146 22.6381C34.0024 22.6338 33.8429 22.6279 33.6561 22.6214L33.6387 23.1211ZM34.0957 23.1377L34.0768 23.6373C34.1186 23.6389 34.1525 23.6402 34.1799 23.6412L34.1992 23.1416L34.2186 22.642C34.1909 22.6409 34.1546 22.6396 34.1146 22.6381L34.0957 23.1377ZM34.1992 23.1416L34.321 23.6265C34.3767 23.6126 34.4338 23.6005 34.4813 23.5912L34.3848 23.1006L34.2882 22.61C34.2318 22.6211 34.1562 22.6369 34.0774 22.6567L34.1992 23.1416ZM34.3848 23.1006L34.4813 23.5912C34.5729 23.5731 34.6687 23.5537 34.7687 23.5267L34.6387 23.0439L34.5086 22.5612C34.4445 22.5784 34.378 22.5923 34.2882 22.61L34.3848 23.1006ZM34.6387 23.0439L34.7689 23.5267C34.9706 23.4723 35.1913 23.3842 35.3797 23.207L35.0371 22.8428L34.6946 22.4785C34.6736 22.4982 34.6292 22.5286 34.5084 22.5612L34.6387 23.0439ZM35.0371 22.8428L35.3803 23.2064C35.7548 22.853 36.0064 22.1462 35.7507 20.6492L35.2578 20.7334L34.7649 20.8176C35.0022 22.2068 34.6975 22.4758 34.694 22.4791L35.0371 22.8428ZM35.2578 20.7334L35.7507 20.6492C35.6586 20.1106 35.2693 19.7163 34.7758 19.4278L34.5234 19.8594L34.271 20.291C34.6413 20.5075 34.7437 20.6932 34.765 20.8176L35.2578 20.7334ZM34.5234 19.8594L34.7758 19.4277C34.283 19.1396 33.686 18.9571 33.1786 18.8424L33.0684 19.3301L32.9581 19.8178C33.4236 19.923 33.9065 20.0779 34.2711 20.291L34.5234 19.8594ZM33.0684 19.3301L33.1786 18.8424C32.6722 18.7279 32.2546 18.6806 32.119 18.6619L32.0508 19.1572L31.9826 19.6526C32.1364 19.6737 32.5035 19.715 32.9581 19.8178L33.0684 19.3301ZM32.0508 19.1572L32.1191 18.6619C32.1148 18.6613 32.1079 18.6603 32.1003 18.6591C32.0925 18.6578 32.086 18.6567 32.0815 18.6558L31.9854 19.1465L31.8892 19.6371C31.9256 19.6443 31.9623 19.6498 31.9825 19.6525L32.0508 19.1572ZM31.9854 19.1465L32.0819 18.6559C32.0779 18.6551 32.0769 18.6549 32.0758 18.6547C32.0748 18.6545 32.0751 18.6545 32.0763 18.6548L31.9541 19.1396L31.8319 19.6245C31.8591 19.6313 31.8825 19.6358 31.8888 19.6371L31.9854 19.1465ZM31.9541 19.1396L32.0768 18.6549C32.0808 18.6559 32.0812 18.6561 32.0794 18.6556C32.0776 18.655 32.0754 18.6542 32.0737 18.6535L31.8818 19.1152L31.6899 19.5769C31.7537 19.6034 31.8074 19.6183 31.8314 19.6244L31.9541 19.1396ZM31.8818 19.1152L32.0742 18.6537C32.073 18.6532 32.073 18.6532 32.0726 18.653C32.0718 18.6526 32.0717 18.6525 32.0724 18.653L31.7842 19.0615L31.4959 19.4701C31.582 19.5308 31.6591 19.5641 31.6895 19.5768L31.8818 19.1152ZM31.7842 19.0615L32.0728 18.6532L32.0724 18.653L31.5879 18.7764L31.1033 18.8997C31.1937 19.2548 31.4416 19.4317 31.4956 19.4698L31.7842 19.0615ZM31.5879 18.7764L32.0725 18.6533C32.0718 18.6505 32.0718 18.6495 32.0718 18.6499C32.0718 18.6504 32.0719 18.6514 32.0717 18.6529C32.0715 18.6561 32.0707 18.6578 32.0709 18.6574C32.0712 18.6567 32.0723 18.6545 32.0743 18.6518C32.0751 18.6506 32.0758 18.6499 32.076 18.6496C32.0763 18.6494 32.0754 18.6503 32.0731 18.6524L31.7402 18.2793L31.4074 17.9062C31.244 18.0519 30.9789 18.4095 31.1033 18.8994L31.5879 18.7764ZM31.7402 18.2793L32.0724 18.653C32.0715 18.6538 32.0716 18.6536 32.0726 18.6531C32.0728 18.653 32.0727 18.653 32.0723 18.6532C32.072 18.6533 32.0718 18.6534 32.0716 18.6534C32.0716 18.6535 32.0717 18.6534 32.0737 18.6527L31.9033 18.1826L31.7329 17.7126C31.6931 17.727 31.5504 17.7791 31.4081 17.9056L31.7402 18.2793ZM31.9033 18.1826L32.0731 18.6529C32.0723 18.6532 32.0722 18.6532 32.0727 18.653C32.0733 18.6529 32.0739 18.6528 32.0744 18.6527C32.0749 18.6526 32.075 18.6525 32.0745 18.6526C32.0743 18.6527 32.0741 18.6527 32.0739 18.6527C32.0739 18.6527 32.0739 18.6527 32.0742 18.6527C32.0743 18.6527 32.0745 18.6526 32.0749 18.6526C32.0752 18.6525 32.0759 18.6524 32.0767 18.6523L32.0068 18.1572L31.937 17.6621C31.9371 17.6621 31.9267 17.6635 31.9143 17.6655C31.9017 17.6676 31.8861 17.6704 31.8681 17.6742C31.8329 17.6816 31.7859 17.6934 31.7335 17.7123L31.9033 18.1826ZM32.0068 18.1572L32.0764 18.6524C32.0811 18.6517 32.0857 18.651 32.089 18.6506C32.0926 18.6501 32.0949 18.6497 32.0966 18.6495C32.0983 18.6493 32.098 18.6493 32.0964 18.6495C32.0955 18.6496 32.0938 18.6498 32.0915 18.65C32.0892 18.6503 32.0856 18.6506 32.0809 18.651L32.0439 18.1523L32.007 17.6537C31.9946 17.6546 31.9841 17.6558 31.9779 17.6566C31.9712 17.6574 31.965 17.6582 31.9604 17.6588C31.9558 17.6595 31.9511 17.6601 31.9475 17.6606C31.9436 17.6612 31.9405 17.6616 31.9372 17.6621L32.0068 18.1572ZM32.0439 18.1523L32.0799 18.6511C32.073 18.6515 32.0692 18.6515 32.0717 18.6515C32.0732 18.6515 32.0741 18.6515 32.0784 18.6515C32.0801 18.6514 32.0826 18.6514 32.0854 18.6514C32.0882 18.6514 32.092 18.6513 32.0963 18.6512L32.084 18.1514L32.0717 17.6515C32.0749 17.6514 32.0767 17.6514 32.0735 17.6515C32.0718 17.6515 32.0663 17.6515 32.0609 17.6516C32.0496 17.6517 32.0305 17.652 32.008 17.6536L32.0439 18.1523ZM32.084 18.1514L32.0962 18.6512C32.1156 18.6507 32.1347 18.6504 32.1524 18.6504L32.1533 18.1504L32.1543 17.6504C32.1226 17.6503 32.0924 17.651 32.0717 17.6515L32.084 18.1514ZM32.1533 18.1504L32.1523 18.6504C32.2474 18.6506 32.4464 18.6533 32.7559 18.6533V18.1533V17.6533C32.4283 17.6533 32.2843 17.6506 32.1543 17.6504L32.1533 18.1504ZM32.7559 18.1533L32.7559 18.6533C34.0034 18.6531 34.8804 18.2778 35.4447 17.7155L35.0918 17.3613L34.7389 17.0072C34.3997 17.3451 33.7972 17.6532 32.7558 17.6533L32.7559 18.1533ZM35.0918 17.3613L35.4448 17.7154C36.0087 17.1532 36.2617 16.4031 36.2617 15.6543H35.7617H35.2617C35.2617 16.1814 35.0854 16.6616 34.7388 17.0073L35.0918 17.3613ZM35.7617 15.6543L36.2617 15.6542C36.2616 14.906 35.8421 14.2832 35.3191 13.8474L34.999 14.2314L34.6789 14.6155C35.0615 14.9344 35.2617 15.3005 35.2617 15.6544L35.7617 15.6543ZM34.999 14.2314L35.3191 13.8473C35.0472 13.6207 34.7593 13.4537 34.4965 13.342C34.2434 13.2344 33.9786 13.1633 33.7544 13.1631L33.7539 13.6631L33.7534 14.1631C33.7924 14.1631 33.9177 14.1826 34.1053 14.2623C34.283 14.3378 34.4861 14.4548 34.6789 14.6156L34.999 14.2314ZM33.7539 13.6631V13.1631H19.8652V13.6631V14.1631H33.7539V13.6631ZM19.8652 13.6631L19.487 13.336C19.4659 13.3605 19.4371 13.3955 19.4043 13.4426L19.8145 13.7285L20.2246 14.0144C20.229 14.0081 20.2327 14.0033 20.2355 13.9997C20.2383 13.9962 20.2408 13.9932 20.2434 13.9901L19.8652 13.6631ZM19.8145 13.7285L19.404 13.443C19.2794 13.6221 19.1539 13.88 19.0289 14.1922L19.4932 14.3779L19.9574 14.5636C20.073 14.2747 20.1653 14.0998 20.2249 14.014L19.8145 13.7285ZM19.4932 14.3779L19.0289 14.1922C18.7794 14.8161 18.5303 15.6589 18.281 16.5316L18.7617 16.6689L19.2425 16.8063C19.4943 15.9248 19.7301 15.132 19.9574 14.5636L19.4932 14.3779ZM18.7617 16.6689L18.281 16.5316C18.0315 17.4045 17.7811 18.31 17.5315 19.0587L18.0059 19.2168L18.4802 19.3749C18.7387 18.5996 18.9975 17.6639 19.2425 16.8063L18.7617 16.6689ZM18.0059 19.2168L17.5315 19.0587C17.4067 19.4331 17.2822 19.7685 17.1576 20.0411L17.6123 20.249L18.067 20.4569C18.2131 20.1374 18.3506 19.7636 18.4802 19.3749L18.0059 19.2168ZM17.6123 20.249L17.1576 20.0411C17.0331 20.3133 16.9081 20.5245 16.7831 20.6494L17.1367 21.0029L17.4903 21.3564C17.7467 21.1 17.9317 20.7529 18.067 20.4569L17.6123 20.249ZM17.1367 21.0029L16.7833 20.6493C16.2843 21.148 15.7877 21.5219 15.1655 21.6465L15.2637 22.1367L15.3618 22.627C16.2759 22.4439 16.9456 21.9009 17.4902 21.3566L17.1367 21.0029ZM15.2637 22.1367L15.1656 21.6464C14.5436 21.7708 13.7946 21.6458 12.7902 21.1486L12.5684 21.5967L12.3465 22.0448C13.458 22.595 14.4409 22.8112 15.3617 22.627L15.2637 22.1367ZM12.5684 21.5967L12.7902 21.1486C11.8783 20.6972 11.5034 19.9074 11.4194 19.0629L10.9219 19.1123L10.4243 19.1618C10.5327 20.2524 11.0475 21.4017 12.3465 22.0448L12.5684 21.5967ZM10.9219 19.1123L11.4194 19.0629C11.3356 18.219 11.5419 17.3214 11.7914 16.656L11.3232 16.4805L10.8551 16.3049C10.5746 17.053 10.32 18.1117 10.4243 19.1617L10.9219 19.1123ZM11.3232 16.4805L11.7976 16.6385L13.6013 11.2254L13.127 11.0674L12.6526 10.9093L10.8489 16.3224L11.3232 16.4805ZM24.6553 1.50879L24.2321 1.24247C23.8135 1.90754 23.1603 2.87182 22.5109 3.67867L22.9004 3.99219L23.2899 4.3057C23.9714 3.45906 24.6471 2.46042 25.0784 1.77511L24.6553 1.50879ZM22.9004 3.99219L22.5109 3.67865C22.176 4.09463 21.842 4.46968 21.5422 4.73994L21.877 5.11133L22.2117 5.48272C22.569 5.16066 22.9414 4.73863 23.2899 4.30572L22.9004 3.99219ZM21.877 5.11133L21.5422 4.7399C21.3926 4.87471 21.2507 4.98411 21.1216 5.05961L21.374 5.49121L21.6264 5.92282C21.8354 5.80059 22.0336 5.64327 22.2117 5.48275L21.877 5.11133ZM21.374 5.49121L21.1217 5.05952C20.993 5.13477 20.8759 5.17669 20.776 5.17676L20.7764 5.67676L20.7767 6.17676C21.1337 6.1765 21.433 6.03583 21.6263 5.9229L21.374 5.49121ZM20.7764 5.67676V5.17676C20.2788 5.17676 19.0292 5.05194 17.6565 5.67564L17.8633 6.13086L18.0701 6.58608C19.2007 6.0724 20.1931 6.17676 20.7764 6.17676V5.67676ZM17.8633 6.13086L17.6564 5.67567C16.284 6.29944 14.7866 7.6718 13.7884 10.6661L14.2627 10.8242L14.737 10.9824C15.6627 8.20566 16.9921 7.07604 18.0702 6.58605L17.8633 6.13086ZM14.2627 10.8242L13.7884 10.6661L11.7913 16.6563L12.2656 16.8145L12.74 16.9726L14.737 10.9824L14.2627 10.8242ZM12.2656 16.8145L11.7913 16.6563L11.7854 16.6739L12.2598 16.832L12.7341 16.9901L12.74 16.9726L12.2656 16.8145ZM12.2598 16.832L11.7916 16.6565C11.5421 17.3221 11.3356 18.2195 11.4194 19.0631L11.917 19.0137L12.4145 18.9642C12.3512 18.3269 12.5094 17.5906 12.728 17.0075L12.2598 16.832ZM11.917 19.0137L11.4194 19.0632C11.5035 19.9079 11.8784 20.698 12.7899 21.1493L13.0117 20.7012L13.2336 20.2531C12.7067 19.9922 12.4737 19.5594 12.4145 18.9642L11.917 19.0137ZM13.0117 20.7012L12.7899 21.1493C13.7945 21.6466 14.5435 21.7699 15.1654 21.6456L15.0674 21.1553L14.9693 20.665C14.6447 20.7299 14.1291 20.6964 13.2335 20.2531L13.0117 20.7012ZM15.0674 21.1553L15.1656 21.6455C15.7873 21.521 16.2839 21.1485 16.7831 20.6496L16.4297 20.2959L16.0762 19.9422C15.6234 20.3948 15.2996 20.5988 14.9691 20.665L15.0674 21.1553ZM16.4297 20.2959L16.7837 20.649C16.9082 20.5242 17.0334 20.3131 17.1578 20.0409L16.7031 19.833L16.2484 19.6251C16.1949 19.7421 16.1502 19.825 16.1166 19.8803C16.08 19.9404 16.0653 19.9532 16.0757 19.9428L16.4297 20.2959ZM16.7031 19.833L17.1579 20.0409C17.2826 19.768 17.4073 19.4324 17.532 19.0585L17.0576 18.9004L16.5833 18.7423C16.4635 19.1015 16.3518 19.399 16.2484 19.6252L16.7031 19.833ZM17.0576 18.9004L17.532 19.0585C17.7815 18.31 18.0311 17.4051 18.2806 16.5319L17.7998 16.3945L17.319 16.2572C17.0649 17.1468 16.8239 18.0206 16.5833 18.7423L17.0576 18.9004ZM17.7998 16.3945L18.2806 16.5319C18.53 15.659 18.7801 14.8165 19.0297 14.1925L18.5654 14.0068L18.1012 13.8212C17.8296 14.5002 17.5664 15.3915 17.319 16.2572L17.7998 16.3945ZM18.5654 14.0068L19.0297 14.1926C19.1545 13.8805 19.2791 13.6228 19.4037 13.4437L18.9932 13.1582L18.5827 12.8727C18.3926 13.146 18.2347 13.4874 18.1012 13.8211L18.5654 14.0068ZM18.9932 13.1582L19.4036 13.4438C19.4571 13.3668 19.5201 13.2906 19.5915 13.2358C19.6584 13.1844 19.7174 13.1631 19.7783 13.1631V12.6631V12.1631C19.111 12.1631 18.7226 12.6716 18.5828 12.8726L18.9932 13.1582ZM19.7783 12.6631V13.1631H33.5566V12.6631V12.1631H19.7783V12.6631ZM33.5566 12.6631L33.8979 13.0285C33.9198 13.0081 33.9542 12.9763 33.9864 12.946L33.6436 12.582L33.3008 12.218C33.2695 12.2475 33.2447 12.2703 33.2154 12.2977L33.5566 12.6631ZM33.6436 12.582L33.9864 12.946C34.133 12.8079 34.3414 12.6092 34.5863 12.3678L34.2354 12.0117L33.8844 11.6556C33.646 11.8906 33.4432 12.0839 33.3007 12.2181L33.6436 12.582ZM34.2354 12.0117L34.5863 12.3678C35.0766 11.8847 35.7155 11.2293 36.3073 10.5434L35.9287 10.2168L35.5501 9.89017C34.9825 10.5481 34.3642 11.1827 33.8844 11.6556L34.2354 12.0117ZM35.9287 10.2168L36.3073 10.5434C36.8991 9.85743 37.4442 9.13978 37.7488 8.53153L37.3018 8.30762L36.8547 8.08371C36.6077 8.57684 36.1301 9.21794 35.5501 9.89019L35.9287 10.2168ZM37.3018 8.30762L37.7488 8.53148C37.9005 8.22868 37.994 7.95078 38.0017 7.71774L37.502 7.70117L37.0022 7.68461C37.0022 7.68433 37.0019 7.69346 36.9979 7.71356C36.9941 7.73326 36.9873 7.76049 36.9761 7.79575C36.9536 7.86676 36.9155 7.96234 36.8547 8.08376L37.3018 8.30762ZM37.502 7.70117L38.0017 7.71725C38.0041 7.64348 38.0017 7.51943 37.9414 7.39432C37.9065 7.32187 37.8587 7.26229 37.8042 7.21561C37.7702 7.18643 37.7054 7.14495 37.7448 7.17131L37.4668 7.58691L37.1888 8.00252C37.1956 8.00702 37.2014 8.0107 37.2021 8.01113C37.2042 8.01248 37.2014 8.0107 37.1983 8.00867C37.1908 8.00378 37.1737 7.99223 37.1535 7.97494C37.1075 7.9355 37.0682 7.88575 37.0406 7.82857C36.995 7.73399 37.0029 7.66222 37.0022 7.68509L37.502 7.70117ZM37.4668 7.58691L37.7465 7.17248C37.0035 6.67097 33.8424 4.8409 30.7635 3.30271L30.54 3.75L30.3166 4.19729C33.379 5.72721 36.4961 7.53499 37.1871 8.00135L37.4668 7.58691ZM30.54 3.75L30.7635 3.30271C29.2239 2.53359 27.704 1.83727 26.5177 1.41647L26.3506 1.8877L26.1834 2.35893C27.311 2.7589 28.7873 3.43328 30.3166 4.19729L30.54 3.75ZM26.3506 1.8877L26.5177 1.41646C25.925 1.20625 25.415 1.0648 25.0275 1.01737L24.9668 1.51367L24.9061 2.00997C25.1839 2.04397 25.6121 2.1563 26.1835 2.35893L26.3506 1.8877ZM24.9668 1.51367L25.0274 1.01736C24.8401 0.99448 24.6887 0.995907 24.5714 1.01588L24.6553 1.50879L24.7392 2.0017C24.7321 2.0029 24.7808 1.99467 24.9062 2.00998L24.9668 1.51367Z" fill="#4076FF"/>
</svg>
