<svg width="44" height="45" viewBox="0 0 44 45" fill="none" xmlns="http://www.w3.org/2000/svg">
<path d="M22 0C23.6569 0 25 1.34315 25 3V6.20898C25.1168 6.1819 25.2718 6.14679 25.458 6.10742C25.8882 6.01648 26.4891 5.90066 27.1719 5.80176C28.5034 5.6089 30.2767 5.45955 31.7051 5.75879C33.532 6.14154 35.4343 7.3913 36.8027 8.44531C37.5052 8.98638 38.1032 9.50474 38.5254 9.8877C38.7366 10.0793 38.9049 10.2378 39.0215 10.3496C39.0798 10.4055 39.1258 10.4496 39.1572 10.4805L39.208 10.5312C39.5977 10.9224 39.5969 11.5555 39.2061 11.9453C38.8149 12.335 38.1818 12.3343 37.792 11.9434L37.7559 11.9072C37.7483 11.8998 37.7394 11.8914 37.7295 11.8818L43.1143 24.5H44C44 25.0269 43.9256 25.5504 43.7803 26.0596L43.8613 26.25H43.7207C43.64 26.4999 43.5438 26.7465 43.4287 26.9873C43.0518 27.7759 42.5001 28.4931 41.8037 29.0967L41.5361 29.3164C40.8989 29.8169 40.1663 30.219 39.3701 30.5049C38.4602 30.8315 37.4849 31 36.5 31L36.1309 30.9922C35.3946 30.9607 34.6677 30.8353 33.9736 30.6201L33.6299 30.5049C32.8337 30.219 32.1011 29.8169 31.4639 29.3164L31.1963 29.0967C30.5868 28.5685 30.0885 27.9531 29.7207 27.2793L29.5713 26.9873C29.4562 26.7465 29.36 26.4999 29.2793 26.25H29.1387L29.2188 26.0596C29.0735 25.5505 29 25.0268 29 24.5H29.8857L35.9395 10.3105C35.8241 10.2182 35.7055 10.1237 35.583 10.0293C34.2466 8.99992 32.6487 7.99944 31.2949 7.71582C30.2315 7.49306 28.7545 7.59361 27.459 7.78125C26.8284 7.87259 26.2712 7.98009 25.8721 8.06445C25.673 8.10654 25.5141 8.14259 25.4062 8.16797C25.3524 8.18064 25.3111 8.19065 25.2842 8.19727C25.2711 8.20049 25.2611 8.20254 25.2549 8.2041C25.2519 8.20485 25.2493 8.20574 25.248 8.20605C25.1651 8.22721 25.0819 8.23633 25 8.23633V39H31C33.2091 39 35 40.7909 35 43V45H9V43C9 40.7909 10.7909 39 13 39H19V5.77539C18.9037 5.74483 18.7728 5.70371 18.6123 5.6543C18.2439 5.54085 17.7206 5.38398 17.1055 5.21191C15.8697 4.86625 14.2843 4.46497 12.8359 4.22363C11.3703 3.97943 9.50355 3.97052 7.94043 4.03223L14.1143 18.5H15C15 19.0269 14.9256 19.5504 14.7803 20.0596L14.8613 20.25H14.7207C14.64 20.4999 14.5438 20.7465 14.4287 20.9873C14.0518 21.7759 13.5001 22.4931 12.8037 23.0967L12.5361 23.3164C11.8989 23.8169 11.1663 24.219 10.3701 24.5049C9.46018 24.8315 8.48491 25 7.5 25L7.13086 24.9922C6.39461 24.9607 5.6677 24.8353 4.97363 24.6201L4.62988 24.5049C3.83367 24.219 3.10112 23.8169 2.46387 23.3164L2.19629 23.0967C1.58684 22.5685 1.08848 21.9531 0.720703 21.2793L0.571289 20.9873C0.45622 20.7465 0.360003 20.4999 0.279297 20.25H0.138672L0.21875 20.0596C0.073465 19.5505 0 19.0268 0 18.5H0.885742L7.03906 4.0791C6.59042 4.10569 6.19621 4.133 5.88281 4.15918C5.63851 4.17959 5.4434 4.19782 5.31055 4.21094C5.24414 4.21749 5.19301 4.22202 5.15918 4.22559C5.1426 4.22733 5.13023 4.22958 5.12207 4.23047C5.11798 4.23091 5.11414 4.23124 5.1123 4.23145H5.11035C4.56176 4.29235 4.06721 3.89717 4.00586 3.34863C3.94471 2.79974 4.34076 2.30431 4.88965 2.24316H4.89453C4.89731 2.24286 4.90135 2.24272 4.90625 2.24219C4.91641 2.24109 4.93131 2.23929 4.9502 2.2373C4.98815 2.23331 5.0435 2.22769 5.11426 2.2207C5.25608 2.2067 5.46076 2.18732 5.71582 2.16602C6.22586 2.12341 6.93955 2.07217 7.75586 2.03809C9.37122 1.97065 11.4558 1.96638 13.1641 2.25098C14.7156 2.50949 16.3804 2.93255 17.6445 3.28613C18.1752 3.43456 18.6391 3.57281 19 3.68262V3C19 1.34315 20.3431 0 22 0ZM13 41C11.8954 41 11 41.8954 11 43H33C33 41.8954 32.1046 41 31 41H13ZM22 2C21.4477 2 21 2.44772 21 3V39H23V3C23 2.44772 22.5523 2 22 2ZM31.5791 26.5C31.8166 26.8885 32.1269 27.2557 32.5068 27.585C33.0075 28.0188 33.6167 28.3757 34.3057 28.623C34.9947 28.8704 35.7411 29 36.5 29C37.2589 29 38.0053 28.8704 38.6943 28.623C39.3833 28.3757 39.9925 28.0188 40.4932 27.585C40.8731 27.2557 41.1834 26.8885 41.4209 26.5H31.5791ZM32.167 24.25H40.833L36.5 14.0957L32.167 24.25ZM2.5791 20.5C2.81662 20.8885 3.12691 21.2557 3.50684 21.585C4.00752 22.0188 4.61674 22.3757 5.30566 22.623C5.99468 22.8704 6.74107 23 7.5 23C8.25893 23 9.00532 22.8704 9.69434 22.623C10.3833 22.3757 10.9925 22.0188 11.4932 21.585C11.8731 21.2557 12.1834 20.8885 12.4209 20.5H2.5791ZM3.16699 18.25H11.833L7.5 8.0957L3.16699 18.25Z" fill="black"/>
</svg>
