<svg width="48" height="48" viewBox="0 0 48 48" fill="none" xmlns="http://www.w3.org/2000/svg">
<path d="M44.7061 41.9678L44.8623 41.9707V41.9717C46.3333 42.0459 47.4998 43.2559 47.5 44.7334V47.5H23.3428V44.7334C23.343 43.256 24.5097 42.0461 25.9805 41.9717L25.9795 41.9707L26.1367 41.9678H44.7061ZM26.125 43.1455C25.2471 43.1455 24.5305 43.854 24.5303 44.7334V46.3223H46.3125V44.7334C46.3123 43.854 45.5965 43.1456 44.7188 43.1455H26.125ZM30.791 0.836914C31.9469 0.158096 33.4349 0.539382 34.1191 1.68457L34.2393 1.91016H34.2402C34.6068 2.70173 34.5037 3.61129 34.0195 4.30176L33.835 4.56641L33.999 4.84375L42.4424 19.0869L42.667 19.4639L43.0693 19.291C44.1767 18.8168 45.4892 19.2236 46.1191 20.2783L46.2441 20.5137C46.7519 21.6231 46.3464 22.9603 45.2646 23.5957L34.6807 29.8125L34.4385 29.9395C33.3199 30.4527 31.972 30.0502 31.3311 28.9766L31.21 28.748C30.7753 27.8067 31.0001 26.6995 31.7393 25.9961L32.0283 25.7217L31.8252 25.3789L29.1943 20.9414L28.9287 20.4941L28.4922 20.7773L5.78809 35.4971L5.63672 35.5898C4.04889 36.5076 1.99732 36.0111 1.0166 34.4434C-0.00218151 32.8139 0.533625 30.667 2.2041 29.7031L2.20508 29.7041L25.752 16.1289L26.1895 15.876L25.9316 15.4404L23.4902 11.3203L23.2354 10.8906L22.8057 11.1455L22.665 11.2275L22.4268 11.3506C21.3104 11.8557 19.9696 11.453 19.3311 10.3828L19.207 10.1465C18.7342 9.11262 19.0531 7.88152 19.9727 7.20508L20.1953 7.05859L30.791 0.836914ZM25.1055 17.8633L2.80176 30.7217C1.71131 31.3509 1.35799 32.7556 2.02539 33.8232C2.68703 34.8806 4.08996 35.1894 5.13672 34.5117H5.1377L26.7158 20.5215L27.1221 20.2588L26.8721 19.8447L25.7842 18.0381L25.5303 17.6182L25.1055 17.8633ZM45.1006 20.8809C44.7501 20.2897 43.9867 20.0969 43.3965 20.4434L32.79 26.6729H32.7891C32.1971 27.0215 32.0005 27.7832 32.3506 28.374H32.3516C32.7017 28.9635 33.462 29.1578 34.0527 28.8115H34.0537L44.6602 22.582C45.2507 22.2346 45.4516 21.4736 45.1006 20.8809ZM32.5059 5.62305L24.7686 10.167L24.3359 10.4219L24.5918 10.8535L32.7402 24.5986L32.9941 25.0273L33.4229 24.7744L41.1602 20.2305L41.5928 19.9766L41.3369 19.5439L33.1885 5.79883L32.9346 5.37109L32.5059 5.62305ZM33.1016 2.28711C32.7511 1.69597 31.9867 1.5032 31.3965 1.84961L20.79 8.0791C20.198 8.42773 20.0015 9.18944 20.3516 9.78027V9.78125C20.7017 10.3706 21.463 10.5651 22.0537 10.2188V10.2178L32.6602 3.98926L32.6611 3.98828C33.2512 3.64084 33.4521 2.88058 33.1016 2.28809V2.28711Z" fill="black" stroke="black"/>
</svg>
