<svg width="34" height="42" viewBox="0 0 34 42" fill="none" xmlns="http://www.w3.org/2000/svg">
<mask id="path-1-inside-1_235_202" fill="white">
<path d="M15.9375 20.4615C16.5243 20.4615 17 20.9437 17 21.5385C17 22.1332 16.5243 22.6154 15.9375 22.6154H7.4375C6.8507 22.6154 6.375 22.1332 6.375 21.5385C6.375 20.9437 6.8507 20.4615 7.4375 20.4615H15.9375Z"/>
<path d="M25.5 14C26.0868 14 26.5625 14.4822 26.5625 15.0769C26.5625 15.6717 26.0868 16.1538 25.5 16.1538H7.4375C6.8507 16.1538 6.375 15.6717 6.375 15.0769C6.375 14.4822 6.8507 14 7.4375 14H25.5Z"/>
<path d="M25.5 8.61539C26.0868 8.61539 26.5625 9.09754 26.5625 9.69231C26.5625 10.2871 26.0868 10.7692 25.5 10.7692H7.4375C6.8507 10.7692 6.375 10.2871 6.375 9.69231C6.375 9.09754 6.8507 8.61539 7.4375 8.61539H25.5Z"/>
<path fill-rule="evenodd" clip-rule="evenodd" d="M29.75 0C32.0972 0 34 1.92862 34 4.30769V37.6923C34 40.0714 32.0972 42 29.75 42H4.25C1.97621 42 0.119122 40.1902 0.00518799 37.9142L0 37.6923V4.30769C0 1.92862 1.90279 0 4.25 0H29.75ZM4.25 2.15385C3.14962 2.15385 2.24507 3.00162 2.13641 4.08789L2.125 4.30769V37.6923C2.125 38.8818 3.0764 39.8462 4.25 39.8462H29.75C30.9236 39.8462 31.875 38.8818 31.875 37.6923V4.30769C31.875 3.11816 30.9236 2.15385 29.75 2.15385H4.25Z"/>
<path d="M29.75 30.1538C29.75 33.7225 26.8958 36.6154 23.375 36.6154C19.8542 36.6154 17 33.7225 17 30.1538C17 26.5852 19.8542 23.6923 23.375 23.6923C26.8958 23.6923 29.75 26.5852 29.75 30.1538Z"/>
</mask>
<path d="M34 4.30769H36H34ZM0.00518799 37.9142L-1.99427 37.961C-1.99385 37.9787 -1.9932 37.9965 -1.99231 38.0142L0.00518799 37.9142ZM0 37.6923H-2C-2 37.7079 -1.99982 37.7235 -1.99945 37.7391L0 37.6923ZM4.25 2.15385V0.153846V2.15385ZM2.13641 4.08789L0.146344 3.88883C0.143171 3.92055 0.140758 3.95234 0.139105 3.98418L2.13641 4.08789ZM2.125 4.30769L0.127691 4.20398C0.125897 4.23852 0.125 4.2731 0.125 4.30769H2.125ZM2.125 37.6923H0.125V37.6923H2.125ZM31.875 4.30769H33.875V4.30769H31.875ZM29.75 0V2C30.9673 2 32 3.00768 32 4.30769H34H36C36 0.84956 33.2271 -2 29.75 -2V0ZM34 4.30769H32V37.6923H34H36V4.30769H34ZM34 37.6923H32C32 38.9923 30.9673 40 29.75 40V42V44C33.2271 44 36 41.1504 36 37.6923H34ZM29.75 42V40H4.25V42V44H29.75V42ZM4.25 42V40C3.07056 40 2.06478 39.0547 2.00269 37.8142L0.00518799 37.9142L-1.99231 38.0142C-1.82654 41.3257 0.881858 44 4.25 44V42ZM0.00518799 37.9142L2.00464 37.8675L1.99945 37.6456L0 37.6923L-1.99945 37.7391L-1.99427 37.961L0.00518799 37.9142ZM0 37.6923H2V4.30769H0H-2V37.6923H0ZM0 4.30769H2C2 3.00768 3.0327 2 4.25 2V0V-2C0.772883 -2 -2 0.84956 -2 4.30769H0ZM4.25 0V2H29.75V0V-2H4.25V0ZM4.25 2.15385V0.153846C2.08949 0.153846 0.353979 1.813 0.146344 3.88883L2.13641 4.08789L4.12648 4.28695C4.13074 4.24437 4.14962 4.20917 4.17678 4.18413C4.20176 4.16111 4.22478 4.15385 4.25 4.15385V2.15385ZM2.13641 4.08789L0.139105 3.98418L0.127691 4.20398L2.125 4.30769L4.12231 4.41141L4.13372 4.1916L2.13641 4.08789ZM2.125 4.30769H0.125V37.6923H2.125H4.125V4.30769H2.125ZM2.125 37.6923H0.125C0.125 39.9609 1.94649 41.8462 4.25 41.8462V39.8462V37.8462C4.2063 37.8462 4.125 37.8028 4.125 37.6923H2.125ZM4.25 39.8462V41.8462H29.75V39.8462V37.8462H4.25V39.8462ZM29.75 39.8462V41.8462C32.0535 41.8462 33.875 39.9609 33.875 37.6923H31.875H29.875C29.875 37.8028 29.7937 37.8462 29.75 37.8462V39.8462ZM31.875 37.6923H33.875V4.30769H31.875H29.875V37.6923H31.875ZM31.875 4.30769H33.875C33.875 2.0391 32.0535 0.153846 29.75 0.153846V2.15385V4.15385C29.7937 4.15385 29.875 4.19722 29.875 4.30769H31.875ZM29.75 2.15385V0.153846H4.25V2.15385V4.15385H29.75V2.15385ZM15.9375 20.4615V22.4615C15.3944 22.4615 15 22.0228 15 21.5385H17H19C19 19.8646 17.6542 18.4615 15.9375 18.4615V20.4615ZM17 21.5385H15C15 21.0542 15.3944 20.6154 15.9375 20.6154V22.6154V24.6154C17.6542 24.6154 19 23.2123 19 21.5385H17ZM15.9375 22.6154V20.6154H7.4375V22.6154V24.6154H15.9375V22.6154ZM7.4375 22.6154V20.6154C7.9806 20.6154 8.375 21.0542 8.375 21.5385H6.375H4.375C4.375 23.2123 5.72079 24.6154 7.4375 24.6154V22.6154ZM6.375 21.5385H8.375C8.375 22.0228 7.9806 22.4615 7.4375 22.4615V20.4615V18.4615C5.72079 18.4615 4.375 19.8646 4.375 21.5385H6.375ZM7.4375 20.4615V22.4615H15.9375V20.4615V18.4615H7.4375V20.4615ZM25.5 14V16C24.9569 16 24.5625 15.5612 24.5625 15.0769H26.5625H28.5625C28.5625 13.4031 27.2167 12 25.5 12V14ZM26.5625 15.0769H24.5625C24.5625 14.5926 24.9569 14.1538 25.5 14.1538V16.1538V18.1538C27.2167 18.1538 28.5625 16.7508 28.5625 15.0769H26.5625ZM25.5 16.1538V14.1538H7.4375V16.1538V18.1538H25.5V16.1538ZM7.4375 16.1538V14.1538C7.9806 14.1538 8.375 14.5926 8.375 15.0769H6.375H4.375C4.375 16.7508 5.72079 18.1538 7.4375 18.1538V16.1538ZM6.375 15.0769H8.375C8.375 15.5612 7.9806 16 7.4375 16V14V12C5.72079 12 4.375 13.4031 4.375 15.0769H6.375ZM7.4375 14V16H25.5V14V12H7.4375V14ZM25.5 8.61539V10.6154C24.9569 10.6154 24.5625 10.1766 24.5625 9.69231H26.5625H28.5625C28.5625 8.01848 27.2167 6.61539 25.5 6.61539V8.61539ZM26.5625 9.69231H24.5625C24.5625 9.20802 24.9569 8.76923 25.5 8.76923V10.7692V12.7692C27.2167 12.7692 28.5625 11.3661 28.5625 9.69231H26.5625ZM25.5 10.7692V8.76923H7.4375V10.7692V12.7692H25.5V10.7692ZM7.4375 10.7692V8.76923C7.9806 8.76923 8.375 9.20802 8.375 9.69231H6.375H4.375C4.375 11.3661 5.72079 12.7692 7.4375 12.7692V10.7692ZM6.375 9.69231H8.375C8.375 10.1766 7.9806 10.6154 7.4375 10.6154V8.61539V6.61539C5.72079 6.61539 4.375 8.01848 4.375 9.69231H6.375ZM7.4375 8.61539V10.6154H25.5V8.61539V6.61539H7.4375V8.61539ZM29.75 30.1538H27.75C27.75 32.6434 25.7659 34.6154 23.375 34.6154V36.6154V38.6154C28.0257 38.6154 31.75 34.8015 31.75 30.1538H29.75ZM23.375 36.6154V34.6154C20.9841 34.6154 19 32.6434 19 30.1538H17H15C15 34.8015 18.7243 38.6154 23.375 38.6154V36.6154ZM17 30.1538H19C19 27.6643 20.9841 25.6923 23.375 25.6923V23.6923V21.6923C18.7243 21.6923 15 25.5062 15 30.1538H17ZM23.375 23.6923V25.6923C25.7659 25.6923 27.75 27.6643 27.75 30.1538H29.75H31.75C31.75 25.5062 28.0257 21.6923 23.375 21.6923V23.6923Z" fill="black" mask="url(#path-1-inside-1_235_202)"/>
</svg>
