<svg width="50" height="45" viewBox="0 0 50 45" fill="none" xmlns="http://www.w3.org/2000/svg">
<path d="M25 0C27.3869 1.3015e-07 29.6764 0.68435 31.3643 1.90332C32.5532 2.76202 33.3729 3.83739 33.7549 5H46C48.2091 5 50 6.79086 50 9V41C50 43.2091 48.2091 45 46 45H4C1.79086 45 0 43.2091 0 41V9C0 6.79086 1.79086 5 4 5H16.2451C16.6271 3.83739 17.4468 2.76202 18.6357 1.90332C20.3236 0.68435 22.6131 -1.88413e-10 25 0ZM2 41C2 42.1046 2.89543 43 4 43H46C47.1046 43 48 42.1046 48 41V28H31C31 30.2091 29.2091 32 27 32H23C20.7909 32 19 30.2091 19 28H2V41ZM23 24C21.8954 24 21 24.8954 21 26V28C21 29.1046 21.8954 30 23 30H27C28.1046 30 29 29.1046 29 28V26C29 24.8954 28.1046 24 27 24H23ZM4 7C2.89543 7 2 7.89543 2 9V26H19C19 23.7909 20.7909 22 23 22H27C29.2091 22 31 23.7909 31 26H48V9C48 7.89543 47.1046 7 46 7H4ZM25 1.73242C23.2493 1.73242 21.57 2.23484 20.332 3.12891C19.5983 3.65888 19.057 4.30175 18.7363 5H31.2637C30.943 4.30175 30.4017 3.65888 29.668 3.12891C28.43 2.23484 26.7507 1.73242 25 1.73242Z" fill="black"/>
</svg>
