<svg width="47" height="45" viewBox="0 0 47 45" fill="none" xmlns="http://www.w3.org/2000/svg">
<path d="M24.1143 0.477539L33.2842 7.60938L35.6816 4.19238L36.2422 3.39258L37.0547 3.93457L41.5547 6.93457L42.3145 7.44141L41.8789 8.24414L39.5693 12.498L46.6143 17.9775C47.0498 18.3167 47.128 18.9451 46.7891 19.3809C46.45 19.8165 45.8216 19.8946 45.3857 19.5557L43.5 18.0889V44.7666H3.5V18.0889L1.61426 19.5557C1.17845 19.8946 0.550082 19.8164 0.210938 19.3809C-0.128045 18.945 -0.0499076 18.3167 0.385742 17.9775L22.8857 0.477539L23.5 0L24.1143 0.477539ZM5.30957 16.6807C5.42898 16.8454 5.5 17.0476 5.5 17.2666V42.7666H41.5V17.2666C41.5 17.0477 41.5702 16.8453 41.6895 16.6807L37.6719 13.5557L37.002 13.0352L37.4072 12.2891L39.6846 8.0918L36.7568 6.13965L34.3184 9.61816L33.7158 10.4785L32.8857 9.83398L23.499 2.5332L5.30957 16.6807ZM34.5 32.2666C35.0522 32.2667 35.5 32.7144 35.5 33.2666C35.5 33.8188 35.0522 34.2665 34.5 34.2666H12C11.4477 34.2666 11 33.8189 11 33.2666C11 32.7143 11.4477 32.2666 12 32.2666H34.5ZM34.5 27.2666C35.0522 27.2667 35.5 27.7144 35.5 28.2666C35.5 28.8188 35.0522 29.2665 34.5 29.2666H12C11.4477 29.2666 11 28.8189 11 28.2666C11 27.7143 11.4477 27.2666 12 27.2666H34.5ZM34.5 22.2666C35.0522 22.2667 35.5 22.7144 35.5 23.2666C35.5 23.8188 35.0522 24.2665 34.5 24.2666H12C11.4477 24.2666 11 23.8189 11 23.2666C11 22.7143 11.4477 22.2666 12 22.2666H34.5Z" fill="black"/>
</svg>
