<svg width="22" height="22" viewBox="0 0 22 22" fill="none" xmlns="http://www.w3.org/2000/svg">
<g clip-path="url(#clip0_205_419)">
<path d="M19.7 17.9117H2.30003C1.78144 17.9109 1.28433 17.7046 0.917635 17.3379C0.550938 16.9712 0.344568 16.474 0.34375 15.9555V6.04515C0.344568 5.52656 0.550938 5.02945 0.917635 4.66275C1.28433 4.29606 1.78144 4.08969 2.30003 4.08887H19.7C20.2186 4.08969 20.7157 4.29606 21.0824 4.66275C21.4491 5.02945 21.6554 5.52656 21.6562 6.04515V15.9555C21.6554 16.474 21.4491 16.9712 21.0824 17.3379C20.7157 17.7046 20.2186 17.9109 19.7 17.9117ZM2.30003 4.77637C1.96378 4.77718 1.64154 4.91112 1.40377 5.14889C1.166 5.38665 1.03207 5.7089 1.03125 6.04515V15.9555C1.03207 16.2917 1.166 16.614 1.40377 16.8517C1.64154 17.0895 1.96378 17.2234 2.30003 17.2242H19.7C20.0362 17.2234 20.3585 17.0895 20.5962 16.8517C20.834 16.614 20.9679 16.2917 20.9688 15.9555V6.04515C20.9679 5.7089 20.834 5.38665 20.5962 5.14889C20.3585 4.91112 20.0362 4.77718 19.7 4.77637H2.30003Z" fill="#4076FF" stroke="#4076FF"/>
<path d="M11.0025 12.4174C10.7686 12.4174 10.5401 12.3468 10.347 12.2149L0.646689 5.64657C0.607891 5.62192 0.574433 5.58973 0.548293 5.55192C0.522153 5.51411 0.503863 5.47143 0.494504 5.42643C0.485145 5.38142 0.484909 5.335 0.493808 5.2899C0.502707 5.2448 0.520561 5.20194 0.546314 5.16387C0.572066 5.12579 0.605195 5.09326 0.643739 5.06821C0.682283 5.04317 0.725459 5.0261 0.770714 5.01803C0.815968 5.00996 0.862382 5.01105 0.907208 5.02124C0.952034 5.03142 0.994362 5.05049 1.03169 5.07732L10.7323 11.646C10.8114 11.7001 10.905 11.7292 11.0008 11.7296C11.0966 11.7299 11.1904 11.7016 11.2699 11.6481L20.9833 5.10757C21.0207 5.08221 21.0628 5.06449 21.1071 5.05542C21.1514 5.04635 21.1971 5.04611 21.2415 5.05472C21.2859 5.06332 21.3281 5.0806 21.3658 5.10557C21.4035 5.13053 21.4359 5.16269 21.4612 5.2002C21.4864 5.23771 21.5041 5.27984 21.513 5.32416C21.522 5.36849 21.5221 5.41415 21.5133 5.45852C21.5046 5.50289 21.4872 5.5451 21.4621 5.58274C21.4371 5.62038 21.4048 5.6527 21.3673 5.67785L11.6536 12.2191C11.461 12.3483 11.2344 12.4174 11.0025 12.4174Z" fill="#4076FF" stroke="#4076FF"/>
<path d="M21.2916 16.558C21.2234 16.5579 21.1567 16.5376 21.1001 16.4995L13.0044 11.0511C12.9288 11.0002 12.8764 10.9213 12.8589 10.8318C12.8414 10.7423 12.8602 10.6495 12.9111 10.5738C12.962 10.4981 13.0409 10.4458 13.1304 10.4283C13.2199 10.4108 13.3127 10.4295 13.3884 10.4805L21.4844 15.9289C21.5456 15.97 21.592 16.0297 21.6166 16.0992C21.6413 16.1687 21.643 16.2443 21.6214 16.3148C21.5998 16.3853 21.5561 16.447 21.4968 16.4908C21.4375 16.5346 21.3653 16.5581 21.2916 16.558Z" fill="#4076FF" stroke="#4076FF"/>
<path d="M0.708101 16.5475C0.63453 16.5475 0.562892 16.5239 0.503722 16.4802C0.444552 16.4365 0.40097 16.3749 0.379385 16.3046C0.3578 16.2343 0.35935 16.1589 0.383808 16.0895C0.408266 16.0201 0.45434 15.9604 0.515258 15.9191L8.58341 10.4535C8.65892 10.4041 8.75081 10.3864 8.83926 10.4042C8.92771 10.422 9.00562 10.4738 9.0562 10.5485C9.10677 10.6232 9.12594 10.7148 9.10959 10.8035C9.09323 10.8923 9.04265 10.971 8.96876 11.0228L0.900257 16.4884C0.843529 16.5268 0.776614 16.5474 0.708101 16.5475Z" fill="#4076FF" stroke="#4076FF"/>
</g>
<defs>
<clipPath id="clip0_205_419">
<rect width="22" height="22" fill="white"/>
</clipPath>
</defs>
</svg>
