<svg width="20" height="20" viewBox="0 0 20 20" fill="none" xmlns="http://www.w3.org/2000/svg">
<g clip-path="url(#clip0_205_427)">
<path d="M3.73695 0.9223C3.42451 0.931749 3.15002 1.09663 2.9203 1.32636L1.65382 2.5904C1.62365 2.61922 1.04546 3.85029 1.02882 3.88855C1.01219 3.92681 1.55745 2.77148 1.55696 2.8132C1.55646 2.85491 1.56431 2.89628 1.58003 2.93492C1.59575 2.97356 1.61904 3.00867 1.64851 3.03819C1.67799 3.0677 1.71307 3.09104 1.75169 3.10681C1.79031 3.12259 1.83169 3.1305 1.87341 3.13006C1.91512 3.12963 1.55043 4.02213 1.58871 4.00555C1.62699 3.98897 2.06747 3.06363 2.09632 3.0335L2.53211 2.59772L2.97401 2.15582L3.36097 1.76884C3.52134 1.60847 3.65055 1.5511 3.75526 1.54789C3.86002 1.54435 3.98639 1.58734 4.16786 1.76884L6.8534 4.45196C6.97964 4.5782 6.97964 4.7664 6.8534 4.89264L5.40443 6.34102C5.03769 6.70776 4.91503 7.13298 4.95704 7.49033C4.99909 7.84769 5.17468 8.12658 5.32142 8.31611C5.88863 9.04875 6.7689 10.3355 8.21632 11.7829C9.66372 13.2304 10.9511 14.1112 11.6837 14.6784C11.8733 14.8252 12.1522 15.0008 12.5095 15.0428C12.8669 15.0849 13.2915 14.9622 13.6582 14.5954L14.0916 14.1633L14.5322 13.7226L15.1072 13.1489C15.2334 13.0227 15.4216 13.0227 15.5479 13.1489L18.2304 15.8314C18.4118 16.0129 18.4551 16.1399 18.4519 16.2446C18.4484 16.3494 18.3907 16.4785 18.2304 16.6389L16.9663 17.9029C16.4389 18.4303 15.7459 18.4358 15.3123 18.4358C13.6748 18.4358 10.7619 17.821 6.4701 13.5292C2.1783 9.23735 1.56349 6.3251 1.56349 4.68758C1.56349 4.5313 1.56255 4.33915 1.58911 4.13336C1.59779 4.09118 1.59765 4.04768 1.58871 4.00555C1.57977 3.96342 1.56221 3.92357 1.53715 3.88855C1.51209 3.85352 1.48006 3.82407 1.44307 3.802C1.40608 3.77994 1.36493 3.76574 1.3222 3.76034C1.27947 3.75493 1.23608 3.75845 1.19477 3.77061C1.15345 3.78277 1.11509 3.8033 1.0821 3.83098C1.0491 3.85867 1.02219 3.8929 1.00304 3.93148C0.983893 3.97006 0.972926 4.01216 0.970827 4.05518C0.938464 4.30757 0.938477 4.52999 0.938477 4.6869C0.938477 6.48647 1.65851 9.59823 6.03003 13.9698C10.4015 18.3413 13.5127 19.0613 15.3123 19.0613C15.7472 19.0613 16.6894 19.0661 17.4094 18.346L18.6735 17.082C18.9032 16.8522 19.0679 16.5753 19.0775 16.2629C19.087 15.9505 18.9334 15.6487 18.6735 15.3888L15.991 12.7057C15.6275 12.3423 15.0275 12.3423 14.6641 12.7057L13.2181 14.1547C12.9599 14.413 12.7662 14.4438 12.5809 14.4221C12.3956 14.4003 12.2071 14.2931 12.067 14.1846C11.3031 13.5932 10.0657 12.7466 8.65942 11.3404C7.25317 9.93409 6.40661 8.69666 5.81519 7.93274C5.70676 7.79265 5.59955 7.60356 5.57776 7.41824C5.55592 7.23293 5.58945 7.03989 5.84754 6.78163L7.29407 5.3357C7.65749 4.97228 7.65748 4.37222 7.29407 4.00879L4.61096 1.32629C4.35109 1.0664 4.04937 0.912698 3.73695 0.9223Z" fill="#4076FF"/>
<path d="M1.58871 4.00555C1.55043 4.02213 1.91512 3.12963 1.87341 3.13006C1.83169 3.1305 1.79031 3.12259 1.75169 3.10681C1.71307 3.09104 1.67799 3.0677 1.64852 3.03819C1.61904 3.00867 1.59575 2.97356 1.58003 2.93492C1.56431 2.89628 1.55646 2.85491 1.55696 2.8132C1.55745 2.77148 1.01219 3.92681 1.02882 3.88855C1.04546 3.85029 1.62365 2.61922 1.65382 2.5904L2.9203 1.32636C3.15002 1.09663 3.42451 0.931749 3.73695 0.9223C4.04937 0.912698 4.35109 1.0664 4.61096 1.32629L7.29407 4.00879C7.65748 4.37222 7.65749 4.97228 7.29407 5.3357L5.84754 6.78163C5.58945 7.03989 5.55592 7.23293 5.57776 7.41824C5.59955 7.60356 5.70676 7.79265 5.81519 7.93274C6.40661 8.69666 7.25317 9.93409 8.65942 11.3404C10.0657 12.7466 11.3031 13.5932 12.067 14.1846C12.2071 14.2931 12.3956 14.4003 12.5809 14.4221C12.7662 14.4438 12.9599 14.413 13.2181 14.1547L14.6641 12.7057C15.0275 12.3423 15.6275 12.3423 15.991 12.7057L18.6735 15.3888C18.9334 15.6487 19.087 15.9505 19.0775 16.2629C19.0679 16.5753 18.9032 16.8522 18.6735 17.082L17.4094 18.346C16.6894 19.0661 15.7472 19.0613 15.3123 19.0613C13.5127 19.0613 10.4015 18.3413 6.03003 13.9698C1.65851 9.59823 0.938477 6.48647 0.938477 4.6869C0.938477 4.52999 0.938464 4.30757 0.970827 4.05518C0.972926 4.01216 0.983893 3.97006 1.00304 3.93148C1.02219 3.8929 1.0491 3.85867 1.0821 3.83098C1.11509 3.8033 1.15345 3.78277 1.19477 3.77061C1.23608 3.75845 1.27947 3.75493 1.3222 3.76034C1.36493 3.76574 1.40608 3.77994 1.44307 3.802C1.48006 3.82407 1.51209 3.85352 1.53715 3.88855C1.56221 3.92357 1.57977 3.96342 1.58871 4.00555ZM1.58871 4.00555C1.62699 3.98897 2.06747 3.06363 2.09632 3.0335L2.53211 2.59772L2.97401 2.15582L3.36097 1.76884C3.52134 1.60847 3.65055 1.5511 3.75526 1.54789C3.86002 1.54435 3.98639 1.58734 4.16786 1.76884L6.8534 4.45196C6.97964 4.5782 6.97964 4.7664 6.8534 4.89264L5.40443 6.34102C5.03769 6.70776 4.91503 7.13298 4.95704 7.49033C4.99909 7.84769 5.17468 8.12658 5.32142 8.31611C5.88863 9.04875 6.7689 10.3355 8.21632 11.7829C9.66372 13.2304 10.9511 14.1112 11.6837 14.6784C11.8733 14.8252 12.1522 15.0008 12.5095 15.0428C12.8669 15.0849 13.2915 14.9622 13.6582 14.5954L14.0916 14.1633L14.5322 13.7226L15.1072 13.1489C15.2334 13.0227 15.4216 13.0227 15.5479 13.1489L18.2304 15.8314C18.4118 16.0129 18.4551 16.1399 18.4519 16.2446C18.4484 16.3494 18.3907 16.4785 18.2304 16.6389L16.9663 17.9029C16.4389 18.4303 15.7459 18.4358 15.3123 18.4358C13.6748 18.4358 10.7619 17.821 6.4701 13.5292C2.1783 9.23735 1.56349 6.3251 1.56349 4.68758C1.56349 4.5313 1.56255 4.33915 1.58911 4.13336C1.59779 4.09118 1.59765 4.04768 1.58871 4.00555Z" stroke="#4076FF"/>
</g>
<defs>
<clipPath id="clip0_205_427">
<rect width="20" height="20" fill="white"/>
</clipPath>
</defs>
</svg>
