<svg width="55" height="50" viewBox="0 0 55 50" fill="none" xmlns="http://www.w3.org/2000/svg">
<path fill-rule="evenodd" clip-rule="evenodd" d="M45 0C46.6569 0 48 1.34315 48 3V32C48 33.6569 46.6569 35 45 35H3C1.39489 35 0.0842144 33.7394 0.00390625 32.1543L0 32V3C0 1.34315 1.34315 0 3 0H45ZM3 2C2.48232 2 2.05621 2.39333 2.00488 2.89746L2 3V3.12305C2.02925 3.14432 2.05757 3.16751 2.08496 3.19238L22.6055 21.8477C23.0138 22.2191 23.0441 22.8512 22.6729 23.2598C22.3014 23.6683 21.6694 23.6984 21.2607 23.3271L16.1553 18.6855L2 30.1865V32C2 32.5523 2.44772 33 3 33H45C45.5523 33 46 32.5523 46 32V6.74902L40.7529 11.3418C40.3373 11.7055 39.7055 11.6627 39.3418 11.2471C38.9782 10.8314 39.0199 10.1996 39.4355 9.83594L45.9307 4.15332C45.9532 4.13362 45.9763 4.11498 46 4.09766V3C46 2.44772 45.5523 2 45 2H3ZM2 27.6104L14.6582 17.3252L2 5.81738V27.6104Z" fill="black"/>
<path fill-rule="evenodd" clip-rule="evenodd" d="M34.322 13.1695C35.3805 12.2256 37.0056 12.3138 37.9518 13.3661L38.1174 13.5688C38.6641 14.3173 38.744 15.2833 38.3859 16.0976L48.0914 26.891C49.1418 26.1695 50.5895 26.3189 51.4615 27.2888L51.6271 27.4914C52.3929 28.5397 52.2498 30.0175 51.2574 30.9025L43.2104 38.0796L43.0064 38.2439C41.9525 39.0083 40.4689 38.8698 39.5818 37.8837L39.4158 37.6793C38.7667 36.7903 38.7715 35.5938 39.3927 34.7107L36.3686 31.3476L19.3804 47.9023L19.249 48.0236C17.8658 49.24 15.7482 49.1558 14.4724 47.8033C13.1453 46.3961 13.2528 44.1728 14.7098 42.8941L32.6193 27.179L29.8124 24.0567L29.7007 24.157L29.4967 24.3213C28.4427 25.0857 26.9592 24.9472 26.072 23.9611L25.9061 23.7566C25.1916 22.7782 25.2673 21.4259 26.0874 20.5305L26.2741 20.3468L34.322 13.1695ZM15.9756 44.3254C15.3319 44.8906 15.2843 45.8735 15.8707 46.4955C16.4526 47.1122 17.4307 47.1318 18.0394 46.5392L34.1863 30.8057L32.9403 29.4398L15.9756 44.3254ZM50.0326 28.5628C49.7922 28.2955 49.3788 28.2737 49.1099 28.5134L41.0619 35.6907C40.7935 35.9307 40.7711 36.3413 41.0114 36.6085C41.2518 36.8754 41.6635 36.8978 41.9323 36.6583L49.9803 29.481C50.2488 29.2412 50.2727 28.8301 50.0326 28.5628ZM31.3314 22.8797L40.697 33.2961L46.5672 28.0606L37.2015 17.6441L31.3314 22.8797ZM36.5229 14.6402C36.2825 14.3729 35.8691 14.3511 35.6001 14.5908L27.5522 21.7681C27.2837 22.008 27.2614 22.4187 27.5016 22.6859C27.742 22.9528 28.1537 22.9751 28.4226 22.7357L36.4705 15.5584C36.7391 15.3186 36.763 14.9075 36.5229 14.6402Z" fill="black"/>
<path d="M15.9756 44.3254C15.3319 44.8906 15.2843 45.8735 15.8707 46.4955C16.4526 47.1122 17.4307 47.1318 18.0394 46.5392L34.1863 30.8057L32.9403 29.4398L15.9756 44.3254Z" fill="white"/>
<path d="M50.0326 28.5628C49.7922 28.2955 49.3788 28.2737 49.1099 28.5134L41.0619 35.6907C40.7935 35.9307 40.7711 36.3413 41.0114 36.6085C41.2518 36.8754 41.6635 36.8978 41.9323 36.6583L49.9803 29.481C50.2488 29.2412 50.2727 28.8301 50.0326 28.5628Z" fill="white"/>
<path d="M34.2219 13.0572C35.3417 12.0586 37.0612 12.1521 38.0628 13.2656L38.068 13.2715L38.2338 13.4734L38.2392 13.4803L38.2382 13.4805C38.7974 14.2461 38.894 15.2247 38.5598 16.0663L48.1184 26.6971C49.1476 26.0612 50.4923 26.1755 51.3928 27.0057L51.5728 27.1889L51.5778 27.1938L51.7438 27.3967L51.748 27.4028C52.5591 28.5131 52.4074 30.0776 51.3573 31.0142L43.3099 38.1914L43.3049 38.1963L43.1007 38.3606L43.0948 38.3658C41.9796 39.1746 40.4093 39.0277 39.4701 37.9837L39.4652 37.9788L39.2997 37.7738L39.2946 37.7679C38.6311 36.8593 38.6145 35.6492 39.2044 34.7256L36.3607 31.5633L19.4849 48.0096L19.4824 48.0121L19.3504 48.1341L19.3479 48.1366C17.9047 49.4056 15.6952 49.3181 14.3635 47.9067L14.3633 47.9058C12.9779 46.4365 13.0904 44.1157 14.6109 42.7813L32.4057 27.1662L29.8011 24.2689L29.7951 24.274L29.591 24.4383L29.5848 24.4425C28.4696 25.2513 26.8996 25.1054 25.9604 24.0614L25.9552 24.0555L25.79 23.8515L25.7848 23.8456C25.0282 22.8094 25.1084 21.3772 25.9764 20.4293L25.9822 20.4231L26.1686 20.2395L26.1745 20.2343L34.2219 13.0572ZM31.5433 22.891L40.7089 33.0845L46.3549 28.0484L37.1884 17.855L31.5433 22.891ZM36.4117 14.7408C36.2269 14.5353 35.9077 14.5177 35.7 14.7028L27.6514 21.8791C27.4448 22.0638 27.4287 22.3804 27.6134 22.5858C27.7984 22.7909 28.1157 22.8079 28.323 22.6233L36.3704 15.4462C36.5773 15.2613 36.5955 14.9458 36.4117 14.7408Z" stroke="white" stroke-width="0.3"/>
</svg>
