<svg width="45" height="36" viewBox="0 0 45 36" fill="none" xmlns="http://www.w3.org/2000/svg">
<path fill-rule="evenodd" clip-rule="evenodd" d="M22.2832 35.25L19.6855 33L21.4375 24.3955L18 20.9219C17.7607 21.005 17.5237 21.0952 17.2891 21.1924L16.9941 21.3193C15.5268 21.9698 14.1909 22.8853 13.0547 24.0215C11.8428 25.2334 10.8815 26.6724 10.2256 28.2559C9.56978 29.8392 9.23242 31.5362 9.23242 33.25H7.2832C7.2832 31.2802 7.67101 29.3296 8.4248 27.5098C9.13156 25.8035 10.147 24.2433 11.4189 22.9072L11.6768 22.6436C13.0696 21.2507 14.7231 20.1454 16.543 19.3916C16.8582 19.261 17.1775 19.1417 17.5 19.0332C14.392 17.3371 12.2832 14.0401 12.2832 10.25C12.2832 4.72715 16.7604 0.25 22.2832 0.25C27.8061 0.25 32.2832 4.72715 32.2832 10.25C32.2832 14.0401 30.1744 17.3371 27.0664 19.0332C27.3889 19.1417 27.7082 19.261 28.0234 19.3916C29.8433 20.1454 31.4968 21.2507 32.8896 22.6436C34.2825 24.0364 35.3878 25.6899 36.1416 27.5098C36.8954 29.3296 37.2832 31.2802 37.2832 33.25H35.334C35.334 31.5362 34.9966 29.8392 34.3408 28.2559C33.685 26.6724 32.7236 25.2334 31.5117 24.0215C30.2998 22.8096 28.8608 21.8483 27.2773 21.1924C27.0424 21.0951 26.8041 21.0071 26.5645 20.9238L23.1279 24.3955L24.8809 33L22.2832 35.25ZM22.2832 2.25C17.8649 2.25 14.2832 5.83172 14.2832 10.25C14.2832 14.6683 17.8649 18.25 22.2832 18.25C26.7015 18.25 30.2832 14.6683 30.2832 10.25C30.2832 5.83172 26.7015 2.25 22.2832 2.25Z" fill="#4076FF"/>
<path d="M10.2139 7.00879C8.92791 7.05051 7.70449 7.561 6.77148 8.43848L6.58887 8.61914C5.63633 9.60668 5.10569 10.9268 5.11035 12.2988C5.11518 13.671 5.65478 14.9878 6.61426 15.9688C7.57393 16.9498 8.87908 17.5187 10.251 17.5537L10.1943 19.7783C10.1096 19.7762 10.0248 19.7697 9.94043 19.7646C9.86487 19.7822 9.75685 19.8101 9.62109 19.8525C9.30347 19.9519 8.83439 20.1307 8.27344 20.4395C7.15639 21.0544 5.65404 22.1983 4.24805 24.3096C3.62195 25.2499 3.15557 26.6163 2.84277 27.8193C2.68987 28.4075 2.57937 28.932 2.50781 29.3086C2.47212 29.4965 2.44655 29.6471 2.42969 29.749C2.42127 29.7999 2.41506 29.8389 2.41113 29.8643C2.40921 29.8767 2.40712 29.8858 2.40625 29.8916C2.40582 29.8945 2.40527 29.8984 2.40527 29.8984L2.26172 30.8877L0.283203 30.6006L0.426758 29.6113V29.6064C0.427141 29.6038 0.42805 29.6001 0.428711 29.5957C0.430035 29.5869 0.43212 29.5744 0.43457 29.5586C0.439497 29.5268 0.446455 29.4809 0.456055 29.4229C0.475246 29.3068 0.503994 29.1407 0.542969 28.9355C0.620786 28.526 0.739728 27.9569 0.90625 27.3164C1.23241 26.0618 1.76631 24.428 2.58398 23.2002C4.02656 21.0341 5.59615 19.717 6.90625 18.9219C6.21573 18.5602 5.57835 18.0926 5.02344 17.5254C3.659 16.1305 2.89162 14.2579 2.88477 12.3066C2.87809 10.3552 3.63242 8.47764 4.9873 7.07324C6.34221 5.6689 8.19124 4.84748 10.1416 4.78418L10.2139 7.00879Z" fill="#4076FF"/>
<path d="M34.5576 4.78418C36.508 4.84748 38.357 5.6689 39.7119 7.07324C41.0668 8.47764 41.8211 10.3552 41.8145 12.3066C41.8076 14.2579 41.0402 16.1305 39.6758 17.5254C39.1209 18.0926 38.4835 18.5602 37.793 18.9219C39.1031 19.717 40.6727 21.0341 42.1152 23.2002C42.9329 24.428 43.4668 26.0618 43.793 27.3164C43.9595 27.9569 44.0784 28.526 44.1562 28.9355C44.1952 29.1407 44.224 29.3068 44.2432 29.4229C44.2528 29.4809 44.2597 29.5268 44.2646 29.5586C44.2671 29.5744 44.2692 29.5869 44.2705 29.5957C44.2712 29.6001 44.2721 29.6038 44.2725 29.6064V29.6113L44.416 30.6006L42.4375 30.8877L42.2939 29.8984C42.2939 29.8984 42.2934 29.8945 42.293 29.8916C42.2921 29.8858 42.29 29.8767 42.2881 29.8643C42.2842 29.8389 42.278 29.7999 42.2695 29.749C42.2527 29.6471 42.2271 29.4965 42.1914 29.3086C42.1198 28.932 42.0093 28.4075 41.8564 27.8193C41.5436 26.6163 41.0773 25.2499 40.4512 24.3096C39.0452 22.1983 37.5428 21.0544 36.4258 20.4395C35.8648 20.1307 35.3957 19.9519 35.0781 19.8525C34.9424 19.8101 34.8343 19.7822 34.7588 19.7646C34.6744 19.7697 34.5897 19.7762 34.5049 19.7783L34.4482 17.5537C35.8201 17.5187 37.1253 16.9498 38.085 15.9688C39.0444 14.9878 39.584 13.671 39.5889 12.2988C39.5935 10.9268 39.0629 9.60668 38.1104 8.61914L37.9277 8.43848C36.9947 7.561 35.7713 7.05051 34.4854 7.00879L34.5576 4.78418Z" fill="#4076FF"/>
<path fill-rule="evenodd" clip-rule="evenodd" d="M22.2832 35.25L19.6855 33L21.4375 24.3955L18 20.9219C17.7607 21.005 17.5237 21.0952 17.2891 21.1924L16.9941 21.3193C15.5268 21.9698 14.1909 22.8853 13.0547 24.0215C11.8428 25.2334 10.8815 26.6724 10.2256 28.2559C9.56978 29.8392 9.23242 31.5362 9.23242 33.25H7.2832C7.2832 31.2802 7.67101 29.3296 8.4248 27.5098C9.13156 25.8035 10.147 24.2433 11.4189 22.9072L11.6768 22.6436C13.0696 21.2507 14.7231 20.1454 16.543 19.3916C16.8582 19.261 17.1775 19.1417 17.5 19.0332C14.392 17.3371 12.2832 14.0401 12.2832 10.25C12.2832 4.72715 16.7604 0.25 22.2832 0.25C27.8061 0.25 32.2832 4.72715 32.2832 10.25C32.2832 14.0401 30.1744 17.3371 27.0664 19.0332C27.3889 19.1417 27.7082 19.261 28.0234 19.3916C29.8433 20.1454 31.4968 21.2507 32.8896 22.6436C34.2825 24.0364 35.3878 25.6899 36.1416 27.5098C36.8954 29.3296 37.2832 31.2802 37.2832 33.25H35.334C35.334 31.5362 34.9966 29.8392 34.3408 28.2559C33.685 26.6724 32.7236 25.2334 31.5117 24.0215C30.2998 22.8096 28.8608 21.8483 27.2773 21.1924C27.0424 21.0951 26.8041 21.0071 26.5645 20.9238L23.1279 24.3955L24.8809 33L22.2832 35.25ZM22.2832 2.25C17.8649 2.25 14.2832 5.83172 14.2832 10.25C14.2832 14.6683 17.8649 18.25 22.2832 18.25C26.7015 18.25 30.2832 14.6683 30.2832 10.25C30.2832 5.83172 26.7015 2.25 22.2832 2.25Z" stroke="#4076FF" stroke-width="0.5"/>
<path d="M10.2139 7.00879C8.92791 7.05051 7.70449 7.561 6.77148 8.43848L6.58887 8.61914C5.63633 9.60668 5.10569 10.9268 5.11035 12.2988C5.11518 13.671 5.65478 14.9878 6.61426 15.9688C7.57393 16.9498 8.87908 17.5187 10.251 17.5537L10.1943 19.7783C10.1096 19.7762 10.0248 19.7697 9.94043 19.7646C9.86487 19.7822 9.75685 19.8101 9.62109 19.8525C9.30347 19.9519 8.83439 20.1307 8.27344 20.4395C7.15639 21.0544 5.65404 22.1983 4.24805 24.3096C3.62195 25.2499 3.15557 26.6163 2.84277 27.8193C2.68987 28.4075 2.57937 28.932 2.50781 29.3086C2.47212 29.4965 2.44655 29.6471 2.42969 29.749C2.42127 29.7999 2.41506 29.8389 2.41113 29.8643C2.40921 29.8767 2.40712 29.8858 2.40625 29.8916C2.40582 29.8945 2.40527 29.8984 2.40527 29.8984L2.26172 30.8877L0.283203 30.6006L0.426758 29.6113V29.6064C0.427141 29.6038 0.42805 29.6001 0.428711 29.5957C0.430035 29.5869 0.43212 29.5744 0.43457 29.5586C0.439497 29.5268 0.446455 29.4809 0.456055 29.4229C0.475246 29.3068 0.503994 29.1407 0.542969 28.9355C0.620786 28.526 0.739728 27.9569 0.90625 27.3164C1.23241 26.0618 1.76631 24.428 2.58398 23.2002C4.02656 21.0341 5.59615 19.717 6.90625 18.9219C6.21573 18.5602 5.57835 18.0926 5.02344 17.5254C3.659 16.1305 2.89162 14.2579 2.88477 12.3066C2.87809 10.3552 3.63242 8.47764 4.9873 7.07324C6.34221 5.6689 8.19124 4.84748 10.1416 4.78418L10.2139 7.00879Z" stroke="#4076FF" stroke-width="0.5"/>
<path d="M34.5576 4.78418C36.508 4.84748 38.357 5.6689 39.7119 7.07324C41.0668 8.47764 41.8211 10.3552 41.8145 12.3066C41.8076 14.2579 41.0402 16.1305 39.6758 17.5254C39.1209 18.0926 38.4835 18.5602 37.793 18.9219C39.1031 19.717 40.6727 21.0341 42.1152 23.2002C42.9329 24.428 43.4668 26.0618 43.793 27.3164C43.9595 27.9569 44.0784 28.526 44.1562 28.9355C44.1952 29.1407 44.224 29.3068 44.2432 29.4229C44.2528 29.4809 44.2597 29.5268 44.2646 29.5586C44.2671 29.5744 44.2692 29.5869 44.2705 29.5957C44.2712 29.6001 44.2721 29.6038 44.2725 29.6064V29.6113L44.416 30.6006L42.4375 30.8877L42.2939 29.8984C42.2939 29.8984 42.2934 29.8945 42.293 29.8916C42.2921 29.8858 42.29 29.8767 42.2881 29.8643C42.2842 29.8389 42.278 29.7999 42.2695 29.749C42.2527 29.6471 42.2271 29.4965 42.1914 29.3086C42.1198 28.932 42.0093 28.4075 41.8564 27.8193C41.5436 26.6163 41.0773 25.2499 40.4512 24.3096C39.0452 22.1983 37.5428 21.0544 36.4258 20.4395C35.8648 20.1307 35.3957 19.9519 35.0781 19.8525C34.9424 19.8101 34.8343 19.7822 34.7588 19.7646C34.6744 19.7697 34.5897 19.7762 34.5049 19.7783L34.4482 17.5537C35.8201 17.5187 37.1253 16.9498 38.085 15.9688C39.0444 14.9878 39.584 13.671 39.5889 12.2988C39.5935 10.9268 39.0629 9.60668 38.1104 8.61914L37.9277 8.43848C36.9947 7.561 35.7713 7.05051 34.4854 7.00879L34.5576 4.78418Z" stroke="#4076FF" stroke-width="0.5"/>
</svg>
