<svg width="33" height="40" viewBox="0 0 33 40" fill="none" xmlns="http://www.w3.org/2000/svg">
<path d="M18.4062 26.2129C18.7028 25.7471 19.3212 25.6098 19.7871 25.9062C20.2529 26.2028 20.3902 26.8212 20.0938 27.2871L16.5938 32.7871C16.4237 33.0542 16.1371 33.2245 15.8213 33.2471C15.5053 33.2695 15.1974 33.1409 14.9912 32.9004L11.9912 29.4004C11.6318 28.9811 11.6803 28.3506 12.0996 27.9912C12.5189 27.6318 13.1494 27.6803 13.5088 28.0996L15.6299 30.5742L18.4062 26.2129Z" fill="#4076FF"/>
<path d="M15.25 19.25C15.8023 19.25 16.25 19.6977 16.25 20.25C16.25 20.8023 15.8023 21.25 15.25 21.25H7.25C6.69772 21.25 6.25 20.8023 6.25 20.25C6.25 19.6977 6.69772 19.25 7.25 19.25H15.25Z" fill="#4076FF"/>
<path d="M24.25 13.25C24.8023 13.25 25.25 13.6977 25.25 14.25C25.25 14.8023 24.8023 15.25 24.25 15.25H7.25C6.69772 15.25 6.25 14.8023 6.25 14.25C6.25 13.6977 6.69772 13.25 7.25 13.25H24.25Z" fill="#4076FF"/>
<path d="M24.25 8.25C24.8023 8.25 25.25 8.69771 25.25 9.25C25.25 9.80229 24.8023 10.25 24.25 10.25H7.25C6.69772 10.25 6.25 9.80229 6.25 9.25C6.25 8.69771 6.69772 8.25 7.25 8.25H24.25Z" fill="#4076FF"/>
<path fill-rule="evenodd" clip-rule="evenodd" d="M28.25 0.25C30.4591 0.25 32.25 2.04086 32.25 4.25V35.25C32.25 37.4591 30.4591 39.25 28.25 39.25H4.25C2.10996 39.25 0.362115 37.5694 0.254883 35.4561L0.25 35.25V4.25C0.25 2.04086 2.04086 0.25 4.25 0.25H28.25ZM4.25 2.25C3.21435 2.25 2.363 3.03722 2.26074 4.0459L2.25 4.25V35.25C2.25 36.3546 3.14543 37.25 4.25 37.25H28.25C29.3546 37.25 30.25 36.3546 30.25 35.25V4.25C30.25 3.14543 29.3546 2.25 28.25 2.25H4.25Z" fill="#4076FF"/>
<path d="M18.4062 26.2129C18.7028 25.7471 19.3212 25.6098 19.7871 25.9062C20.2529 26.2028 20.3902 26.8212 20.0938 27.2871L16.5938 32.7871C16.4237 33.0542 16.1371 33.2245 15.8213 33.2471C15.5053 33.2695 15.1974 33.1409 14.9912 32.9004L11.9912 29.4004C11.6318 28.9811 11.6803 28.3506 12.0996 27.9912C12.5189 27.6318 13.1494 27.6803 13.5088 28.0996L15.6299 30.5742L18.4062 26.2129Z" stroke="#4076FF" stroke-width="0.5" stroke-linecap="round" stroke-linejoin="round"/>
<path d="M15.25 19.25C15.8023 19.25 16.25 19.6977 16.25 20.25C16.25 20.8023 15.8023 21.25 15.25 21.25H7.25C6.69772 21.25 6.25 20.8023 6.25 20.25C6.25 19.6977 6.69772 19.25 7.25 19.25H15.25Z" stroke="#4076FF" stroke-width="0.5" stroke-linecap="round" stroke-linejoin="round"/>
<path d="M24.25 13.25C24.8023 13.25 25.25 13.6977 25.25 14.25C25.25 14.8023 24.8023 15.25 24.25 15.25H7.25C6.69772 15.25 6.25 14.8023 6.25 14.25C6.25 13.6977 6.69772 13.25 7.25 13.25H24.25Z" stroke="#4076FF" stroke-width="0.5" stroke-linecap="round" stroke-linejoin="round"/>
<path d="M24.25 8.25C24.8023 8.25 25.25 8.69771 25.25 9.25C25.25 9.80229 24.8023 10.25 24.25 10.25H7.25C6.69772 10.25 6.25 9.80229 6.25 9.25C6.25 8.69771 6.69772 8.25 7.25 8.25H24.25Z" stroke="#4076FF" stroke-width="0.5" stroke-linecap="round" stroke-linejoin="round"/>
<path fill-rule="evenodd" clip-rule="evenodd" d="M28.25 0.25C30.4591 0.25 32.25 2.04086 32.25 4.25V35.25C32.25 37.4591 30.4591 39.25 28.25 39.25H4.25C2.10996 39.25 0.362115 37.5694 0.254883 35.4561L0.25 35.25V4.25C0.25 2.04086 2.04086 0.25 4.25 0.25H28.25ZM4.25 2.25C3.21435 2.25 2.363 3.03722 2.26074 4.0459L2.25 4.25V35.25C2.25 36.3546 3.14543 37.25 4.25 37.25H28.25C29.3546 37.25 30.25 36.3546 30.25 35.25V4.25C30.25 3.14543 29.3546 2.25 28.25 2.25H4.25Z" stroke="#4076FF" stroke-width="0.5" stroke-linecap="round" stroke-linejoin="round"/>
</svg>
