<svg width="38" height="41" viewBox="0 0 38 41" fill="none" xmlns="http://www.w3.org/2000/svg">
<path fill-rule="evenodd" clip-rule="evenodd" d="M18.7202 11.5C22.0337 11.5003 24.7202 14.1865 24.7202 17.5C24.7202 20.8135 22.0337 23.4997 18.7202 23.5C15.4065 23.5 12.7202 20.8137 12.7202 17.5C12.7202 14.1863 15.4065 11.5 18.7202 11.5ZM18.7202 13.5C16.5111 13.5 14.7202 15.2909 14.7202 17.5C14.7202 19.7091 16.5111 21.5 18.7202 21.5C20.9291 21.4997 22.7202 19.709 22.7202 17.5C22.7202 15.291 20.9291 13.5003 18.7202 13.5Z" fill="#4076FF"/>
<path fill-rule="evenodd" clip-rule="evenodd" d="M19.3003 0.512695C34.0336 1.03799 42.256 17.929 32.2905 29.0557L31.2134 30.248C25.8636 36.1142 21.0989 40.4994 18.811 40.5L18.5776 40.4854C16.2431 40.2154 11.5711 36.0818 6.28272 30.5664L5.18018 29.4062C-5.38227 18.1963 3.19203 0.5 18.5942 0.5L19.3003 0.512695ZM18.5942 2.5C4.71976 2.5 -2.57203 18.2622 6.63526 28.0342C9.57595 31.1551 12.3231 33.8635 14.603 35.7773C15.7457 36.7365 16.7264 37.4578 17.522 37.9287C17.9179 38.163 18.2355 38.3159 18.478 38.4062C18.7279 38.4992 18.8273 38.5 18.811 38.5C18.8292 38.4978 18.9316 38.4841 19.1372 38.4053C19.3778 38.313 19.6939 38.1566 20.0874 37.915C20.8785 37.4295 21.8499 36.6846 22.979 35.6943C25.2318 33.7185 27.9303 30.9261 30.8013 27.7207C39.6251 17.868 32.26 2.50048 18.5942 2.5Z" fill="#4076FF"/>
<path fill-rule="evenodd" clip-rule="evenodd" d="M18.7202 11.5C22.0337 11.5003 24.7202 14.1865 24.7202 17.5C24.7202 20.8135 22.0337 23.4997 18.7202 23.5C15.4065 23.5 12.7202 20.8137 12.7202 17.5C12.7202 14.1863 15.4065 11.5 18.7202 11.5ZM18.7202 13.5C16.5111 13.5 14.7202 15.2909 14.7202 17.5C14.7202 19.7091 16.5111 21.5 18.7202 21.5C20.9291 21.4997 22.7202 19.709 22.7202 17.5C22.7202 15.291 20.9291 13.5003 18.7202 13.5Z" stroke="#4076FF"/>
<path fill-rule="evenodd" clip-rule="evenodd" d="M19.3003 0.512695C34.0336 1.03799 42.256 17.929 32.2905 29.0557L31.2134 30.248C25.8636 36.1142 21.0989 40.4994 18.811 40.5L18.5776 40.4854C16.2431 40.2154 11.5711 36.0818 6.28272 30.5664L5.18018 29.4062C-5.38227 18.1963 3.19203 0.5 18.5942 0.5L19.3003 0.512695ZM18.5942 2.5C4.71976 2.5 -2.57203 18.2622 6.63526 28.0342C9.57595 31.1551 12.3231 33.8635 14.603 35.7773C15.7457 36.7365 16.7264 37.4578 17.522 37.9287C17.9179 38.163 18.2355 38.3159 18.478 38.4062C18.7279 38.4992 18.8273 38.5 18.811 38.5C18.8292 38.4978 18.9316 38.4841 19.1372 38.4053C19.3778 38.313 19.6939 38.1566 20.0874 37.915C20.8785 37.4295 21.8499 36.6846 22.979 35.6943C25.2318 33.7185 27.9303 30.9261 30.8013 27.7207C39.6251 17.868 32.26 2.50048 18.5942 2.5Z" stroke="#4076FF"/>
</svg>
