<svg width="39" height="39" viewBox="0 0 39 39" fill="none" xmlns="http://www.w3.org/2000/svg">
<path d="M14.0713 0C16.446 0 18.371 1.92507 18.3711 4.2998C18.3711 5.66747 17.7318 6.88416 16.7383 7.6709L17.7871 9.24414C18.835 8.88338 19.9591 8.68555 21.1289 8.68555C23.3922 8.68562 25.4843 9.41966 27.1816 10.6602L28.9648 8.87695C28.5006 8.19033 28.2286 7.36243 28.2285 6.47168C28.2285 4.09694 30.1536 2.17201 32.5283 2.17188C34.9031 2.17188 36.8281 4.09686 36.8281 6.47168C36.828 8.84639 34.9031 10.7715 32.5283 10.7715C31.8026 10.7714 31.12 10.5883 30.5205 10.2705L28.7354 12.0557C30.3904 13.8789 31.4004 16.3004 31.4004 18.957C31.4004 21.0569 30.7653 23.0074 29.6836 24.6338L32.6924 27.6426C33.2921 27.3251 33.9751 27.1426 34.7002 27.1426C37.0748 27.1427 38.9997 29.0678 39 31.4424C39 33.8171 37.0749 35.7431 34.7002 35.7432C32.3254 35.7432 30.4004 33.8172 30.4004 31.4424C30.4005 30.5514 30.6711 29.7222 31.1357 29.0352L28.3545 26.2539C26.4994 28.0913 23.9473 29.2284 21.1289 29.2285C20.8053 29.2285 20.4861 29.2106 20.1719 29.1807L19.6904 31.1094C20.8563 31.8777 21.6289 33.1976 21.6289 34.7002C21.6288 37.0749 19.7029 39 17.3281 39C14.9536 38.9998 13.0284 37.0748 13.0283 34.7002C13.0283 32.3255 14.9535 30.4006 17.3281 30.4004C17.4576 30.4004 17.5862 30.4067 17.7129 30.418L18.124 28.7793C15.5798 28.002 13.4582 26.2651 12.1768 23.9902L8.59277 25.7832C8.59699 25.8596 8.59961 25.937 8.59961 26.0146C8.59941 28.3893 6.67451 30.3145 4.2998 30.3145C1.92519 30.3143 0.000195324 28.3892 0 26.0146C0 23.6399 1.92507 21.714 4.2998 21.7139C5.85094 21.7139 7.20614 22.5372 7.96191 23.7666L11.3389 22.0781C11.0253 21.0933 10.8574 20.0442 10.8574 18.957C10.8575 15.2044 12.8707 11.9245 15.873 10.1328L14.8076 8.53516C14.5683 8.57665 14.3223 8.59961 14.0713 8.59961C11.6965 8.59953 9.77148 6.67458 9.77148 4.2998C9.77159 1.92512 11.6966 7.57575e-05 14.0713 0ZM17.3281 32.4854C16.1054 32.4856 15.1143 33.4774 15.1143 34.7002C15.1144 35.9229 16.1055 36.9138 17.3281 36.9141C18.551 36.9141 19.5429 35.923 19.543 34.7002C19.543 33.4773 18.551 32.4854 17.3281 32.4854ZM34.7002 29.2285C33.4774 29.2285 32.4856 30.2197 32.4854 31.4424C32.4854 32.6653 33.4773 33.6572 34.7002 33.6572C35.923 33.6571 36.9141 32.6652 36.9141 31.4424C36.9138 30.2197 35.9229 29.2286 34.7002 29.2285ZM4.2998 23.7998C3.07698 23.7999 2.08594 24.7918 2.08594 26.0146C2.08613 27.2373 3.0771 28.2284 4.2998 28.2285C5.5226 28.2285 6.51445 27.2374 6.51465 26.0146C6.51465 24.7917 5.52272 23.7998 4.2998 23.7998ZM21.1289 10.7715C16.6081 10.7715 12.9424 14.4362 12.9424 18.957C12.9424 23.4779 16.6081 27.1426 21.1289 27.1426C25.6496 27.1424 29.3145 23.4778 29.3145 18.957C29.3144 14.4363 25.6496 10.7717 21.1289 10.7715ZM23.6426 19.6123C24.6525 19.6123 25.4717 20.4378 25.4717 21.4561C25.4715 22.4742 24.6524 23.2998 23.6426 23.2998H18.6143C17.6045 23.2998 16.7863 22.4742 16.7861 21.4561C16.7861 20.4378 17.6044 19.6123 18.6143 19.6123H23.6426ZM20.9912 13.5283C22.3041 13.5283 23.3682 14.6011 23.3682 15.9248C23.3682 17.2485 22.3041 18.3213 20.9912 18.3213C19.6785 18.3212 18.6143 17.2484 18.6143 15.9248C18.6143 14.6012 19.6785 13.5284 20.9912 13.5283ZM32.5283 4.25684C31.3055 4.25697 30.3145 5.24885 30.3145 6.47168C30.3146 7.6944 31.3056 8.68541 32.5283 8.68555C33.7512 8.68555 34.743 7.69448 34.7432 6.47168C34.7432 5.24876 33.7512 4.25684 32.5283 4.25684ZM14.0713 2.08594C12.8485 2.08601 11.8575 3.07702 11.8574 4.2998C11.8574 5.52267 12.8484 6.51457 14.0713 6.51465C15.2942 6.51465 16.2861 5.52272 16.2861 4.2998C16.286 3.07698 15.2941 2.08594 14.0713 2.08594Z" fill="#4076FF"/>
</svg>
