<svg width="49" height="52" viewBox="0 0 49 52" fill="none" xmlns="http://www.w3.org/2000/svg">
<path d="M13.416 29.2031C14.2535 28.6024 15.141 28.5343 15.9531 28.7236C16.7091 28.8999 17.4241 29.3046 18.0137 29.6582C19.3005 30.4301 20.9529 31.5756 22.2676 32.5146C22.9285 32.9868 23.5109 33.412 23.9277 33.7188C24.1361 33.8721 24.3036 33.9962 24.4189 34.082C24.4765 34.1248 24.5213 34.1579 24.5518 34.1807C24.567 34.192 24.579 34.2011 24.5869 34.207C24.5907 34.2099 24.5937 34.2124 24.5957 34.2139L24.5977 34.2148L24.5986 34.2158C24.6711 34.2702 24.7329 34.3332 24.7861 34.4014C25.0541 34.3077 25.3338 34.2056 25.625 34.0879C26.7393 33.6375 27.3931 32.8978 28.2256 31.9873C29.044 31.0922 30.0264 30.0511 31.7188 29.5557C34.2145 28.8253 35.8737 29.1925 38.1445 29.5264C40.2999 29.8432 42.7933 30.9046 44.6855 31.8389C45.6453 32.3127 46.4774 32.7672 47.0693 33.1035C47.3655 33.2718 47.6028 33.4112 47.7666 33.5088C47.8484 33.5575 47.9123 33.5955 47.9561 33.6221C47.9777 33.6352 47.9942 33.6462 48.0059 33.6533C48.0116 33.6569 48.0163 33.6601 48.0195 33.6621L48.0254 33.665C48.495 33.9557 48.6402 34.5724 48.3496 35.042C48.0588 35.5111 47.4421 35.6557 46.9727 35.3652L46.9707 35.3643C46.9687 35.363 46.9653 35.3611 46.9609 35.3584C46.9515 35.3526 46.9364 35.3429 46.917 35.3311C46.8781 35.3074 46.8195 35.272 46.7432 35.2266C46.5898 35.1352 46.3642 35.0027 46.0811 34.8418C45.5141 34.5197 44.717 34.0847 43.7998 33.6318C41.9378 32.7125 39.6806 31.7735 37.8535 31.5049C35.4885 31.1572 34.2817 30.8898 32.2803 31.4756C31.1623 31.8029 30.5009 32.4622 29.7012 33.3369C28.9157 34.196 27.9746 35.2955 26.374 35.9424C24.5758 36.669 23.0632 37.0288 21.5059 37.0107C20.4924 36.9989 19.4948 36.8242 18.4238 36.5254L18.4229 36.5264C18.3353 36.5403 18.1964 36.5709 18.0283 36.6357C17.6983 36.7633 17.2336 37.0307 16.8008 37.6123C16.7171 37.7251 16.6184 38.0125 16.5566 38.4111C16.5297 38.5854 16.5147 38.7461 16.5068 38.8623C16.503 38.9192 16.5011 38.9648 16.5 38.9941C16.4994 39.0086 16.4992 39.0203 16.499 39.0264V39.0303C16.4976 39.124 16.4824 39.2142 16.457 39.2998C16.6753 39.435 16.8746 39.5584 17.0547 39.6641C17.2624 39.7859 17.4361 39.8827 17.5742 39.9541C17.6429 39.9896 17.6985 40.0174 17.7422 40.0371C17.7637 40.0468 17.7812 40.0535 17.7939 40.0586L17.8135 40.0664C17.8151 40.0669 17.8327 40.0721 17.8711 40.0801C17.911 40.0884 17.9643 40.0977 18.0322 40.1074C18.1691 40.127 18.3458 40.146 18.5615 40.1621C18.9929 40.1943 19.5448 40.215 20.1807 40.2266C21.4506 40.2497 23.0138 40.2343 24.54 40.2031C26.0643 40.172 27.5433 40.1249 28.6416 40.0859C29.1902 40.0665 29.6439 40.0488 29.96 40.0361C30.1178 40.0298 30.2422 40.025 30.3262 40.0215C30.3679 40.0197 30.4004 40.0185 30.4219 40.0176C30.4323 40.0171 30.4409 40.0168 30.4463 40.0166H30.5566C31.0624 40.0461 31.4735 40.4546 31.4961 40.9717C31.5198 41.5232 31.0925 41.9905 30.541 42.0146H30.5322C30.5266 42.0149 30.5177 42.0152 30.5068 42.0156C30.4848 42.0166 30.4515 42.0178 30.4092 42.0195C30.324 42.0231 30.1989 42.0288 30.04 42.0352C29.7215 42.0479 29.2649 42.0654 28.7129 42.085C27.6085 42.1242 26.1187 42.1717 24.5811 42.2031C23.0454 42.2345 21.4517 42.2504 20.1436 42.2266C19.4909 42.2147 18.8977 42.1924 18.4131 42.1562C17.9652 42.1228 17.5029 42.0708 17.1816 41.9639C16.8787 41.8629 16.4614 41.6358 16.042 41.3896C15.5917 41.1254 15.041 40.7804 14.4307 40.3867C13.2086 39.5983 11.7155 38.5923 10.2461 37.5918C8.75178 36.5744 7.34473 35.6052 6.17676 34.8105C5.60352 34.4205 5.11046 34.0884 4.73145 33.8389C4.54176 33.714 4.38421 33.6126 4.26172 33.5361C4.20058 33.498 4.15103 33.467 4.1123 33.4443C4.09324 33.4332 4.07777 33.4252 4.06641 33.4189C4.05553 33.4129 4.05037 33.4096 4.0498 33.4092C3.85694 33.3127 3.71596 33.3241 3.54395 33.4082C3.32593 33.5151 3.06646 33.7478 2.80469 34.1055C2.63148 34.3425 2.53138 34.7225 2.54883 35.1406C2.55722 35.3403 2.59131 35.517 2.63574 35.6494C2.66237 35.7286 2.68638 35.7759 2.69922 35.7979C2.70079 35.7991 2.70241 35.8005 2.7041 35.8018C2.74553 35.8333 2.80662 35.8785 2.88867 35.9375C3.05197 36.0549 3.28247 36.2159 3.57227 36.416C4.15112 36.8158 4.9554 37.3619 5.91406 38.0049C7.83141 39.2909 10.3578 40.9603 12.915 42.6133C15.4738 44.2672 18.0565 45.9003 20.0889 47.1182C21.1065 47.728 21.9747 48.2267 22.6279 48.5703C22.956 48.7428 23.2151 48.8686 23.4033 48.9482C23.4584 48.9716 23.5038 48.9865 23.5381 48.999C23.5587 48.994 23.5855 48.9895 23.6172 48.9805C23.7442 48.9443 23.9154 48.8857 24.1309 48.8027C24.5609 48.637 25.1158 48.3939 25.7646 48.0928C27.0612 47.4909 28.6726 46.6857 30.3018 45.8711C31.9222 45.0609 33.5616 44.2408 34.8896 43.624C35.5526 43.3161 36.1541 43.051 36.6455 42.8613C36.8907 42.7667 37.1234 42.686 37.3301 42.627C37.5167 42.5737 37.7592 42.5157 37.9971 42.5156L38.2412 42.5293C38.8113 42.5914 39.3755 42.856 39.8291 43.1152C40.3844 43.4326 40.9449 43.8435 41.4336 44.2344C41.9261 44.6283 42.3665 45.0199 42.6826 45.3115C42.8411 45.4578 42.9699 45.5805 43.0596 45.667C43.1043 45.7102 43.1397 45.7446 43.1641 45.7686L43.2002 45.8047C43.2011 45.8056 43.2025 45.8061 43.2031 45.8066L43.2041 45.8076C43.5946 46.1981 43.5945 46.8321 43.2041 47.2227C42.8136 47.6124 42.1804 47.6127 41.79 47.2227V47.2217C41.7891 47.2207 41.7865 47.2191 41.7842 47.2168C41.7794 47.2121 41.7717 47.2042 41.7617 47.1943C41.7415 47.1744 41.7108 47.1439 41.6709 47.1055C41.5906 47.028 41.4731 46.9159 41.3271 46.7812C41.0336 46.5104 40.6296 46.1519 40.1846 45.7959C39.7356 45.4368 39.2648 45.0966 38.8359 44.8516C38.3872 44.5952 38.1156 44.5216 38.0088 44.5166C37.9893 44.5205 37.9476 44.5302 37.8789 44.5498C37.7519 44.5861 37.5805 44.6445 37.3652 44.7275C36.9354 44.8934 36.381 45.1373 35.7324 45.4385C34.4362 46.0404 32.8253 46.8456 31.1963 47.6602C29.5757 48.4705 27.9351 49.2905 26.6064 49.9072C25.9433 50.215 25.3414 50.4794 24.8496 50.6689C24.6042 50.7635 24.372 50.8454 24.165 50.9043C23.978 50.9576 23.7351 51.0157 23.4971 51.0156C23.3006 51.0155 23.1226 50.9677 23.0137 50.9346C22.8874 50.8962 22.7548 50.8453 22.624 50.79C22.3616 50.679 22.0467 50.5246 21.6973 50.3408C20.995 49.9715 20.0894 49.4505 19.0605 48.834C16.9994 47.5988 14.3947 45.9513 11.8291 44.293C9.26189 42.6336 6.72607 40.958 4.7998 39.666C3.83708 39.0203 3.02468 38.4684 2.43555 38.0615C2.14165 37.8586 1.89978 37.6895 1.72168 37.5615C1.63308 37.4979 1.55502 37.4406 1.49316 37.3936C1.45041 37.361 1.3618 37.2942 1.29102 37.2236C0.781617 36.7157 0.579095 35.9004 0.550781 35.2236C0.520775 34.5037 0.672312 33.6332 1.19043 32.9248C1.54908 32.4347 2.03977 31.9176 2.66602 31.6113C3.33858 31.2825 4.13728 31.2174 4.94434 31.6211C5.13405 31.716 5.46327 31.9258 5.83105 32.168C5.96215 32.2543 6.10437 32.3517 6.25879 32.4551C6.25012 32.2911 6.25211 32.1166 6.27344 31.9404C6.31411 31.6053 6.43737 31.1636 6.79199 30.8086L6.93457 30.6738C7.65154 30.0356 8.46952 29.8737 9.25195 29.9551C10.0092 30.0339 10.7716 30.347 11.3711 30.5869C11.6492 30.6982 11.91 30.8176 12.1572 30.9404C12.1591 30.9362 12.1612 30.932 12.1631 30.9277C12.2201 30.8016 12.3042 30.6269 12.4092 30.4365C12.5974 30.0952 12.9364 29.5473 13.416 29.2031ZM9.04492 31.9443C8.72163 31.9107 8.49116 31.9647 8.25977 32.1729C8.25943 32.1754 8.25913 32.1788 8.25879 32.1816C8.2485 32.2675 8.25278 32.3989 8.2793 32.5645C8.30482 32.7236 8.34499 32.8774 8.37988 32.9941C8.39687 33.051 8.41178 33.0967 8.42188 33.126C8.42685 33.1404 8.43056 33.1516 8.43262 33.1572L8.43359 33.1592C8.53093 33.4147 8.51602 33.6849 8.41406 33.917C9.33065 34.544 10.3652 35.2529 11.3721 35.9385C12.4773 36.691 13.5879 37.4398 14.5811 38.0947C14.6498 37.6547 14.8034 36.9484 15.1973 36.4189C15.424 36.1142 15.6639 35.8587 15.9043 35.6426C14.8978 35.1817 14.1226 34.6282 13.4111 34.1104C12.5285 33.4679 11.7463 32.8918 10.6279 32.4443C9.95854 32.1765 9.47041 31.9886 9.04492 31.9443ZM15.499 30.6719C15.1379 30.5877 14.8663 30.6243 14.582 30.8281C14.49 30.8944 14.3286 31.0968 14.1602 31.4023C14.0869 31.5352 14.0274 31.6602 13.9863 31.751C13.9661 31.7957 13.95 31.8315 13.9404 31.8545C13.9358 31.8656 13.9325 31.8743 13.9307 31.8789C13.9299 31.8807 13.9289 31.8823 13.9287 31.8828C13.9149 31.9176 13.8989 31.951 13.8818 31.9834C14.1282 32.1563 14.3619 32.328 14.5889 32.4932C15.4593 33.1267 16.2351 33.676 17.3389 34.0752C19.044 34.6918 20.3107 34.9975 21.5293 35.0117C21.7714 35.0145 22.0149 35.0015 22.2627 34.9805C21.926 34.7346 21.5331 34.4471 21.1055 34.1416C19.7952 33.2057 18.1975 32.1008 16.9844 31.373C16.3903 31.0167 15.9163 30.7693 15.499 30.6719ZM30.8105 1.79004C31.2105 1.41017 31.844 1.42581 32.2246 1.8252L42.2246 12.3252L42.8975 13.0312L26.5 29.4287L0.292969 3.22168C-0.0973472 2.83114 -0.0974861 2.19807 0.292969 1.80762C0.683473 1.41777 1.31669 1.41751 1.70703 1.80762L23.0205 23.1211C23.0242 23.119 23.0285 23.1163 23.0322 23.1143H23.0332L23.0342 23.1133L23.0615 23.0996C23.0779 23.0911 23.101 23.0781 23.1299 23.0635C23.1886 23.0337 23.2731 22.9918 23.376 22.9424C23.5817 22.8437 23.8699 22.7117 24.1973 22.5791C24.8087 22.3315 25.7189 22.0139 26.5 22.0137C27.4698 22.0135 28.2645 22.3309 28.8027 22.6338C29.0738 22.7863 29.2891 22.9401 29.4395 23.0586C29.5148 23.118 29.5753 23.17 29.6191 23.209C29.6408 23.2283 29.6591 23.2449 29.6729 23.2578C29.6796 23.2641 29.6856 23.2698 29.6904 23.2744L29.6992 23.2832L29.7002 23.2852H29.7012L29.7021 23.2861C29.7209 23.3046 29.7389 23.3242 29.7559 23.3438L35.8359 17.2627C35.7427 17.18 35.6634 17.0783 35.6045 16.96L36.5 16.5146L35.6045 16.959L35.6025 16.9561C35.6018 16.9544 35.6008 16.9516 35.5996 16.9492C35.597 16.944 35.5931 16.9364 35.5889 16.9277C35.5801 16.9097 35.5678 16.8834 35.5527 16.8516C35.5223 16.7871 35.48 16.6947 35.4297 16.5811C35.329 16.3535 35.1939 16.0334 35.0596 15.6631C34.8008 14.9497 34.5 13.9391 34.5 13.0146C34.5002 12.0902 34.8008 11.0795 35.0596 10.3662C35.1939 9.9959 35.3291 9.67571 35.4297 9.44824C35.4799 9.33466 35.5224 9.24212 35.5527 9.17773C35.5677 9.14593 35.5802 9.11952 35.5889 9.10156C35.5931 9.09297 35.5971 9.08519 35.5996 9.08008C35.6007 9.0777 35.6018 9.07475 35.6025 9.07324L35.6035 9.07129L35.6045 9.07031V9.06934C35.6908 8.89605 35.8209 8.75763 35.9746 8.66309L30.7754 3.2041C30.3951 2.80414 30.4108 2.17074 30.8105 1.79004ZM26.5 24.0137C26.1429 24.0139 25.5518 24.1883 24.9482 24.4326C24.7928 24.4956 24.6461 24.5587 24.5166 24.6172L26.5 26.6006L28.3457 24.7529C28.3297 24.739 28.3132 24.7251 28.2979 24.71C28.2957 24.708 28.2922 24.7059 28.2891 24.7031C28.2724 24.6883 28.2426 24.6625 28.2012 24.6299C28.1172 24.5637 27.9884 24.4704 27.8223 24.377C27.4858 24.1876 27.0294 24.0136 26.5 24.0137ZM29.5 12.5146C31.7087 12.5149 33.4996 14.306 33.5 16.5146C33.5 18.7237 31.709 20.5144 29.5 20.5146C27.2909 20.5146 25.5 18.7238 25.5 16.5146C25.5004 14.3059 27.2911 12.5146 29.5 12.5146ZM29.5 14.5146C28.3957 14.5146 27.5004 15.4104 27.5 16.5146C27.5 17.6192 28.3954 18.5146 29.5 18.5146C30.6044 18.5144 31.5 17.6191 31.5 16.5146C31.4996 15.4106 30.6041 14.5149 29.5 14.5146ZM37.2578 10.2568C37.1711 10.4528 37.0558 10.73 36.9404 11.0479C36.6994 11.7123 36.5002 12.4525 36.5 13.0146C36.5 13.5767 36.6994 14.3168 36.9404 14.9814C37.0558 15.2994 37.1711 15.5763 37.2578 15.7725C37.2649 15.7886 37.2726 15.8044 37.2793 15.8193L40.1025 12.9971L37.334 10.0898C37.3129 10.135 37.2867 10.1916 37.2578 10.2568ZM15.625 2.77148C18.6109 -0.46885 23.3771 -0.935117 26.2705 1.73047C29.1639 4.39639 29.0892 9.18503 26.1035 12.4258C23.1175 15.6665 18.3515 16.1318 15.458 13.4658C12.5648 10.7999 12.6393 6.01218 15.625 2.77148ZM24.7402 3.3916C22.6662 1.48077 19.2488 1.81498 17.1084 4.1377C14.968 6.46069 14.9144 9.89354 16.9883 11.8047C19.0624 13.7158 22.4796 13.3817 24.6201 11.0586C26.7601 8.7355 26.8142 5.30256 24.7402 3.3916Z" fill="#4076FF"/>
</svg>
