<svg width="47" height="45" viewBox="0 0 47 45" fill="none" xmlns="http://www.w3.org/2000/svg">
<path d="M24.1143 0.477539L46.6143 17.9775C47.0498 18.3167 47.128 18.9451 46.7891 19.3809C46.45 19.8165 45.8216 19.8946 45.3857 19.5557L43.5 18.0889V44.7666H3.5V18.0889L1.61426 19.5557C1.17845 19.8946 0.550082 19.8164 0.210938 19.3809C-0.128045 18.945 -0.0499076 18.3167 0.385742 17.9775L22.8857 0.477539L23.5 0L24.1143 0.477539ZM5.30957 16.6807C5.42898 16.8454 5.5 17.0476 5.5 17.2666V42.7666H41.5V17.2666C41.5 17.0477 41.5702 16.8453 41.6895 16.6807L23.5 2.5332L5.30957 16.6807ZM23.4531 14.8896C23.7524 14.8225 24.3366 15.7398 24.8047 16.9492C25.5809 16.6091 26.5783 16.266 27.501 16.2666C28.7404 16.2676 30.0607 16.8868 30.9629 17.3965C31.4373 17.6645 31.8454 17.9313 32.1348 18.1309C32.2799 18.231 32.397 18.3159 32.4785 18.376C32.5191 18.4058 32.5516 18.4292 32.5742 18.4463C32.5833 18.4531 32.5907 18.4592 32.5967 18.4639C32.7594 18.3634 32.9866 18.2666 33.2646 18.2666L33.4248 18.2773C33.7827 18.326 34.035 18.5276 34.1553 18.6357C34.3197 18.7836 34.4596 18.9624 34.5742 19.1289C34.8073 19.4675 35.0456 19.9151 35.2764 20.3994C35.7427 21.3782 36.2509 22.6618 36.7168 23.9189C37.1849 25.182 37.6193 26.4426 37.9355 27.3857C38.0938 27.8576 38.2228 28.2515 38.3125 28.5273C38.3574 28.6653 38.3921 28.7743 38.416 28.8486C38.4279 28.8857 38.4372 28.9142 38.4434 28.9336C38.4465 28.9433 38.4486 28.951 38.4502 28.9561C38.451 28.9585 38.4517 28.9606 38.4521 28.9619L38.4531 28.9629C38.4844 29.0615 38.4994 29.1614 38.5 29.2598V30.2666C38.5 31.6332 37.8885 32.9167 36.8467 33.8428C35.8087 34.7654 34.4231 35.2666 33 35.2666C31.5769 35.2666 30.1914 34.7654 29.1533 33.8428C28.1115 32.9167 27.5 31.6332 27.5 30.2666V29.2666H27.501C27.501 29.1511 27.52 29.0336 27.5625 28.9189L27.5635 28.917C27.564 28.9157 27.5645 28.9136 27.5654 28.9111C27.5673 28.9061 27.5697 28.8983 27.5732 28.8887C27.5805 28.8693 27.5916 28.8407 27.6055 28.8037C27.6332 28.7295 27.6736 28.621 27.7256 28.4834C27.8299 28.2076 27.9799 27.8136 28.1631 27.3418C28.5291 26.399 29.0298 25.1393 29.5645 23.877C30.0968 22.6199 30.6726 21.3377 31.1895 20.3613C31.2476 20.2515 31.306 20.1439 31.3643 20.0391C31.3482 20.0269 31.324 20.0092 31.293 19.9863C31.2261 19.9371 31.1254 19.8645 30.999 19.7773C30.7452 19.6023 30.3892 19.3692 29.9795 19.1377C29.1126 18.6479 28.1825 18.2671 27.499 18.2666C26.9195 18.2663 26.1216 18.5378 25.3672 18.8896C25.4493 19.3242 25.499 19.7532 25.499 20.1523C25.4987 21.229 24.4752 21.7675 23.499 21.7676C22.5228 21.7676 21.4993 21.229 21.499 20.1523C21.499 19.7476 21.5466 19.3187 21.627 18.8877C20.8742 18.5371 20.0791 18.2663 19.501 18.2666C18.8175 18.2671 17.8874 18.6479 17.0205 19.1377C16.6108 19.3692 16.2548 19.6023 16.001 19.7773C15.991 19.7842 15.9813 19.7912 15.9717 19.7979C16.0734 19.9879 16.1765 20.1897 16.2764 20.3994C16.7427 21.3782 17.2509 22.6618 17.7168 23.9189C18.1849 25.182 18.6193 26.4426 18.9355 27.3857C19.0938 27.8576 19.2228 28.2515 19.3125 28.5273C19.3574 28.6653 19.3921 28.7743 19.416 28.8486C19.4279 28.8857 19.4372 28.9142 19.4434 28.9336C19.4465 28.9433 19.4486 28.951 19.4502 28.9561C19.451 28.9585 19.4517 28.9606 19.4521 28.9619L19.4531 28.9629C19.4844 29.0615 19.4994 29.1614 19.5 29.2598V30.2666C19.5 31.6332 18.8885 32.9167 17.8467 33.8428C16.8087 34.7654 15.4231 35.2666 14 35.2666C12.5769 35.2666 11.1914 34.7654 10.1533 33.8428C9.11146 32.9167 8.5 31.6332 8.5 30.2666V29.2666H8.50098C8.50096 29.1511 8.52001 29.0336 8.5625 28.9189L8.56348 28.917C8.56396 28.9157 8.56452 28.9136 8.56543 28.9111C8.5673 28.9061 8.56966 28.8983 8.57324 28.8887C8.58047 28.8693 8.59164 28.8407 8.60547 28.8037C8.63323 28.7295 8.67356 28.621 8.72559 28.4834C8.82986 28.2076 8.9799 27.8136 9.16309 27.3418C9.52912 26.399 10.0298 25.1393 10.5645 23.877C11.0968 22.6199 11.6726 21.3377 12.1895 20.3613C12.4454 19.8778 12.7046 19.4346 12.9521 19.1006C13.0741 18.936 13.22 18.7624 13.3857 18.6201C13.5213 18.5038 13.8304 18.2666 14.2646 18.2666L14.4248 18.2773C14.4875 18.2859 14.5465 18.3008 14.6025 18.3174C14.6744 18.2652 14.7627 18.2016 14.8652 18.1309C15.1546 17.9312 15.5627 17.6645 16.0371 17.3965C16.9393 16.8867 18.2596 16.2676 19.499 16.2666C20.4191 16.266 21.4132 16.6071 22.1885 16.9463C22.6257 15.8193 23.1615 14.956 23.4531 14.8896ZM10.7021 31.2666C10.8657 31.6613 11.1268 32.0316 11.4824 32.3477C12.1322 32.9252 13.0363 33.2666 14 33.2666C14.9637 33.2666 15.8678 32.9252 16.5176 32.3477C16.8732 32.0316 17.1344 31.6613 17.2979 31.2666H10.7021ZM29.7021 31.2666C29.8657 31.6613 30.1268 32.0316 30.4824 32.3477C31.1322 32.9252 32.0363 33.2666 33 33.2666C33.9637 33.2666 34.8678 32.9252 35.5176 32.3477C35.8732 32.0316 36.1344 31.6613 36.2979 31.2666H29.7021ZM13.957 21.2969C13.4814 22.1953 12.9326 23.4135 12.4062 24.6562C11.8822 25.8937 11.3892 27.1343 11.0273 28.0664C10.8467 28.5317 10.6992 28.9194 10.5967 29.1904C10.5867 29.2169 10.5775 29.2424 10.5684 29.2666H17.4492C17.4372 29.2296 17.4242 29.1895 17.4102 29.1465C17.3221 28.8756 17.1951 28.4877 17.0391 28.0225C16.7266 27.0907 16.3001 25.8509 15.8418 24.6143C15.3813 23.3718 14.8977 22.1549 14.4707 21.2588C14.3883 21.0859 14.309 20.9309 14.2363 20.793C14.15 20.9406 14.0566 21.1089 13.957 21.2969ZM32.957 21.2969C32.4814 22.1953 31.9326 23.4135 31.4062 24.6562C30.8822 25.8937 30.3892 27.1343 30.0273 28.0664C29.8467 28.5317 29.6992 28.9194 29.5967 29.1904C29.5867 29.2169 29.5775 29.2424 29.5684 29.2666H36.4492C36.4372 29.2296 36.4242 29.1895 36.4102 29.1465C36.3221 28.8756 36.1951 28.4877 36.0391 28.0225C35.7266 27.0907 35.3001 25.8509 34.8418 24.6143C34.3813 23.3718 33.8977 22.1549 33.4707 21.2588C33.3883 21.0859 33.309 20.9309 33.2363 20.793C33.15 20.9406 33.0566 21.1089 32.957 21.2969Z" fill="#4076FF"/>
</svg>
