<svg width="48" height="49" viewBox="0 0 48 49" fill="none" xmlns="http://www.w3.org/2000/svg">
<path d="M17.9854 14.7373C21.5093 12.9944 26.4316 13.191 29.9658 14.7148C31.0659 15.1893 31.8576 15.8694 32.4209 16.7373C32.9699 17.5832 33.2703 18.559 33.4795 19.5732C33.6905 20.5964 33.8192 21.8267 33.8955 22.7783C33.9165 23.0401 33.9303 23.284 33.9443 23.5H37.0293C37.0763 23.0809 37.1808 22.6695 37.3428 22.2783C37.5406 21.8007 37.8187 21.3608 38.165 20.9785L38.3184 20.8184C38.7362 20.4005 39.2324 20.0689 39.7783 19.8428C39.8618 19.8082 39.946 19.7755 40.0312 19.7461C40.0113 19.6673 40 19.585 40 19.5C40 18.9477 40.4477 18.5 41 18.5H42C42.5523 18.5 43 18.9477 43 19.5C43 19.5854 42.9879 19.6679 42.9678 19.7471C43.0532 19.7765 43.138 19.8081 43.2217 19.8428C43.7676 20.0689 44.2638 20.4005 44.6816 20.8184C45.0995 21.2362 45.4311 21.7324 45.6572 22.2783C45.8192 22.6695 45.9237 23.0809 45.9707 23.5H46L46.2041 23.5107C47.2128 23.613 48 24.4643 48 25.5V27.5C48 28.5357 47.2128 29.387 46.2041 29.4893L46 29.5V46.5C46 47.5357 45.2128 48.387 44.2041 48.4893L44 48.5H4C2.96435 48.5 2.113 47.7128 2.01074 46.7041L2 46.5V29.5C0.96435 29.5 0.113005 28.7128 0.0107422 27.7041L0 27.5V25.5C0 24.3954 0.895431 23.5 2 23.5H14.0527C14.0666 23.2832 14.0834 23.0384 14.1045 22.7754C14.1809 21.8226 14.3098 20.5914 14.5205 19.5723C14.9627 17.4338 15.9629 15.7379 17.9854 14.7373ZM4 46.5H44V29.5H4V46.5ZM2 27.5H46V25.5H2V27.5ZM41.5 21.4971C41.1713 21.4971 40.8457 21.5617 40.542 21.6875C40.2383 21.8133 39.9619 21.9971 39.7295 22.2295C39.4971 22.4619 39.3133 22.7383 39.1875 23.042C39.1261 23.1902 39.0797 23.3436 39.0479 23.5H43.9521C43.9203 23.3436 43.8739 23.1902 43.8125 23.042C43.6867 22.7383 43.5029 22.4619 43.2705 22.2295C43.0381 21.9971 42.7617 21.8133 42.458 21.6875C42.2304 21.5932 41.9904 21.5329 41.7461 21.5088L41.5 21.4971ZM29.1738 16.5518C26.0769 15.2164 21.7793 15.0931 18.873 16.5303C17.5455 17.1869 16.8335 18.2656 16.4795 19.9775C16.2946 20.8721 16.1733 22.0034 16.0986 22.9346C16.0825 23.1356 16.0722 23.3258 16.0605 23.5H31.9404C31.9288 23.327 31.9183 23.1381 31.9023 22.9385C31.8278 22.0086 31.7061 20.8763 31.5205 19.9766C31.3327 19.0658 31.0959 18.3696 30.7432 17.8262C30.4047 17.3048 29.9284 16.8772 29.1738 16.5518ZM24 0C27.3135 0.000297755 30 2.68648 30 6C30 9.31353 27.3135 11.9997 24 12C20.6863 12 18 9.31371 18 6C18 2.68629 20.6863 0 24 0ZM24 2C21.7909 2 20 3.79086 20 6C20 8.20914 21.7909 10 24 10C26.2089 9.9997 28 8.20896 28 6C28 3.79104 26.2089 2.0003 24 2Z" fill="#4076FF"/>
</svg>
