<svg width="51" height="28" viewBox="0 0 51 28" fill="none" xmlns="http://www.w3.org/2000/svg">
<path d="M30.4453 0C30.7464 0 31.0318 0.135504 31.2217 0.369141L37.4229 8.00098C38.5981 8.00096 39.4722 8.00106 39.9463 8.00098C42.1738 8.00057 44.4103 8.82707 46.1426 9.74023C47.0177 10.2016 47.7889 10.6987 48.3965 11.1523C48.9781 11.5867 49.484 12.0364 49.7578 12.416C49.962 12.6993 50.0904 13.0896 50.1787 13.4072C50.2784 13.7658 50.3693 14.1965 50.4482 14.6621C50.6065 15.5955 50.7289 16.7297 50.7793 17.8301C50.8292 18.9193 50.8115 20.0314 50.668 20.8984C50.5979 21.322 50.485 21.768 50.2842 22.1348C50.0865 22.4956 49.6672 23.0008 48.9473 23.001H45.3604C44.8838 25.838 42.4177 27.9998 39.4453 28C36.2994 28 33.72 25.5787 33.4668 22.498C33.4597 22.4982 33.4524 22.5 33.4453 22.5H17.4453C17.4167 22.5 17.3884 22.4975 17.3604 22.4951C16.8861 25.3351 14.4189 27.5 11.4443 27.5C8.64915 27.4998 6.30121 25.5881 5.63477 23.001H1.94727C1.31573 23.0009 0.994854 22.5121 0.912109 22.377C0.787322 22.1731 0.701933 21.9373 0.639648 21.7295C0.51058 21.2987 0.406619 20.7291 0.322266 20.1025C0.151704 18.8355 0.0414133 17.1709 0.00976562 15.5205C-0.0218135 13.8732 0.0241703 12.1956 0.180664 10.9111C0.257741 10.2786 0.368082 9.68241 0.53418 9.2207C0.615654 8.99428 0.734127 8.73281 0.916992 8.51074C1.10522 8.28229 1.44796 8.00152 1.94629 8.00098C2.59651 8.00035 9.02676 8.00078 16.4453 8.00098V1C16.4453 0.447772 16.8931 9.17307e-05 17.4453 0H30.4453ZM39.4453 18C37.2362 18 35.4453 19.7909 35.4453 22C35.4453 24.2091 37.2362 26 39.4453 26C41.6543 25.9998 43.4453 24.209 43.4453 22C43.4453 19.791 41.6543 18.0002 39.4453 18ZM11.4443 17.5C9.23535 17.5002 7.44434 19.291 7.44434 21.5C7.44434 23.709 9.23535 25.4998 11.4443 25.5C13.6535 25.5 15.4443 23.7091 15.4443 21.5C15.4443 19.2909 13.6535 17.5 11.4443 17.5ZM2.38477 10.001C2.30675 10.2564 2.22844 10.641 2.16602 11.1533C2.02554 12.3064 1.97809 13.8791 2.00879 15.4814C2.03944 17.0806 2.14716 18.6658 2.30469 19.8359C2.37112 20.3294 2.44397 20.7218 2.51465 21.001H5.4668C5.72046 17.9209 8.29887 15.5002 11.4443 15.5C14.4186 15.5 16.8857 17.6644 17.3604 20.5039C17.3884 20.5015 17.4167 20.5 17.4453 20.5H33.4453C33.5083 20.5 33.5701 20.5064 33.6299 20.5176C34.2898 17.9209 36.6433 16 39.4453 16C42.4184 16.0002 44.8846 18.163 45.3604 21.001H48.5977C48.629 20.8998 48.6633 20.7587 48.6943 20.5713C48.8042 19.9073 48.8286 18.9572 48.7812 17.9219C48.7344 16.8975 48.6203 15.844 48.4766 14.9961C48.4045 14.5713 48.3271 14.2128 48.252 13.9424C48.1655 13.6315 48.112 13.5531 48.1357 13.5859C48.0485 13.465 47.7486 13.1634 47.2002 12.7539C46.6777 12.3638 45.9943 11.9232 45.21 11.5098C43.6228 10.6731 41.7196 10.0007 39.9473 10.001C36.1416 10.0017 6.56473 9.99992 2.38477 10.001ZM18.4453 8.00098C20.1018 8.00103 21.7853 8.00092 23.4453 8.00098V2H18.4453V8.00098ZM25.4453 8H34.8438L29.9688 2H25.4453V8Z" fill="#4076FF"/>
</svg>
