<svg width="51" height="40" viewBox="0 0 51 40" fill="none" xmlns="http://www.w3.org/2000/svg">
<path d="M48.9893 31.3962H23.8896C23.8896 31.3962 23.648 29.5194 23.8896 28.36C24.705 24.4473 30.9108 26.5483 32.2562 22.7935C32.726 21.4823 32.7483 19.2513 32.7483 19.2513C32.7483 19.2513 28.6726 15.8465 29.3033 13.1788C29.5063 12.32 30.5597 11.9931 30.2878 11.1546C30.1159 10.6244 29.3033 10.1426 29.3033 10.1426C29.3033 10.1426 28.8395 7.60158 29.3033 6.09426C29.9196 4.09138 30.9883 3.11272 32.7483 2.04595C34.7626 0.825102 37.1777 1.034 38.6541 1.03387C40.1306 1.03375 38.4629 1.28032 38.6541 2.04595C39.095 3.81063 40.8674 3.42614 41.6073 5.08167C42.0165 5.99728 43.0838 7.10582 42.5914 8.62445C42.1836 9.88208 41.4595 10.0036 42.0992 11.1546C42.443 11.7733 42.5756 12.3642 42.5914 13.1788C42.6205 14.6835 41.1149 16.7211 41.1149 16.7211L39.6385 19.2513C39.6385 19.2513 39.6624 21.4817 40.1306 22.7935C41.5274 26.7071 48.1509 24.2813 48.9893 28.36C49.2278 29.5201 48.9893 31.3962 48.9893 31.3962Z" fill="white" stroke="#4076FF" stroke-width="2"/>
<path d="M41.8329 35.1932H12.9682C12.9682 35.1932 12.6904 33.0817 12.9682 31.7774C13.906 27.3756 21.0426 29.7393 22.5898 25.5152C23.1301 24.04 23.1558 21.5301 23.1558 21.5301C23.1558 21.5301 18.4686 17.6998 19.1939 14.6986C19.4274 13.7325 20.6388 13.3647 20.3262 12.4214C20.1285 11.8249 19.1939 11.2828 19.1939 11.2828C19.1939 11.2828 18.6606 8.42421 19.1939 6.72848C19.9027 4.47524 21.1317 3.37424 23.1558 2.17413C25.4722 0.800676 28.2495 1.03568 29.9474 1.03554C31.6454 1.0354 29.7275 1.3128 29.9474 2.17413C30.4544 4.15939 32.4927 3.72685 33.3436 5.58931C33.8142 6.61938 35.0415 7.86649 34.4752 9.57495C34.0063 10.9898 33.1736 11.1265 33.9093 12.4214C34.3046 13.1174 34.4571 13.7821 34.4752 14.6986C34.5088 16.3914 32.7773 18.6836 32.7773 18.6836L31.0794 21.5301C31.0794 21.5301 31.1069 24.0393 31.6454 25.5152C33.2517 29.918 40.8687 27.1889 41.8329 31.7774C42.1071 33.0825 41.8329 35.1932 41.8329 35.1932Z" fill="white" stroke="#4076FF" stroke-width="2"/>
<path d="M33.4123 38.9893H1.13808C1.13808 38.9893 0.827394 36.6422 1.13808 35.1923C2.18659 30.2993 10.1662 32.9268 11.8961 28.2312C12.5003 26.5914 12.529 23.8014 12.529 23.8014C12.529 23.8014 7.28822 19.5436 8.09918 16.2075C8.36024 15.1335 9.71468 14.7247 9.36518 13.6762C9.14414 13.0131 8.09918 12.4105 8.09918 12.4105C8.09918 12.4105 7.5028 9.23289 8.09918 7.34791C8.89163 4.84321 10.2658 3.61934 12.529 2.2853C15.119 0.758565 18.2244 1.0198 20.1229 1.01964C22.0214 1.01948 19.8769 1.32784 20.1229 2.2853C20.6898 4.49211 22.9688 4.0113 23.9202 6.08161C24.4464 7.22663 25.8187 8.61292 25.1855 10.512C24.6612 12.0848 23.7302 12.2368 24.5527 13.6762C24.9948 14.4498 25.1652 15.1887 25.1855 16.2075C25.223 18.0892 23.287 20.6373 23.287 20.6373L21.3885 23.8014C21.3885 23.8014 21.4193 26.5907 22.0214 28.2312C23.8175 33.1253 32.3342 30.0917 33.4123 35.1923C33.7189 36.6431 33.4123 38.9893 33.4123 38.9893Z" fill="white" stroke="#4076FF" stroke-width="2"/>
</svg>
