<svg width="48" height="42" viewBox="0 0 48 42" fill="none" xmlns="http://www.w3.org/2000/svg">
<path fill-rule="evenodd" clip-rule="evenodd" d="M26.25 25.7504C30.6683 25.7504 34.25 29.3321 34.25 33.7504C34.2499 38.1686 30.6682 41.7504 26.25 41.7504H8.25C3.8318 41.7504 0.250121 38.1686 0.25 33.7504C0.25 29.3321 3.83172 25.7504 8.25 25.7504H26.25ZM8.25 28.7504C5.48858 28.7504 3.25 30.989 3.25 33.7504C3.25012 36.5117 5.48865 38.7504 8.25 38.7504H26.25C29.0113 38.7504 31.2499 36.5117 31.25 33.7504C31.25 30.989 29.0114 28.7504 26.25 28.7504H8.25Z" fill="#4076FF"/>
<path fill-rule="evenodd" clip-rule="evenodd" d="M43.75 1.7504C45.6829 1.75052 47.25 3.31748 47.25 5.2504V11.9897C47.2498 13.9224 45.6828 15.4895 43.75 15.4897H35.2266C35.0762 15.4898 34.9337 15.5575 34.8389 15.6742L31.5205 19.7602C30.4657 21.8037 27.3039 21.0031 27.4092 18.6459L28.0156 5.09415C28.0993 3.22386 29.6405 1.7504 31.5127 1.7504H43.75ZM31.5127 4.7504C31.2453 4.7504 31.0247 4.9608 31.0127 5.22794L30.5195 16.2328L32.5098 13.7836C33.1743 12.9653 34.1725 12.4898 35.2266 12.4897H43.75C44.0259 12.4895 44.2498 12.2656 44.25 11.9897V5.2504C44.25 4.97433 44.026 4.75052 43.75 4.7504H31.5127Z" fill="#4076FF"/>
<path d="M14.3711 0.838291C16.1555 0.197755 18.0855 0.0772784 19.9355 0.491611C21.3234 0.802515 22.624 1.40499 23.7529 2.25235C24.3778 2.72142 24.3728 3.62662 23.8203 4.17911C23.2679 4.73146 22.3785 4.71776 21.7285 4.28458C20.9985 3.79781 20.1814 3.44688 19.3174 3.25333C17.9907 2.95614 16.6067 3.04204 15.3271 3.50138C14.0476 3.96073 12.9246 4.77405 12.0898 5.84708C11.2551 6.92013 10.7428 8.2087 10.6123 9.56192C10.4818 10.9152 10.7391 12.2778 11.3535 13.4906C11.9679 14.7034 12.9147 15.7162 14.083 16.4115C15.2513 17.1068 16.5932 17.4557 17.9521 17.4174C18.8369 17.3924 19.7053 17.2048 20.5146 16.8666C21.2354 16.5654 22.112 16.721 22.5488 17.3686C22.9856 18.0164 22.8181 18.9064 22.1152 19.2475C20.845 19.8637 19.4531 20.2065 18.0312 20.2465C16.1361 20.2998 14.2649 19.8128 12.6357 18.8432C11.0065 17.8735 9.68594 16.4603 8.8291 14.769C7.97241 13.0777 7.61396 11.1776 7.7959 9.29044C7.97786 7.40319 8.69325 5.60629 9.85742 4.10978C11.0215 2.61351 12.5868 1.47885 14.3711 0.838291Z" fill="#4076FF"/>
<path fill-rule="evenodd" clip-rule="evenodd" d="M26.25 25.7504C30.6683 25.7504 34.25 29.3321 34.25 33.7504C34.2499 38.1686 30.6682 41.7504 26.25 41.7504H8.25C3.8318 41.7504 0.250121 38.1686 0.25 33.7504C0.25 29.3321 3.83172 25.7504 8.25 25.7504H26.25ZM8.25 28.7504C5.48858 28.7504 3.25 30.989 3.25 33.7504C3.25012 36.5117 5.48865 38.7504 8.25 38.7504H26.25C29.0113 38.7504 31.2499 36.5117 31.25 33.7504C31.25 30.989 29.0114 28.7504 26.25 28.7504H8.25Z" stroke="white" stroke-width="0.5"/>
<path fill-rule="evenodd" clip-rule="evenodd" d="M43.75 1.7504C45.6829 1.75052 47.25 3.31748 47.25 5.2504V11.9897C47.2498 13.9224 45.6828 15.4895 43.75 15.4897H35.2266C35.0762 15.4898 34.9337 15.5575 34.8389 15.6742L31.5205 19.7602C30.4657 21.8037 27.3039 21.0031 27.4092 18.6459L28.0156 5.09415C28.0993 3.22386 29.6405 1.7504 31.5127 1.7504H43.75ZM31.5127 4.7504C31.2453 4.7504 31.0247 4.9608 31.0127 5.22794L30.5195 16.2328L32.5098 13.7836C33.1743 12.9653 34.1725 12.4898 35.2266 12.4897H43.75C44.0259 12.4895 44.2498 12.2656 44.25 11.9897V5.2504C44.25 4.97433 44.026 4.75052 43.75 4.7504H31.5127Z" stroke="white" stroke-width="0.5"/>
<path d="M14.3711 0.838291C16.1555 0.197755 18.0855 0.0772784 19.9355 0.491611C21.3234 0.802515 22.624 1.40499 23.7529 2.25235C24.3778 2.72142 24.3728 3.62662 23.8203 4.17911C23.2679 4.73146 22.3785 4.71776 21.7285 4.28458C20.9985 3.79781 20.1814 3.44688 19.3174 3.25333C17.9907 2.95614 16.6067 3.04204 15.3271 3.50138C14.0476 3.96073 12.9246 4.77405 12.0898 5.84708C11.2551 6.92013 10.7428 8.2087 10.6123 9.56192C10.4818 10.9152 10.7391 12.2778 11.3535 13.4906C11.9679 14.7034 12.9147 15.7162 14.083 16.4115C15.2513 17.1068 16.5932 17.4557 17.9521 17.4174C18.8369 17.3924 19.7053 17.2048 20.5146 16.8666C21.2354 16.5654 22.112 16.721 22.5488 17.3686C22.9856 18.0164 22.8181 18.9064 22.1152 19.2475C20.845 19.8637 19.4531 20.2065 18.0312 20.2465C16.1361 20.2998 14.2649 19.8128 12.6357 18.8432C11.0065 17.8735 9.68594 16.4603 8.8291 14.769C7.97241 13.0777 7.61396 11.1776 7.7959 9.29044C7.97786 7.40319 8.69325 5.60629 9.85742 4.10978C11.0215 2.61351 12.5868 1.47885 14.3711 0.838291Z" stroke="white" stroke-width="0.5"/>
</svg>
